<?xml version="1.0" standalone="no"?><!DOCTYPE svg PUBLIC "-//W3C//DTD SVG 1.1//EN" "http://www.w3.org/Graphics/SVG/1.1/DTD/svg11.dtd"><svg t="1727071499776" class="icon" viewBox="0 0 1024 1024" version="1.1" xmlns="http://www.w3.org/2000/svg" p-id="7959" xmlns:xlink="http://www.w3.org/1999/xlink" width="256" height="256"><path d="M878.933333 85.333333h-307.2c-25.6 0-42.666667 17.066667-42.666666 42.666667s17.066667 42.666667 42.666666 42.666667h204.8L554.666667 392.533333C507.733333 362.666667 448 341.333333 384 341.333333c-166.4 0-298.666667 132.266667-298.666667 298.666667s132.266667 298.666667 298.666667 298.666667 298.666667-132.266667 298.666667-298.666667c0-72.533333-25.6-136.533333-68.266667-187.733333l221.866667-221.866667v204.8c0 25.6 17.066667 42.666667 42.666666 42.666667s42.666667-17.066667 42.666667-42.666667V128c0-25.6-17.066667-42.666667-42.666667-42.666667zM384 853.333333c-119.466667 0-213.333333-93.866667-213.333333-213.333333s93.866667-213.333333 213.333333-213.333333 213.333333 93.866667 213.333333 213.333333-93.866667 213.333333-213.333333 213.333333z" fill="#374151" p-id="7960"></path></svg>