<?xml version="1.0" standalone="no"?><!DOCTYPE svg PUBLIC "-//W3C//DTD SVG 1.1//EN" "http://www.w3.org/Graphics/SVG/1.1/DTD/svg11.dtd"><svg t="1727071820812" class="icon" viewBox="0 0 1024 1024" version="1.1" xmlns="http://www.w3.org/2000/svg" p-id="10110" xmlns:xlink="http://www.w3.org/1999/xlink" width="256" height="256"><path d="M435.2 712.533333v-85.333333c-145.066667-17.066667-256-136.533333-256-285.866667 0-157.866667 128-290.133333 290.133333-290.133333s290.133333 128 290.133334 290.133333c0 149.333333-110.933333 268.8-256 285.866667v85.333333H682.666667c17.066667 0 34.133333 12.8 34.133333 34.133334s-12.8 34.133333-34.133333 34.133333h-179.2v128c0 17.066667-12.8 34.133333-34.133334 34.133333s-34.133333-12.8-34.133333-34.133333v-128H256c-17.066667 0-34.133333-12.8-34.133333-34.133333s12.8-34.133333 34.133333-34.133334h179.2z m34.133333-149.333333c123.733333 0 221.866667-102.4 221.866667-221.866667S593.066667 119.466667 469.333333 119.466667 247.466667 217.6 247.466667 341.333333s98.133333 221.866667 221.866666 221.866667z" fill="#333333" p-id="10111"></path></svg>