<?xml version="1.0" standalone="no"?><!DOCTYPE svg PUBLIC "-//W3C//DTD SVG 1.1//EN" "http://www.w3.org/Graphics/SVG/1.1/DTD/svg11.dtd"><svg t="1725012034612" class="icon" viewBox="0 0 1024 1024" version="1.1" xmlns="http://www.w3.org/2000/svg" p-id="8038" xmlns:xlink="http://www.w3.org/1999/xlink" width="256" height="256"><path d="M652.8 534.4C723.2 489.6 768 409.6 768 320c0-140.8-115.2-256-256-256S256 179.2 256 320c0 89.6 44.8 169.6 115.2 214.4C192 592 64 761.6 64 960h64c0-211.2 172.8-384 384-384s384 172.8 384 384h64c0-198.4-128-368-307.2-425.6zM512 512c-105.6 0-192-86.4-192-192s86.4-192 192-192 192 86.4 192 192-86.4 192-192 192z" fill="#333333" p-id="8039"></path></svg>