<?xml version="1.0" standalone="no"?><!DOCTYPE svg PUBLIC "-//W3C//DTD SVG 1.1//EN" "http://www.w3.org/Graphics/SVG/1.1/DTD/svg11.dtd"><svg t="1744615948875" class="icon" viewBox="0 0 1024 1024" version="1.1" xmlns="http://www.w3.org/2000/svg" p-id="3527" xmlns:xlink="http://www.w3.org/1999/xlink" width="256" height="256"><path d="M479.925 533.25v-42.66H383.94V426.6h82.732l-84.026-84.026 45.248-45.248 84.026 84.026 84.026-84.026 45.248 45.248-84.026 84.026H639.9v63.99h-95.985v42.66H639.9v63.99h-95.985v85.32h-63.99v-85.32H383.94v-63.99h95.985zM853.2 328.79v439.09c0 35.34-28.65 63.99-63.99 63.99H234.63c-35.34 0-63.99-28.65-63.99-63.99V328.79c-14.855 5.271-31.689-1.116-39.108-15.518-8.092-15.708-1.918-35.002 13.79-43.095L497.269 88.872a31.995 31.995 0 0 1 29.304 0l351.945 181.305c15.709 8.093 21.883 27.387 13.79 43.095-7.418 14.402-24.252 20.79-39.107 15.517z m-618.57-32.638V767.88h554.58V296.152L511.92 153.306 234.63 296.152z m-87.012 600.596l-22.219-23.022 46.045-44.437 22.218 23.023a72.711 72.711 0 0 0 52.32 22.218h531.876a72.711 72.711 0 0 0 52.32-22.218l22.218-23.023 46.045 44.437-22.219 23.022a136.701 136.701 0 0 1-98.364 41.772H245.982a136.701 136.701 0 0 1-98.364-41.772z" fill="#000000" p-id="3528"></path></svg>