<?xml version="1.0" standalone="no"?><!DOCTYPE svg PUBLIC "-//W3C//DTD SVG 1.1//EN" "http://www.w3.org/Graphics/SVG/1.1/DTD/svg11.dtd"><svg t="1716820610648" class="icon" viewBox="0 0 1024 1024" version="1.1" xmlns="http://www.w3.org/2000/svg" p-id="5476" xmlns:xlink="http://www.w3.org/1999/xlink" width="200" height="200"><path d="M754.693558 24.106569C794.204812-6.114837 821.3688-9.054662 850.767054 21.872301a259.998163 259.998163 0 0 1 51.03537 77.14102c30.221406 72.437299 47.977951 147.461644 37.747359 227.660083-2.469453 19.402848 7.055581 41.039963 13.288011 60.913183 54.798346 173.80248 36.806615 333.964171-87.841985 474.487827L849.943903 846.669729 864.760623 814.919614l-0.823151 0.705558 10.936151-13.288011 8.937069-11.759302 38.57051-81.374368c7.40836-31.514929 14.934313-63.147451 22.342673-94.074414a142.640331 142.640331 0 0 0 1.058338-119.23932l-11.759302-58.796509-11.759302-35.277906L911.79783 376.297657l-10.230592-22.342673-14.111162-24.694534a22.342673 22.342673 0 0 0-2.939826-10.112999l-9.877813-11.759302-10.700965-13.405604-13.64079-19.87322-23.518604-47.037207-11.759301-11.053744A28.927882 28.927882 0 0 0 805.964114 211.667432l-23.518603-21.401929 31.279742-128.17639 13.523198 11.759302 14.111162 35.277906 9.76022 12.46486a26.340836 26.340836 0 0 0 1.17593 10.465778l0.705558 11.994488 9.289849 11.759302 1.999081 23.518603 9.760221 23.518604a37.982545 37.982545 0 0 0 0 10.936151c-3.527791 30.926964 4.468535 56.679835 40.92237 78.787322-6.585209-38.452917-11.759302-70.555811-17.403767-102.188333l-0.705558-11.759302-10.583372-24.812127-2.116674-22.460266-9.76022-11.759302a45.038126 45.038126 0 0 0-1.411117-11.759302l-9.407441-13.170418-24.92972-43.627009-0.823151-1.17593-9.995406-10.348186a26.811208 26.811208 0 0 0-10.113-2.469453l-36.924208 0.705558a64.793753 64.793753 0 0 0-10.700964 1.17593l-1.411116-1.646302-10.113-10.230593z" fill="#DB8303" p-id="5477"></path><path d="M62.893834 413.457051l2.35186-11.759302 9.760221-23.518603 3.52779-12.582453 7.643547-12.700046a11.759302 11.759302 0 0 1 2.35186-10.583372v-33.749196l-2.704639-33.161231-8.231512-37.159394-3.52779-33.278824L65.128101 167.452458l-2.939825-18.814883-7.643546-16.34543-2.234268-47.037207 11.759302-21.166743 1.058337-2.234268 8.819477-8.349104 11.759302-4.233348 52.446486-1.175931 19.050068 3.175012 23.518604 9.877813 11.759302 3.762977 11.759302 7.761139a9.76022 9.76022 0 0 1 9.995406 3.410198l-11.171337 20.578778-11.759301-2.939826-11.759302-8.819476-11.759302-1.763895-12.112081-9.525035-22.342673-1.881488H98.994891l-11.759302 1.763895-11.759302 12.46486v33.866789l10.348186 23.518604 1.528709 23.518603 10.700964 35.277906 1.058338 23.518603 10.112999 35.277906 13.758383 23.518603 11.053744-11.759301 11.759302-11.759302 11.759301-11.759302 13.640791 14.581534c0 3.762977-0.705558 7.40836-0.823152 11.171337l-9.407441 10.583371h-3.88057l-11.053743 11.759302L135.683912 312.327056a19.990813 19.990813 0 0 1-2.587046 9.525034l-9.760221 11.759302-2.939825 11.759302-9.054663 11.759301-2.704639 11.759302-8.819476 11.759302a24.106569 24.106569 0 0 1-1.881489 11.759302L88.646705 406.283877l-2.704639 21.401929-10.230593 11.994488-2.704639 33.866789-9.289849 35.277906v92.075333l8.819477 35.277905L76.887403 649.93661v18.226918l9.289849 27.987138a6.937988 6.937988 0 0 1 2.116674 8.231511l7.643546 15.051907 3.057419 11.759301 9.995406 25.400092 13.64079 21.872302 8.58429 11.759301a10.583372 10.583372 0 0 1 3.998163 8.93707l10.700965 14.934313 9.76022 12.46486 4.821314-1.17593 9.407441 11.053743 0.705558 0.940745 10.583372 11.759301 11.759302 11.759302 11.759302 11.759302 11.759301 11.759302a48.448323 48.448323 0 0 0 2.351861 10.700964l-16.34543 14.463942-46.096463-45.861277-11.759301-14.111163v0.705559l-10.113-13.170418v-0.705559l-8.466697-10.230592a8.231511 8.231511 0 0 1-4.703721-8.701883l-10.700965-15.522279-7.643546-10.465778-4.703721-10.936151-8.231511-12.817639-3.52779-10.936151-7.76114-12.46486-5.409278-19.050069-8.231512-16.933394-2.35186-11.759302-8.701883-23.518603-4.115756-30.574185-8.349104-39.981626v-94.779973l9.289848-47.977951 3.175012-22.695452z" fill="#DC8407" p-id="5478"></path><path d="M202.476746 909.464401l16.34543-14.463942h9.76022l11.053744 14.581535 10.700965 11.053743 16.110243 9.172256a11.759302 11.759302 0 0 1 8.58429 3.645383l12.46486 8.93707h-0.587965l11.053744 11.759301h12.582453l11.759302 11.759302h13.170418a13.758383 13.758383 0 0 1 10.818557 2.822233l13.875976 8.58429a14.111162 14.111162 0 0 1 9.642628 2.35186l11.759302 10.230593 14.699127-1.17593h21.754708l-1.411116 3.410197 11.759302 10.113 36.571428-1.058337h89.60588l37.629766 0.940744 11.759301-10.230593 19.755627-3.175011 15.757465 1.646302 11.759302-10.818558a9.642627 9.642627 0 0 1 8.58429-2.116674l14.81672-8.231511a15.404685 15.404685 0 0 1 11.053744-2.70464h12.935232l11.759302-11.759302 11.759301-7.878732 10.818558-4.233348 12.935232-9.054663a10.818558 10.818558 0 0 1 8.58429-3.52779l14.934314-10.818558 11.759301-9.76022 35.277906-36.924208 33.51401-25.870464L864.760623 862.074414l-46.331649 47.037207-13.993569 11.759302-13.170418 10.583372-10.818558 8.937069a8.349104 8.349104 0 0 1-8.349104 4.468535l-15.522278 10.230593-11.053744 8.113918-10.700965 4.350941-12.935232 8.231512a11.759302 11.759302 0 0 1-10.700964 3.410197l-12.700046 7.996325-18.579697 5.0565-16.933395 8.113918-5.174092 2.587047h-5.762058l-23.988976 8.349104-22.342673 3.292605-48.330731 9.407441H462.592502l-48.213137-9.407441-22.460267-3.292605-23.518603-8.58429h-5.762058l-5.291686-2.587047-16.815802-7.996325-18.579696-5.291686-12.700046-7.878732a11.759302 11.759302 0 0 1-11.28893-2.939825l-12.817639-8.231512-10.700965-4.350941-11.053743-8.113918-15.522279-10.113a8.819476 8.819476 0 0 1-8.349104-4.586128l-10.818558-8.937069-13.170418-10.583372-13.170418-11.759301z" fill="#DC8406" p-id="5479"></path><path d="M204.240642 96.661461l11.171336-20.578778L275.619603 117.593018l15.404686 12.700046 18.109325 1.058337 24.57694-11.171337 23.048232-9.642627 18.579697-3.762977 16.698208-7.525953 31.397336-3.998162 39.158475-8.466698h94.897565l48.565917 9.289849 22.577859 3.057418 23.518604 8.937069h21.637115l12.935232-11.759301 11.759302-11.759302 11.759302-11.759302 11.759301-12.582453 11.759302-12.935232-0.823151 0.823151 11.759302-14.228755 10.465779-10.583371 3.52779 2.939825 10.113 10.230593 1.411116 1.646302a82.315113 82.315113 0 0 0-0.705558 10.818557l-10.700965 11.759302-14.111162 11.759302-10.700965 10.700965-11.053743 11.759301-11.759302 11.759302-11.759302 11.759302-11.759302 10.818558-25.164906 1.999081h-21.401929v-3.998163l-15.404685-8.113918-20.225999 1.646302-13.875976-3.175011-36.689022-8.58429H464.944362L429.666457 117.593018l-33.161231 3.410197-16.110244 8.349105 0.587966 3.880569-21.049151-0.823151-13.993569 8.701883a20.225999 20.225999 0 0 1-11.053744 2.351861l-12.347266 9.407441-11.759302 5.762058h-25.164906a28.104731 28.104731 0 0 0-10.818558-3.645383l-46.214056-35.277906-12.347267-10.348185a31.279743 31.279743 0 0 0-9.995406-1.881489c0-3.645384-1.058337-7.173174-1.999081-10.818557zM138.506145 48.095544l-52.446486 1.175931z" fill="#DD8708" p-id="5480"></path><path d="M606.055984 96.073496l-48.095545-9.289849z" fill="#DC870A" p-id="5481"></path><path d="M50.899346 459.7887L41.609498 507.766651z" fill="#DD8708" p-id="5482"></path><path d="M557.372474 1023.764814l48.330731-9.407441zM414.379365 1014.357373l48.213137 9.407441z" fill="#DD890E" p-id="5483"></path><path d="M88.646705 308.564079zM41.609498 602.546624l8.349104 39.981626z" fill="#DD8708" p-id="5484"></path><path d="M462.592502 86.783647l-39.158475 8.466698z" fill="#DC870A" p-id="5485"></path><path d="M77.592961 238.243454l8.231512 37.159394zM65.128101 167.452458l9.407442 37.512172zM62.893834 413.457051l-8.819476 23.518604zM54.191951 673.337621l8.701883 23.518603zM181.19241 61.148369l-23.518604-9.877813zM64.069764 63.50023l-11.759302 21.166743z" fill="#DD8708" p-id="5486"></path><path d="M651.917261 108.067983l-23.518604-8.937069z" fill="#DC870A" p-id="5487"></path><path d="M367.930123 1002.480478l23.518603 8.58429zM628.045878 1011.299954l24.106569-8.58429z" fill="#DD890E" p-id="5488"></path><path d="M356.758786 110.537437l-22.930639 9.642627zM333.710554 120.297657l-24.57694 11.171337z" fill="#DC870A" p-id="5489"></path><path d="M75.005915 379.002297l-9.760221 23.518603z" fill="#DD8708" p-id="5490"></path><path d="M744.22778 35.277905l-11.759302 14.228756z" fill="#DC870A" p-id="5491"></path><path d="M74.41795 53.504823L65.128101 61.853927z" fill="#DD8708" p-id="5492"></path><path d="M732.821257 48.095544l-11.759302 12.935232z" fill="#DC870A" p-id="5493"></path><path d="M205.416572 72.672485l-11.759302-7.761139z" fill="#DD8708" p-id="5494"></path><path d="M721.414734 60.560404l-11.759301 12.582453zM710.008212 73.26045l-11.759302 11.759302zM698.366503 85.490124l-11.759302 11.759302zM392.036691 99.248507l-16.698208 7.525953zM686.489608 96.779054l-12.935232 11.759302z" fill="#DC870A" p-id="5495"></path><path d="M86.177252 353.719798l-7.643547 12.700046zM65.128101 708.38034l8.113919 16.933394zM78.533705 743.893431l7.76114 12.46486zM89.822635 767.294442l8.231511 12.817639zM102.757867 791.048232l7.643546 10.465778zM110.636599 801.984382l10.230593 15.522279zM125.570913 826.208544l8.466697 10.230592zM144.503388 849.609554l11.759302 14.111163z" fill="#DD8708" p-id="5496"></path><path d="M202.24156 909.346808l13.170418 11.759301z" fill="#DE8C16" p-id="5497"></path><path d="M804.670591 920.988516l13.993569-11.759301z" fill="#DE8C15" p-id="5498"></path><path d="M214.824013 920.400551l13.170418 10.583372z" fill="#DE8C16" p-id="5499"></path><path d="M792.088138 930.983923l13.170418-10.583372z" fill="#DE8C15" p-id="5500"></path><path d="M228.464803 931.219109l10.818558 8.937069z" fill="#DE8C16" p-id="5501"></path><path d="M134.507982 837.144695l10.465779 13.170418z" fill="#DD8708" p-id="5502"></path><path d="M780.799208 940.744143l10.818558-8.937069z" fill="#DE8C15" p-id="5503"></path><path d="M247.632465 944.742306l15.522279 10.112999z" fill="#DE8C16" p-id="5504"></path><path d="M54.54473 132.292145l7.173174 16.34543z" fill="#DD8708" p-id="5505"></path><path d="M756.927826 954.855305l15.522278-10.230592z" fill="#DE8C15" p-id="5506"></path><path d="M263.38993 954.855305l11.053743 8.113919z" fill="#DE8C16" p-id="5507"></path><path d="M745.638896 962.969224l11.053744-8.113919z" fill="#DE8C15" p-id="5508"></path><path d="M285.144638 967.320165l12.817639 8.231512z" fill="#DD890E" p-id="5509"></path><path d="M291.024289 130.410657L275.619603 117.593018z" fill="#DC870A" p-id="5510"></path><path d="M722.002699 976.022049l12.935232-8.231512zM308.780835 978.961874l12.700045 7.878732zM698.601689 986.958199l13.288011-7.996325zM340.060577 992.132292l16.815802 7.996325zM663.088597 1000.128617l16.933395-8.113918z" fill="#DD890E" p-id="5511"></path><path d="M922.263609 709.321084q-19.402848 40.569591-38.57051 81.374368l-8.937069 11.759302-10.936151 13.288011 0.940744-0.823151-61.030776 57.620579c-47.037207 17.52136-92.898484 35.983463-140.053284 51.976114-10.113 3.410198-23.518604-2.35186-35.277906-3.998163l-0.940744-13.758383 105.833716-45.861277c5.291686 2.116674 13.288011 7.525953 15.757465 5.644465 44.685347-34.454754 101.71796-58.796509 102.89389-128.764355A169.333946 169.333946 0 0 1 864.760623 685.567294l-2.234267-1.058337a13.523197 13.523197 0 0 0 1.999081 4.586128c0.705558 0.823151 2.234267 0.705558 3.527791 0.940744a7.290767 7.290767 0 0 0-3.292605-4.468535 84.666973 84.666973 0 0 1-12.700046-27.046394 16.580616 16.580616 0 0 0-0.940744 2.234268 13.993569 13.993569 0 0 0 4.468535-1.999082c0.823151-0.705558 0.705558-2.35186 1.058337-3.52779a7.173174 7.173174 0 0 0-4.586128 3.292604c-29.98622-27.869545-46.096463-72.672485-95.132751-79.845659l-35.277906 1.411116-11.759301-1.646302c7.525953-4.115756 15.051906-8.231511 22.695452-11.759302h59.972439a49.506661 49.506661 0 0 0 11.053744 0.823151l59.502067 22.342674z" fill="#FEF5D4" p-id="5512"></path><path d="M782.445511 189.795131L805.964114 211.667432c-39.864033 47.037207-78.081764 96.308682-120.297657 141.934773-10.936151 11.759302-27.516766 16.580616-22.813046 37.041801l-70.55581-25.164906-23.518604-9.995407a35.277905 35.277905 0 0 1-11.171337-0.705558c17.756546-9.877814 35.277905-20.578778 53.269638-29.280661 15.051906-7.173174 36.101056-7.643546 46.096463-18.69729 32.455673-35.277905 61.618741-74.553973 90.42903-113.35967 3.998163-5.409279-0.940744-17.403767-1.646302-26.340836h11.759302z" fill="#FEE076" p-id="5513"></path><path d="M862.761542 590.669729l-59.502067-22.342673c35.277905-14.934313 68.321543-33.043638 83.138264-71.966927l47.037207-59.61966 11.759301 58.796508-0.823151 36.21865c-20.578778 18.814883-58.796509 28.692696-35.277905 69.967846l-23.518604-11.171337-11.759301-1.411116z" fill="#FEDA5A" p-id="5514"></path><path d="M792.205731 567.503904h-47.037207v-11.759301l11.759302-12.582453 12.46486-11.171337 1.646302-11.759302 21.989894-23.518603c11.759302-4.115756 27.869545-4.821314 35.277906-13.170418 29.515847-34.337161 56.209463-70.555811 83.961414-106.774461l10.700965 24.92972-35.277905 95.015159c-30.809371 3.292605-81.727147 41.980707-95.485531 70.790996z" fill="#FEDC60" p-id="5515"></path><path d="M662.853411 390.644006c-4.703721-20.461185 11.759302-25.282499 22.813046-37.041801C727.88235 307.976114 766.100081 258.704639 805.964114 211.667432a28.927882 28.927882 0 0 1 9.877814 5.409279v32.808452l-11.759302 35.277905h-11.759302l-23.518603 23.518604-11.759302 11.759302c10.936151 30.809371-17.874139 39.628847-31.279743 57.032614-9.642627 12.46486-18.69729 25.400092-27.987138 38.100137z" fill="#FEE072" p-id="5516"></path><path d="M815.841928 249.414791v-11.759302l11.053743-9.995406 23.518604 47.037207-128.764355 151.107028-14.111162 1.293523a55.974277 55.974277 0 0 0-9.642627 2.704639v-4.938906c0-3.175011 0-6.467616-0.587965-9.760221 9.289848-12.700046 18.344511-25.635278 27.987138-38.100138 13.405604-17.403767 42.215893-26.223243 31.279743-57.032613l11.759302-11.759302c30.809371 15.169499 21.989894-9.172255 23.518603-23.518604h11.759302z" fill="#FEDE6E" p-id="5517"></path><path d="M863.937472 293.982545l10.700965 13.758383 9.877813 11.759302a22.342673 22.342673 0 0 1 2.939826 10.112999l-1.058337 25.517685v11.759302c-17.286174 10.700965-35.277905 20.225999-51.388149 32.33808-27.28158 20.225999-53.38723 42.0983-79.963252 63.265043h0.940744l-11.759302-13.052825-13.052825-11.053743c63.617823-29.751034 104.187414-81.374368 132.762517-144.404226z" fill="#FEDE68" p-id="5518"></path><path d="M863.937472 293.982545c-28.575103 62.912265-69.144695 114.535599-133.232889 144.639412a11.053744 11.053744 0 0 1-8.93707-3.410198v-9.525034l128.529169-151.459807z" fill="#FEDD6B" p-id="5519"></path><path d="M782.445511 189.795131l-25.047313-22.695453C765.982488 136.407901 776.213081 105.833716 782.445511 74.789159c1.528709-7.055581-8.937069-16.580616-13.875976-25.047312a82.315113 82.315113 0 0 1 0.705558-10.818558 64.793753 64.793753 0 0 1 10.700964-1.17593L817.723416 37.041801a26.811208 26.811208 0 0 1 10.465779 2.469453l9.995406 10.348186 0.823151 1.17593-11.759301 22.813045-13.523198-11.759302z" fill="#FDD752" p-id="5520"></path><path d="M886.397739 367.007809v-11.759302l14.699127-1.17593L911.79783 376.297657c-27.751952 35.86587-54.445567 72.437299-83.961414 106.774461-7.173174 8.349104-23.518604 9.054662-35.277906 13.170418a109.361507 109.361507 0 0 1 11.759302-29.751034c26.458429-33.631603 54.56316-66.675241 82.079927-99.483693z" fill="#FEDC62" p-id="5521"></path><path d="M862.761542 590.669729l11.759302-1.646302a31.044557 31.044557 0 0 0 11.759301 1.411116l23.518604 11.171337 33.866789 13.523197h0.940744c-7.40836 31.514929-14.934313 63.147451-22.342673 94.074414z" fill="#FDEDB8" p-id="5522"></path><path d="M898.274633 190.618282c5.409279 31.867708 10.818558 63.735416 17.403767 102.188333-36.453836-22.107487-44.450161-47.860358-40.92237-78.787322z" fill="#FCCF35" p-id="5523"></path><path d="M898.274633 190.618282l-23.518603 23.518604a37.982545 37.982545 0 0 1 0-10.936151l-9.760221-23.518604-1.999081-23.518603-9.289848-11.759302-1.293524-12.46486 23.518604-11.759302 9.76022 11.759302 2.116675 22.460267 10.583371 24.812126z" fill="#FCD13F" p-id="5524"></path><path d="M886.397739 496.360129l35.277905-95.015159 11.759302 35.277906z" fill="#FEDB5C" p-id="5525"></path><path d="M875.226402 119.592099l-23.518604 11.759302a26.340836 26.340836 0 0 1-1.17593-10.465779L841.24202 108.655949l-14.111163-35.277906 11.759302-22.813045 24.694534 44.097381 10.230593 13.64079a45.038126 45.038126 0 0 1 1.411116 11.28893z" fill="#FCD348" p-id="5526"></path><path d="M944.841468 531.638034l0.823152-36.21865a142.640331 142.640331 0 0 1-1.058338 119.239321h-0.940744z" fill="#FAD14C" p-id="5527"></path><path d="M803.729847 872.540193L864.760623 814.919614 849.943903 846.669729l-33.866789 26.458429z" fill="#FDEEC3" p-id="5528"></path><path d="M817.723416 37.041801l-36.924208 0.705558z" fill="#FCD348" p-id="5529"></path><path d="M901.096866 354.072577l-14.699127 1.17593 1.058337-25.988057z" fill="#FEDC65" p-id="5530"></path><path d="M897.569075 178.85898l-10.583371-24.812127zM864.760623 179.329352l9.760221 23.518604z" fill="#FCCF35" p-id="5531"></path><path d="M826.895671 227.660083l-11.053743 9.995406v-21.04915z" fill="#FEDF72" p-id="5532"></path><path d="M768.334349 37.276987l-10.113-10.230593z" fill="#DA8000" p-id="5533"></path><path d="M837.831822 49.85944l-9.995406-10.348186zM813.725253 62.089113l13.523198 11.759302z" fill="#FCD348" p-id="5534"></path><path d="M873.815286 108.303169l-10.230593-13.64079z" fill="#FCD13F" p-id="5535"></path><path d="M874.75603 802.454754l8.937069-11.759302z" fill="#FDEEC3" p-id="5536"></path><path d="M884.51625 319.617823l-9.877813-11.759302z" fill="#FEDC65" p-id="5537"></path><path d="M863.937472 815.625172l10.936151-13.288011z" fill="#FDEEC3" p-id="5538"></path><path d="M853.001321 144.051447l9.289849 11.759302zM884.869029 131.586587l-9.76022-11.759302z" fill="#FCCF35" p-id="5539"></path><path d="M841.24202 108.655949l9.76022 12.464859z" fill="#FCD13F" p-id="5540"></path><path d="M73.006834 473.547083l2.704639-33.866789a45.861277 45.861277 0 0 1 10.583372-2.234267L100.406007 451.909968l-1.293523 22.22508a29.515847 29.515847 0 0 1-1.646303 11.759302l-8.819476 10.113 6.467616 47.977951 15.169499 21.989894 35.865871 22.930639 34.454754 13.993569 144.521819 71.614148-7.055581 10.112999h-4.821314l-24.224161 12.817639-15.404686 23.518604-56.562241-23.518604-13.170418-10.465778-0.940745-0.705558-9.995406-9.054663a15.875057 15.875057 0 0 0-9.877814-3.762976l-14.346348-10.700965c-28.810289-18.932476-58.796509-32.33808-92.075333-11.759302l-3.998162-13.170418-8.819477-35.277905v-93.251263z" fill="#FDD752" p-id="5541"></path><path d="M133.332052 71.731741l22.342673 1.881488 12.935232 9.525035 11.759302 1.763895a38.335324 38.335324 0 0 1 0.940744 9.642627l34.68994 107.715205-23.518603 23.518603-13.405604 13.170418-21.989895-1.528709c-19.402848-53.740009-53.034451-103.481856-47.037207-164.630225z" fill="#FED747" p-id="5542"></path><path d="M110.28382 73.378043c-5.997244 61.030776 27.634359 110.772623 47.037207 164.630225 0 3.645384-0.587965 7.173174-0.823151 10.818558l-11.759301 11.759302-11.759302 11.759301-11.053744 11.759302-13.758383-23.518603-10.113-35.277906-1.058337-23.518603-10.700964-35.277906-1.52871-23.518603-10.348185-23.518604V85.72531l11.759302-12.46486 11.759301-1.763895c4.821314 0.705558 8.58429 1.411116 12.347267 1.881488z" fill="#FDD33B" p-id="5543"></path><path d="M100.406007 451.909968L86.294845 437.446027a61.736334 61.736334 0 0 0-1.411117-11.759302l2.70464-21.401929 9.289848-13.875977a24.106569 24.106569 0 0 0 1.881489-11.759301l8.819476-11.759302 2.704639-11.759302 9.054663-11.759302 2.939825-11.759301 9.760221-11.759302a19.990813 19.990813 0 0 0 2.587046-9.525035 50.329812 50.329812 0 0 1 10.818558-2.704639l23.518603 11.759302a72.202113 72.202113 0 0 0-5.291686 26.576022c3.998163 18.814883 11.171337 36.924208 17.050988 55.386311a15.99265 15.99265 0 0 1-9.054662 1.293523l-14.346349 10.113a16.580616 16.580616 0 0 1-9.172255 1.646302l-14.463941 10.936151-10.583372 9.76022z" fill="#FEDD69" p-id="5544"></path><path d="M134.860761 798.926964a10.583372 10.583372 0 0 0-3.998163-8.93707l-8.58429-11.759301a77.258613 77.258613 0 0 1 0.587965-11.759302l55.503905 35.277905c12.347267 7.878732 24.459348 16.110243 36.571428 23.518604a66.204869 66.204869 0 0 1 1.17593 10.700964l10.230593 14.228756 15.051906 9.525034a11.759302 11.759302 0 0 1 9.877814 4.350942l12.700046 7.761139a11.759302 11.759302 0 0 1 10.348185 2.587046v9.760221h-58.796509l-11.759301-11.759302-11.759302-11.759302-11.759302-11.759302-10.583372-11.759301-0.705558-0.940745-9.407441-11.053743-4.821314 1.17593-9.172255-12.582453z" fill="#FEFAEE" p-id="5545"></path><path d="M169.315515 274.462104c0-3.762977 0-7.40836 0.823151-11.171337a78.31695 78.31695 0 0 1 10.348186-2.587046c18.226918 26.928801 37.629766 53.269637 54.092788 81.256775 5.526872 9.407441 3.527791 23.518604 4.938907 35.277905l-23.518604 11.053744c2.939825-35.277905-22.460266-51.505742-47.037207-68.086357l-12.935232-24.92972v-10.583372h3.88057z" fill="#FEDE6D" p-id="5546"></path><path d="M76.887403 649.93661c33.749196-21.04915 63.265044-7.643546 92.075333 11.759302-33.866789 0.823151-58.796509 11.053744-55.386311 51.858521a87.254019 87.254019 0 0 1-4.821314 22.577859 40.804777 40.804777 0 0 1-9.76022-4.468535l-3.057419-11.759301-7.996325-15.522279a6.937988 6.937988 0 0 0-2.116674-8.231511L76.887403 668.163528z" fill="#FEFAEE" p-id="5547"></path><path d="M73.006834 473.547083l-9.289849 35.277906zM98.759705 225.190629l10.112999 35.277906zM63.716985 600.900322l8.819477 35.277905zM87.000403 166.39412l10.700964 35.277906zM180.486852 260.703721a78.31695 78.31695 0 0 0-10.348186 2.587046l-13.64079-14.581534c0-3.645384 0-7.173174 0.823151-10.818558l21.989895 1.528709zM110.28382 73.378043c-3.762977 0-7.525953-1.17593-11.759302-1.881488h34.337162zM76.887403 668.163528l9.289849 27.987138zM98.642112 731.193385a40.804777 40.804777 0 0 0 9.76022 4.468535 6.585209 6.585209 0 0 0 2.939825 7.643546l-1.17593 11.759302-1.528709 1.411116zM123.219052 766.82407a77.258613 77.258613 0 0 0-0.587965 11.759302L108.637518 756.593477l1.528709-1.411116a29.163068 29.163068 0 0 0 7.761139 2.116674 11.759302 11.759302 0 0 0 5.291686 9.525035zM75.123508 119.592099l10.348185 23.518604zM87.235589 73.26045l-11.759302 12.46486zM168.609957 83.138264l-12.935232-9.525035zM181.427596 94.074414a38.335324 38.335324 0 0 0-0.940744-9.642627l11.759302 8.819476 1.058337 3.762977z" fill="#DD8708" p-id="5548"></path><path d="M204.240642 96.661461c0.940744 3.645384 1.646302 7.173174 2.234267 10.818557l-13.405604-9.995406-1.058337-3.410198z" fill="#FED747" p-id="5549"></path><path d="M84.883728 426.157097a61.736334 61.736334 0 0 1 1.411117 11.759302 45.861277 45.861277 0 0 0-10.583372 2.234267zM96.878216 390.879192l-9.289848 13.875976zM107.579181 367.595774l-8.819476 11.759302zM119.338483 344.07717l-9.054663 11.759302zM87.941147 704.382177l7.643546 15.051907zM122.278308 777.995407l8.58429 11.759301zM132.038529 320.440974l-9.760221 11.759302zM134.860761 798.926964l10.700965 14.934313zM145.561726 813.743684l9.76022 12.46486z" fill="#DD8708" p-id="5550"></path><path d="M160.14326 825.032614l9.407441 11.053743z" fill="#F9F0DF" p-id="5551"></path><path d="M145.444133 308.2113a50.329812 50.329812 0 0 0-10.818558 2.704639l10.348186-15.051906 0.705558 0.823151v11.759302z" fill="#DD8708" p-id="5552"></path><path d="M156.027504 284.45751v10.583372a69.144695 69.144695 0 0 0-11.053743 1.293523l-0.705559-0.823151z" fill="#DD8708" p-id="5553"></path><path d="M170.256259 837.027102l10.583372 11.759301z" fill="#F9F0DF" p-id="5554"></path><path d="M169.315515 274.462104l-9.407441 10.583371z" fill="#FEDD69" p-id="5555"></path><path d="M180.957224 849.139182l11.759302 11.759302z" fill="#F9F0DF" p-id="5556"></path><path d="M122.631087 284.575103l11.053744-11.759301z" fill="#DD8708" p-id="5557"></path><path d="M192.128561 861.13367l11.759302 11.759302zM203.887863 872.892972l11.759301 11.759302z" fill="#F9F0DF" p-id="5558"></path><path d="M133.802424 272.933395l11.759302-11.759302z" fill="#DD8708" p-id="5559"></path><path d="M216.470315 884.299495h11.759302a23.518604 23.518604 0 0 0 1.528709 9.407441l-1.293523 1.411116h-9.76022a48.448323 48.448323 0 0 1-2.234268-10.818557z" fill="#F9F0DF" p-id="5560"></path><path d="M144.973761 260.938907l11.759301-11.759302z" fill="#DD8708" p-id="5561"></path><path d="M803.729847 872.540193h11.759302l-35.277906 36.924208-11.759301 9.76022-14.934314 10.818558a10.818558 10.818558 0 0 0-8.58429 3.52779l-12.935232 9.054663-10.818558 4.233348-11.759301 7.878732-11.759302 3.527791-12.935232 7.878732a15.404685 15.404685 0 0 0-11.053744 2.70464 66.675241 66.675241 0 0 0-10.583372-1.881489 405.931098 405.931098 0 0 1-51.505741 6.585209c-22.22508 0-44.567754-3.057418-66.792835-4.70372l11.759302-10.818558a23.518604 23.518604 0 0 0 10.818558-4.115756l12.582453-8.466697a26.10565 26.10565 0 0 0 10.583371-3.410197l12.347267-10.230593 11.759302-12.817639h-0.823151 11.759302l1.058337 0.823151c11.759302 1.646302 24.92972 7.40836 35.277905 3.998163 48.918695-15.287092 95.250345-33.749196 141.81718-51.270556z" fill="#FDEEBE" p-id="5562"></path><path d="M345.705042 969.084061a13.758383 13.758383 0 0 0-10.818558-2.822233l-13.170418-7.761139-11.759301-3.527791-12.46486-7.878732-11.171337-4.233348h0.587965l-12.46486-8.93707a11.759302 11.759302 0 0 0-8.58429-3.645383c-1.293523-3.410198-2.35186-6.937988-3.410198-10.348186 118.533762 21.989894 236.009187 12.817639 352.779054-11.759302 0 3.88057-0.587965 7.761139-0.587965 11.759302h0.823151l-11.759302 1.999081-11.759301 8.701884-11.759302 3.645383-11.994488 6.467616a18.462104 18.462104 0 0 0-10.818558 3.410198l-47.037207 11.759302-71.731741 0.940744-31.867708-4.350942-37.276986 1.646302-13.64079 13.288011a29.633441 29.633441 0 0 0-10.113 1.646303z" fill="#FDF4D9" p-id="5563"></path><path d="M545.49558 969.084061c22.22508 1.646302 44.567754 4.821314 66.792834 4.70372a405.931098 405.931098 0 0 0 51.505742-6.585209c-1.293523 3.410198-2.704639 6.820395-4.233349 10.113a9.642627 9.642627 0 0 0-8.58429 2.116674l-11.759302 1.999082-15.875058 7.173174-19.755627 3.175011a15.169499 15.169499 0 0 0-11.759301 1.058337l-37.629766 8.231512H464.944362l-37.512172-8.113919-11.759302-1.17593 1.411116-3.410197 12.582453-10.936151 95.015158-8.701883z" fill="#FCE9B2" p-id="5564"></path><path d="M355.818042 967.672944l13.64079-13.288011 24.812127 9.172256c3.292605 1.646302 6.585209 3.057418 9.877813 4.468534l-14.228755 11.759302a64.088195 64.088195 0 0 0-9.407442 2.116675 15.875057 15.875057 0 0 0-11.759301-1.999082 14.111162 14.111162 0 0 0-9.642628-2.35186 60.207625 60.207625 0 0 1-3.292604-9.877814z" fill="#F9E0A8" p-id="5565"></path><path d="M389.920017 979.902618l14.228755-11.759302h21.989894a44.450161 44.450161 0 0 0 3.527791 9.289849l-12.582453 11.053744h-21.754708a50.800184 50.800184 0 0 0-5.409279-8.584291z" fill="#F9DFA3" p-id="5566"></path><path d="M427.667376 993.073036l37.512172 8.113919-37.512172 0.823151zM554.785428 1001.069362l37.629766-8.231512v9.172256z" fill="#DD890E" p-id="5567"></path><path d="M239.63614 909.934773l-11.053744-14.581535 1.17593-1.646302 33.278825 13.993569-14.463942 1.17593a57.385393 57.385393 0 0 0-8.937069 1.058338z" fill="#F9F0DF" p-id="5568"></path><path d="M239.63614 909.934773a57.385393 57.385393 0 0 1 8.937069-0.823152c1.17593 3.292605 2.234267 6.702802 3.292605 10.113l-1.528709 1.763895z" fill="#DE8C16" p-id="5569"></path><path d="M768.334349 919.459807l11.759301-9.76022z" fill="#DE8C15" p-id="5570"></path><path d="M263.037151 919.812586c1.058337 3.410198 2.116674 6.937988 3.410197 10.348186l-16.110243-9.172256 1.528709-1.763895h11.171337z" fill="#DE8C16" p-id="5571"></path><path d="M753.635221 930.160772l14.934314-10.818558z" fill="#DE8C15" p-id="5572"></path><path d="M275.031638 933.806155l12.46486 8.93707z" fill="#DE8C16" p-id="5573"></path><path d="M732.115699 942.743225l12.935232-9.054663z" fill="#DE8C15" p-id="5574"></path><path d="M286.908533 942.625632l11.171337 4.233348v8.113918z" fill="#DC8407" p-id="5575"></path><path d="M297.962277 954.972898v-8.113918l12.46486 7.878732z" fill="#DE8C16" p-id="5576"></path><path d="M709.53784 954.855305l11.759301-7.878732z" fill="#DE8C15" p-id="5577"></path><path d="M310.191951 954.972898l11.759302 3.527791v8.113918z" fill="#DC8407" p-id="5578"></path><path d="M321.716066 966.614607v-8.113918l13.170418 7.761139zM685.431271 966.379421l12.935232-7.878732v8.113918z" fill="#DD890E" p-id="5579"></path><path d="M698.366503 966.614607v-8.113918l11.759302-3.527791z" fill="#DC8407" p-id="5580"></path><path d="M355.818042 967.672944a60.207625 60.207625 0 0 0 3.762976 9.995407l-13.875976-8.58429a29.633441 29.633441 0 0 1 10.113-1.411117zM659.560807 977.315572c1.528709-3.292605 2.939825-6.702802 4.233349-10.113a66.675241 66.675241 0 0 1 10.583371 1.881489z" fill="#DD890E" p-id="5581"></path><path d="M369.223646 980.020211a15.875057 15.875057 0 0 1 11.759302 1.999082v8.231511z" fill="#DC8407" p-id="5582"></path><path d="M380.630168 990.250804v-8.231511a64.088195 64.088195 0 0 1 9.407442-2.116675 50.800184 50.800184 0 0 1 5.409279 9.172256zM623.694936 988.604502l15.875058-7.173174v8.819476z" fill="#DD890E" p-id="5583"></path><path d="M639.452401 990.250804v-8.819476l11.759302-1.999082zM427.667376 993.073036v8.93707l-11.759302-10.113zM592.415194 1002.010106v-9.172256a15.169499 15.169499 0 0 1 11.759302-1.058337z" fill="#DC8407" p-id="5584"></path><path d="M334.886484 143.933854a20.225999 20.225999 0 0 0 11.053744-2.35186l13.993569-8.819477 21.049151 0.823151c0 15.99265-5.291686 35.277905 1.999081 47.037208a141.111621 141.111621 0 0 0 127.118052 68.791915 141.111621 141.111621 0 0 0 127.118053-69.027102c7.290767-11.759302 1.646302-31.279743 1.881488-47.037207h21.401929l23.518604 9.525035 14.81672 1.058337a66.322462 66.322462 0 0 1-0.705558 17.52136c-23.518604 72.08452-73.378043 118.298576-146.991273 131.468994-79.610473 14.228755-150.519063-4.115756-199.90813-76.553055a568.09187 568.09187 0 0 0-40.92237-48.448323c0-2.939825 0-5.997244 0.705558-9.054663l11.759302-5.762058z" fill="#FEE281" p-id="5585"></path><path d="M639.099622 133.350482c0 15.99265 5.409279 35.277905-1.881488 47.037207a141.111621 141.111621 0 0 1-127.118053 69.027102A141.111621 141.111621 0 0 1 382.62925 180.858062c-7.290767-11.759302-1.763895-31.279743-1.999082-47.037208l-0.235186-4.468534 15.522279-8.466698L429.666457 117.593018l-2.35186 4.115756c-20.225999 48.213137 17.756546 55.856684 48.095544 68.674322 23.518604 29.868627 59.854846 29.163068 80.433624 8.937069s74.43638-25.870464 48.801103-76.670647l20.225999-1.646303 15.404685 8.113919z" fill="#FEE386" p-id="5586"></path><path d="M275.031638 155.105191a28.104731 28.104731 0 0 1 10.818558 3.645383c0 2.939825 0 5.997244 0.587965 8.93707 3.057418 61.265962 42.803859 104.305007 87.489205 132.409738 38.452917 24.106569 91.134589 25.635278 137.231052 38.217731 4.586128 1.293523 7.055581 10.230593 10.583372 15.522278l-22.930639 1.646302-11.759301 10.113-22.57786 15.051906c-34.572347-19.520441-69.379881-38.805696-103.834635-58.796509-55.974277-32.455673-103.481856-71.731741-109.008727-142.875517z" fill="#FEE179" p-id="5587"></path><path d="M604.056903 122.884704C629.574587 173.684887 575.364206 179.917317 555.2558 199.90813s-56.444649 20.931557-80.433624-8.937069c29.280661-19.638034 77.964171-0.587965 94.074414-47.037207v-23.518604l22.695453-2.822232z" fill="#FEE48A" p-id="5588"></path><path d="M769.039907 49.741847c4.938907 9.054662 15.404685 17.991732 13.405604 25.047312-6.702802 31.16215-16.933395 61.618741-25.870464 92.310519h-11.759302l-47.037207-23.518603-0.117593-14.228755v-9.760221l11.759302-11.759302 11.759301-11.759301 11.053744-11.759302 10.700965-10.700965 14.111162-11.759302 10.700964-11.759301z" fill="#FEDA5B" p-id="5589"></path><path d="M275.031638 155.105191l-23.518603 23.518603-23.518604 23.518604-11.759302 0.587965v-0.470372L181.427596 94.074414l11.759302 2.939826 13.052825 10.465778a31.279743 31.279743 0 0 1 9.76022 1.881489l12.582453 10.348185z" fill="#FCD757" p-id="5590"></path><path d="M568.89659 119.709692v23.518604c-8.819476 3.057418-17.756546 5.526872-26.223243 9.054662-36.101056 14.934313-68.439136 3.292605-91.487368-32.926045L464.944362 109.243914h89.60588z m-31.397336 15.757465l-0.587965-9.877814H482.583315l0.940744 9.877814z" fill="#FEE58E" p-id="5591"></path><path d="M568.89659 119.709692l-13.993569-10.583371 36.689022 8.58429zM464.944362 109.243914l-14.111162 10.465778-24.459348 2.234268L429.666457 117.593018zM683.549783 142.405145l-23.518604-9.525035 25.164906-1.999081v0.823151a109.596693 109.596693 0 0 1-1.646302 10.700965z" fill="#DC870A" p-id="5592"></path><path d="M286.438161 167.687644c0-2.939825 0-5.997244-0.587965-8.93707h25.164906c0 3.057418-0.587965 6.114837-0.705558 9.054663z" fill="#FCD757" p-id="5593"></path><path d="M768.804721 49.85944l-10.700965 11.759301z" fill="#FDD752" p-id="5594"></path><path d="M743.992594 73.378043l-10.700965 10.700965zM732.703664 84.666973l-11.053744 11.759302zM721.297141 96.426275l-11.759301 11.759301zM334.886484 143.933854l-12.347266 8.937069zM359.933797 132.762517l-13.993569 8.349104zM697.778538 120.062471v9.760221a62.441893 62.441893 0 0 1-11.759302 1.881488v-0.823151zM639.687587 129.35232l-15.404685-8.113919zM395.917261 121.238401l-15.522279 8.113919zM709.655433 108.303169l-11.759302 11.759302z" fill="#DC870A" p-id="5595"></path><path d="M228.817582 119.709692l-12.582453-10.348185z" fill="#FED747" p-id="5596"></path><path d="M263.154744 907.935691L229.758326 893.706936a23.518604 23.518604 0 0 1-1.646302-9.407441h47.037207l25.164906-1.411116h-1.17593c10.113 18.462104 21.754708 17.286174 34.572347 2.939825h11.759302l34.68994 0.705558h23.518604c48.448323-7.290767 102.776298 10.583372 142.757924-33.278824a27.046394 27.046394 0 0 1 10.583371-1.763895c0 23.518604 12.817639 12.817639 23.518604 9.172255l18.462104 6.114837c6.23243-33.51401 37.512173-39.276068 60.442811-43.039045 30.221406-4.938907 40.92237-22.107487 50.447405-45.390904a148.637575 148.637575 0 0 0 32.455673-81.609555c1.293523-18.109325-5.526872-44.450161-18.462104-53.975195-25.400092-18.814883-57.502986-28.339917-86.90124-41.745521a63.265044 63.265044 0 0 0 2.35186-9.289849l11.759302-3.410197 36.218649-9.407442h22.460267l11.759301 1.646302a136.76068 136.76068 0 0 0 23.518604 25.870464c89.253101 59.61966 86.313275 163.807074-9.760221 225.543409C620.402332 905.466238 491.990756 917.22554 361.109727 918.166284a892.413413 892.413413 0 0 1-97.954983-10.230593z" fill="#FEFAED" p-id="5597"></path><path d="M650.976517 588.553055l-11.759302 3.410197L570.778078 587.96509l69.850253-15.757465-25.047313-16.933394c-36.571429-41.745521-19.755627-79.140101 9.289849-115.593937l4.233348-2.469453 11.759302-10.113 24.694534-2.587046h33.161231v4.938906l13.875976 7.055581a57.032614 57.032614 0 0 0 9.995407-1.528709 11.053744 11.053744 0 0 0 8.937069 3.410198l13.052825 11.053743 11.759302 13.052825h-0.940744a16.345429 16.345429 0 0 0 3.175011 10.348186l1.763895 58.796509-3.762976 11.171337-11.759302 12.582453-12.935232 11.759301c-7.643546 3.998163-15.169499 8.113918-22.695452 11.759302h-22.460267z m35.277905-141.111622l-23.518604-1.763895-6.820395 23.518603 32.690859 2.234268z" fill="#893302" p-id="5598"></path><path d="M263.154744 907.935691a892.413413 892.413413 0 0 0 97.954983 10.230593C491.990756 917.22554 620.402332 905.466238 735.408304 831.735416c96.073496-61.736334 99.013321-165.923748 9.76022-225.543409a136.76068 136.76068 0 0 1-23.518604-25.870464l35.277906-1.411116 36.571428 36.571429c54.210381 53.975195 64.323381 122.414332 19.285255 171.685806-24.224162 26.576022-52.681672 49.271475-79.257694 73.730822l-105.833716 45.861277v1.528709a94.074414 94.074414 0 0 0-11.759302 0c-117.593018 24.576941-234.480478 33.749196-352.779053 11.759302v-11.759302z" fill="#FEF7DF" p-id="5599"></path><path d="M733.526815 860.898484c26.576022-24.459348 55.033532-47.037207 79.257694-73.730822 45.038126-49.271475 35.277905-117.593018-19.285255-171.685806-11.759302-11.759302-24.459348-24.341755-36.571428-36.571429 49.036288 7.173174 65.146532 51.976114 94.074414 82.315113l11.759302 23.518603a294.923289 294.923289 0 0 0-10.700965 53.269637c-1.17593 69.967846-58.796509 94.074414-102.89389 128.764355-1.999081 1.646302-10.348186-3.762977-15.639872-5.879651z" fill="#FEF5D6" p-id="5600"></path><path d="M792.205731 567.503904c13.405604-28.810289 64.67616-67.498392 94.074414-70.55581-14.81672 38.923289-47.037207 57.032614-83.138263 71.966927a49.506661 49.506661 0 0 1-10.936151-1.411117z" fill="#FEDB5C" p-id="5601"></path><path d="M853.001321 656.404226l3.645384-0.940744c0 1.17593 0 2.822232-1.058337 3.52779a13.993569 13.993569 0 0 1-4.468535 1.999082zM867.465263 686.508039l0.940744 3.52779c-1.293523 0-2.822232 0-3.527791-0.940744a13.523197 13.523197 0 0 1-1.999081-4.586128z" fill="#FEF5D6" p-id="5602"></path><path d="M732.350885 566.445567l12.935232-11.759301v11.759301z" fill="#FDDA5D" p-id="5603"></path><path d="M627.693099 906.759761l0.940744 13.758383-1.058337-0.823151v-11.759302z" fill="#FDEEBE" p-id="5604"></path><path d="M286.438161 167.687644h23.518604a568.09187 568.09187 0 0 1 40.92237 48.448323c48.918695 72.437299 119.827285 90.78181 199.90813 76.553055 73.613229-13.170418 123.355076-59.384474 146.991273-131.468994a66.322462 66.322462 0 0 0 0.705558-17.52136l47.037207 23.518603c0.705558 8.937069 5.644465 20.931557 1.646302 26.340836-28.810289 38.805696-57.973358 77.611392-90.42903 113.35967-9.995407 11.053744-31.044557 11.759302-46.096463 18.69729-18.226918 8.701883-35.277905 19.402848-53.269638 29.280661l-35.277905-0.940744c-3.527791-5.291686-5.997244-14.228755-10.583372-15.522278-46.096463-12.582453-98.778135-14.111162-137.231052-38.217731-45.038126-28.222324-84.784566-71.261369-87.841984-132.527331z" fill="#FEE27D" p-id="5605"></path><path d="M521.74179 353.837391l35.277905 0.940744a35.277905 35.277905 0 0 0 11.171337 0.705558l23.518604 9.995407 70.55581 25.164906 35.277906 24.459347c0 3.292605 0 6.585209 0.587965 9.760221H664.852493c-45.743684-15.99265-89.488287-8.819476-132.292145 10.583371a13.993569 13.993569 0 0 0-10.818558 3.527791l-12.347267 7.878732-12.817639 9.760221-26.811208 27.751952a7.878732 7.878732 0 0 0-5.174093-3.175012 16.815802 16.815802 0 0 0-3.175011-8.113918l-9.407442-69.615067 11.759302-22.813045 22.57786-15.051906 11.759301-10.113z" fill="#F8F1E0" p-id="5606"></path><path d="M591.944822 365.4791l-23.518604-9.995407z" fill="#FEE27D" p-id="5607"></path><path d="M944.841468 531.638034l-1.17593 83.491043-33.866789-13.523197c-24.224162-41.275149 14.463941-51.152963 35.042719-69.967846zM886.280145 590.434543a31.044557 31.044557 0 0 1-11.759301-1.411116z" fill="#FCD653" p-id="5608"></path><path d="M759.985244 531.990813l-1.763895-58.796509 11.759302 23.518604v23.518603l-1.646302 11.759302z" fill="#F3CC57" p-id="5609"></path><path d="M770.686209 519.761139v-23.518603h21.872301z" fill="#FEDC62" p-id="5610"></path><path d="M759.985244 531.990813h8.701884l-12.46486 11.171337zM745.40371 555.274231l11.759302-12.582453z" fill="#FDDA5D" p-id="5611"></path><path d="M792.323324 284.692696c-1.528709 14.346348 7.290767 38.688103-23.518603 23.518604zM815.841928 249.414791l-11.759302 35.277905zM768.804721 308.2113l-11.759302 11.759302z" fill="#FEDF72" p-id="5612"></path><path d="M721.767513 435.094166a57.032614 57.032614 0 0 1-9.995406 1.52871c-1.528709-3.292605-2.939825-6.467616-4.233349-9.760221l14.111162-1.293523c0 3.410198 0.117593 6.585209 0.117593 9.525034z" fill="#FDDD6A" p-id="5613"></path><path d="M707.538758 427.097841c1.293523 3.292605 2.704639 6.467616 4.233349 9.760221l-13.875976-7.055582a55.974277 55.974277 0 0 1 9.642627-2.704639z" fill="#944619" p-id="5614"></path><path d="M792.323324 496.360129H770.686209l-11.759302-23.518604a16.345429 16.345429 0 0 1-3.175011-10.348186c26.576022-21.166743 52.681672-43.039045 79.963252-63.265043 16.110243-11.759302 34.101975-21.637115 51.388149-32.33808-27.516766 33.161231-55.621497 65.85209-82.315113 99.601286a109.361507 109.361507 0 0 0-12.46486 29.868627zM755.987082 462.846119l-11.759302-13.052825z" fill="#FEDC65" p-id="5615"></path><path d="M123.219052 766.82407a11.759302 11.759302 0 0 1-5.291686-9.525035l7.525954-9.877813-14.111163-4.115756a6.585209 6.585209 0 0 1-2.939825-7.643546 87.254019 87.254019 0 0 0 4.821314-22.577859c-3.175011-40.804777 21.519522-51.03537 55.386311-51.858521l14.346348 10.700964a15.875057 15.875057 0 0 1 9.877814 3.762977l9.995406 9.054662 0.940745 0.705558 13.170418 10.465779 56.562241 23.518604c7.055581 40.804777 40.451998 56.09187 71.496555 73.613229l2.35186 36.806614-9.172255 9.054663-27.28158 8.466697-36.336243-0.705558-13.052825-8.231511 0.823151 0.705558-21.519522-14.934313-16.345429-9.289849-9.172256 10.700965c-11.759302-7.996325-24.224162-16.227836-36.571428-23.518604z" fill="#FDF9EF" p-id="5616"></path><path d="M325.36145 674.513551l-144.521819-71.614148 67.263206-2.351861 26.693615-9.172255 23.518604-11.759302c5.291686 6.467616 9.289848 16.463023 16.110243 18.932476a597.490124 597.490124 0 0 0 214.607258 35.277906c8.937069 0 17.991732 8.231511 27.046394 12.582452l1.058337 4.703721-10.465778 9.642628-1.411116 1.17593-11.759302 10.348185-82.315113 45.390905c-13.288011-11.759302-24.812127-30.926964-40.216812-35.277905-26.576022-6.820395-56.562242-5.526872-85.607717-7.878732z" fill="#FEDB5A" p-id="5617"></path><path d="M325.36145 674.513551c29.045475 2.35186 58.796509 1.058337 86.783647 8.58429 15.404685 4.233349 26.928801 22.930638 40.216812 35.277905-8.231511 39.981626-40.334405 56.915021-71.614148 74.906753a30.809371 30.809371 0 0 0-9.172255-1.646302h-17.403767a37.864952 37.864952 0 0 0-8.819476 1.763895c-31.044557-17.52136-64.440974-32.808452-71.496555-73.613229l15.404686-23.518604a26.340836 26.340836 0 0 0 6.820395 0l15.051906 10.230593 7.173174-22.107488z" fill="#8E3604" p-id="5618"></path><path d="M248.102837 600.547542l-67.263206 2.351861-34.454754-13.993569 11.759302-11.053744 35.277905 4.468535 22.930638-3.645384 35.277906 11.759302c-0.587965 3.762977-2.116674 6.937988-3.527791 10.112999z" fill="#8A3605" p-id="5619"></path><path d="M95.349507 543.985301L88.646705 496.00735h8.937069l5.526872 0.587965h5.526872l1.058337 47.037207z" fill="#9F5728" p-id="5620"></path><path d="M158.496958 577.85209l-11.759302 11.053744-35.277906-22.930639 0.940745-3.762976 6.702802-1.52871-2.116675-3.645383 2.351861-1.999081h3.057418z" fill="#A7632C" p-id="5621"></path><path d="M100.406007 451.909968L123.101459 435.094166l-1.763895 4.938907a61.736334 61.736334 0 0 1 1.411116 11.759302l-13.875976 20.578778a48.095544 48.095544 0 0 0-9.995406 1.763895z" fill="#F3EAE5" p-id="5622"></path><path d="M95.349507 543.985301h14.581534l11.759302 11.759302h-3.057418l-2.351861 1.999081a7.761139 7.761139 0 0 0-4.586128 5.174093l-0.940744 3.762976z" fill="#873100" p-id="5623"></path><path d="M296.080789 696.503445a26.340836 26.340836 0 0 1-6.820395 0l24.224161-12.817639-3.762976 11.759302z" fill="#A74C11" p-id="5624"></path><path d="M309.721579 696.033073l3.762976-11.759302h4.821314l-7.173174 22.107488c-0.587965-3.175011-1.058337-6.820395-1.411116-10.348186z" fill="#D5AC94" p-id="5625"></path><path d="M98.877298 474.135048a48.095544 48.095544 0 0 1 9.995406-1.763895l15.051906 1.293523-11.759301 11.759302a90.546624 90.546624 0 0 0-11.759302 0h-4.233349a29.515847 29.515847 0 0 0 2.70464-11.28893z" fill="#8C3A0A" p-id="5626"></path><path d="M183.309084 672.044097l-14.346348-10.700964zM203.182304 684.861736l-9.995406-9.054662zM217.293467 696.033073l-13.170418-10.465779z" fill="#FEFAEE" p-id="5627"></path><path d="M97.81896 495.654571h-8.937069l8.349104-10.348186h4.233349a23.518604 23.518604 0 0 0-3.645384 10.348186z" fill="#DD8708" p-id="5628"></path><path d="M452.00913 403.461644l9.407442 69.615067-113.477263-11.759302 9.054663-58.796509-10.230593-11.759301-13.523197-13.640791-11.053743-10.112999-35.277906-11.759302-94.074414-129.35232 23.518603-23.518603v0.587965l11.759302 23.518604 23.518604 35.277905-4.703721 8.819476 16.463023 2.939826 11.759301 11.759301 23.518604 23.518604v11.759302l35.277905 23.518603 35.277906 23.518604 23.518603 11.759302z" fill="#FEE073" p-id="5629"></path><path d="M192.716526 226.248966l94.074414 129.35232-23.518603 11.759302-23.518604 10.700965c-1.411116-11.759302 0.587965-25.635278-4.938907-35.277906-16.463023-27.987138-35.86587-54.327974-54.092788-81.256775l-1.17593-21.284336z" fill="#FEDF6F" p-id="5630"></path><path d="M239.518547 377.003215l23.518604-10.700964h58.796509l11.053743 10.112999L347.351344 390.879192l10.230593 11.759301-9.054662 58.796509-23.518604 22.930639c-19.990813-14.346348-38.452917-36.806615-60.442811-41.157556-37.159394-7.40836-76.670648-3.292605-115.123565-3.998163l-15.169499-1.17593-0.823151-0.940744a33.161231 33.161231 0 0 1 0-11.759302l14.463941-10.936151a16.580616 16.580616 0 0 0 9.172255-1.646302l14.346349-10.113a15.99265 15.99265 0 0 0 9.054662-1.293523l35.277905-13.875976z" fill="#FCF8E8" p-id="5631"></path><path d="M215.999943 388.056959l-35.277905 13.875976c-5.879651-18.462104-13.052825-36.571429-17.050988-55.386311a72.202113 72.202113 0 0 1 5.291686-26.576022c24.576941 16.580616 49.977033 32.808452 47.037207 68.086357zM156.145097 295.040882l12.935232 24.92972-23.518603-11.759302 11.759301-12.817639zM148.266365 414.98576l-14.463941 10.936151zM171.784969 403.226458l-14.346349 10.113zM133.802424 425.804318a33.161231 33.161231 0 0 0 0 11.759302l-11.759302 3.175011 1.058337-5.644465z" fill="#FEDD69" p-id="5632"></path><path d="M354.171739 791.871383h17.403767l7.761139 25.988057a7.761139 7.761139 0 0 0 5.526872 8.701883l7.055581 6.937988 11.759302 6.585209a141.111621 141.111621 0 0 0 120.062471 0.940744l10.583372-5.0565h10.700965l2.35186 17.168581c-39.981626 43.862196-94.074414 25.988057-142.757924 33.278824h-23.518603l-34.689941-0.705558h-11.759302l-34.572347-2.939826h1.17593l-25.400091-8.231511a11.759302 11.759302 0 0 0-10.348186-2.587046l-12.700046-7.761139a11.759302 11.759302 0 0 0-9.877814-4.350942 103.952228 103.952228 0 0 1-2.939825-10.348186l11.759302-10.583371h11.759302l-0.823152-0.705558 13.052825 7.996325 35.865871 0.940744 27.28158-8.466697 9.054662-9.172256z" fill="#8D3B0C" p-id="5633"></path><path d="M215.294385 825.620579l9.172256-10.700965a20.813964 20.813964 0 0 1 3.410197 10.113l-1.411116 13.875976a59.502067 59.502067 0 0 1-9.995407-2.587047 66.204869 66.204869 0 0 0-1.17593-10.700964z" fill="#AE734E" p-id="5634"></path><path d="M274.678859 874.77446l25.400092 8.231512-25.400092 1.528709c0.117593-3.292605 0.117593-6.467616 0-9.760221zM216.470315 836.321543a59.502067 59.502067 0 0 0 9.995407 2.587047 43.039045 43.039045 0 0 1 2.116674 9.525034l-1.881488 2.116675z" fill="#F9F0DF" p-id="5635"></path><path d="M238.812989 849.727147a103.952228 103.952228 0 0 0 2.939825 10.348186l-15.051906-9.525034 1.881488-2.116675a66.440055 66.440055 0 0 0 10.700965 1.293523zM251.630628 864.426275l12.700046 7.761139z" fill="#F9F0DF" p-id="5636"></path><path d="M111.342157 743.305466l14.111163 4.115756-7.525954 9.877813a29.163068 29.163068 0 0 1-7.761139-2.116674z" fill="#FEFAEE" p-id="5637"></path><path d="M156.733062 295.393661l-11.759301 12.817639v-11.759302a69.144695 69.144695 0 0 1 11.759301-1.058337z" fill="#FEDD69" p-id="5638"></path><path d="M545.49558 969.084061h-20.813965l-14.228755-12.46486 47.037207-11.759302v13.993569z" fill="#DD9428" p-id="5639"></path><path d="M592.180008 929.807993l11.759301-8.584291v10.818558l-12.347266 10.230593z" fill="#E4A74A" p-id="5640"></path><path d="M568.191032 940.744143l12.700046-7.40836v11.759302l-12.582453 8.466697c0.235186-3.88057 0-8.231511-0.117593-12.817639z" fill="#DC9225" p-id="5641"></path><path d="M627.575506 908.28847v11.759302h-11.759302c0-3.998163 0-7.878732 0.587965-11.759302a94.074414 94.074414 0 0 1 11.171337 0z" fill="#E7B35F" p-id="5642"></path><path d="M604.174496 932.04226v-10.818558l11.759301-1.999081c-3.645384 4.350942-7.643546 8.58429-11.759301 12.817639z" fill="#DC9023" p-id="5643"></path><path d="M568.191032 940.744143v13.170418a23.518604 23.518604 0 0 1-10.818558 4.115756v-13.875976a18.462104 18.462104 0 0 1 10.818558-3.410198zM581.243857 945.68305v-11.759302l11.759302-3.645383v11.759302a26.10565 26.10565 0 0 1-11.759302 3.645383z" fill="#D6820A" p-id="5644"></path><path d="M510.45286 956.266422l14.228755 12.46486-95.015158 8.701883a44.450161 44.450161 0 0 1-3.527791-9.289849l12.582453-10.93615z" fill="#E19E38" p-id="5645"></path><path d="M394.388552 963.557189l-24.812127-9.172256 37.159393-1.881488z" fill="#E3A546" p-id="5646"></path><path d="M394.388552 963.557189l12.347266-11.053744 31.985301 4.468535-12.582453 10.93615h-21.989894c-3.292605-1.293523-6.585209-2.704639-9.76022-4.350941z" fill="#D98A17" p-id="5647"></path><path d="M263.037151 907.935691v11.759302h-11.171337c-1.058337-3.410198-2.116674-6.820395-3.292605-10.112999z" fill="#FDF4D9" p-id="5648"></path><path d="M686.254422 131.70418a62.441893 62.441893 0 0 0 11.759302-1.881488l0.705558 13.64079-14.81672-1.058337a109.596693 109.596693 0 0 0 2.35186-10.700965z" fill="#FEE27D" p-id="5649"></path><path d="M426.726631 121.94396l24.459348-2.234268c23.518604 36.21865 55.386311 47.860358 91.487368 32.926045 8.466697-3.527791 17.403767-5.997244 26.223243-9.054662-16.110243 46.449242-64.793753 27.399173-94.074414 47.037207-30.338999-12.817639-68.674322-20.461185-48.095545-68.674322z" fill="#FEE58C" p-id="5650"></path><path d="M298.432649 319.970602v-11.759302l-23.518604-23.518604-11.759301-11.759301-11.759302-11.759302-23.518604-35.277906v-23.518603l23.518604-23.518604c5.526872 70.555811 53.034451 110.419844 109.008727 142.875517 34.454754 19.990813 69.262288 39.276068 103.834635 58.796509l-11.759302 22.813045-59.502067-24.694533-23.518603-11.759302-35.277906-23.518604z" fill="#FEE076" p-id="5651"></path><path d="M498.811151 355.483693l-11.759301 10.113z" fill="#FEE27D" p-id="5652"></path><path d="M227.759245 202.259991v23.518603l-11.759302-23.518603z" fill="#FEE074" p-id="5653"></path><path d="M537.499254 135.467157h-53.975195l-0.940744-9.877814h54.327974z" fill="#FEE690" p-id="5654"></path><path d="M581.596636 858.429031c-11.759302 5.879651-24.694534 16.815802-24.224162-6.937988l2.234268-1.881489 10.583371-10.700964 9.877814-15.1695a39.864033 39.864033 0 0 0-1.763895-10.465778l1.763895-11.759302 1.17593-11.759302-11.759302-10.465778c4.115756-3.410198 11.759302-10.348186 11.759302-9.760221 39.158475 33.631603 50.564998-22.813045 78.669729-23.518603-13.170418-14.699127 26.928801-38.805696-8.58429-49.624254l-24.576941-58.796509-22.460266 11.759302-24.576941-12.935232 57.502986-35.277905c29.398254 13.405604 61.501148 22.930638 86.90124 41.745521 12.935232 9.525034 19.755627 35.277905 18.462104 53.975195a131.233808 131.233808 0 0 1-35.277906 80.66881l2.351861 0.940745a17.403767 17.403767 0 0 0-2.116675-4.468535c-0.705558-0.823151-2.234267-0.705558-3.410197-1.058337a7.173174 7.173174 0 0 0 3.175011 4.586127c-7.173174 24.224162-17.874139 41.392742-48.095544 46.33165-22.930638 3.762977-54.210381 9.525034-60.442811 43.039044a50.094626 50.094626 0 0 1-17.168581-8.466697 16.580616 16.580616 0 0 0-0.940744 2.234267 13.993569 13.993569 0 0 0 4.468535-1.999081c0.823151-0.705558 0.705558-2.35186 1.058337-3.527791a7.173174 7.173174 0 0 0-4.586128 3.292605z" fill="#FEFBF0" p-id="5655"></path><path d="M637.100541 601.253101l-57.502986 35.277905-14.463941 11.759302a63.029858 63.029858 0 0 1-9.289849-1.293523c-9.054662-4.350942-18.109325-12.700046-27.046394-12.582453a597.490124 597.490124 0 0 1-214.607258-35.277906c-6.820395-2.469453-10.818558-12.46486-16.110243-18.932476l32.33808-37.276986c13.993569 6.937988 27.634359 18.932476 41.980707 19.638034 41.627928 2.35186 82.315113 47.037207 125.118971 4.938906h11.759302l33.51401 13.640791L570.778078 587.96509l69.144695 3.762976a63.265044 63.265044 0 0 1-2.822232 9.525035z" fill="#FDDB5F" p-id="5656"></path><path d="M345.705042 885.945797l34.68994 0.705558z" fill="#FEFAEE" p-id="5657"></path><path d="M650.976517 588.553055l36.218649-9.407442z" fill="#A25C2D" p-id="5658"></path><path d="M298.903021 882.653192l34.572347 2.939826c-12.817639 14.346348-24.459348 15.522278-34.572347-2.939826z" fill="#FEFAEE" p-id="5659"></path><path d="M547.259475 853.490124l-2.351861-17.168581 17.286174 2.70464c0 3.527791-1.293523 6.937988-1.999081 10.348185l-2.234268 1.881489a27.046394 27.046394 0 0 0-10.700964 2.234267z" fill="#873100" p-id="5660"></path><path d="M392.624656 886.651355z" fill="#FDF4D9" p-id="5661"></path><path d="M624.400495 439.91548c-29.045475 36.453836-45.861277 73.848415-9.289849 115.593937l-58.796509 13.288011-45.97887-14.816721-11.759302-10.465778-10.465778-11.759302-0.823151-47.037207 10.818557-13.523197 12.347267-10.113 12.582453-8.466697a20.343592 20.343592 0 0 0 10.700965-4.586128z" fill="#FAF7F5" p-id="5662"></path><path d="M624.400495 439.91548l-91.016996 8.231511v-12.817639c42.803859-19.402848 86.548461-26.576022 132.292145-10.583371l-24.694534 2.587046-11.759302 10.113z" fill="#95491C" p-id="5663"></path><path d="M556.43173 568.797428l58.796509-13.288011 25.047313 16.933394L570.778078 587.96509l-26.693615-7.643547z" fill="#A25C2D" p-id="5664"></path><path d="M686.372015 446.853468l2.704639 23.518604-32.690859-2.234268 6.820396-23.518603z" fill="#ECDFD8" p-id="5665"></path><path d="M686.372015 446.853468l-23.518604-1.763895zM628.633843 437.446027l11.759302-10.113z" fill="#944619" p-id="5666"></path><path d="M498.105593 567.268718c-43.039045 41.745521-83.491043-2.587046-125.118971-4.938906-14.346348-0.705558-27.987138-12.700046-41.980707-19.638034l-6.23243-58.796509 23.518604-22.930639 113.477262 11.759302a16.815802 16.815802 0 0 1 3.175011 8.113918l-0.940744 16.580616v20.343592l10.700965 25.400092 10.700964 12.817639 12.582453 10.348185z" fill="#FEDD66" p-id="5667"></path><path d="M497.752814 471.312816l-10.818557 13.523197h-10.700965a11.759302 11.759302 0 0 0-6.467616 0l26.811208-27.751952c0.470372 4.468535 0.823151 9.407441 1.17593 14.228755z" fill="#873100" p-id="5668"></path><path d="M522.682534 452.733119l-12.582453 8.466697-0.705558-14.346348 12.700046-7.996325z" fill="#964B1F" p-id="5669"></path><path d="M509.394523 446.853468l0.705558 14.346348-12.347267 10.113c0-4.821314-0.705558-9.76022-1.17593-14.699127z" fill="#873100" p-id="5670"></path><path d="M463.650839 497.771245l1.293523-16.580616a7.878732 7.878732 0 0 1 5.174093 3.175012 11.759302 11.759302 0 0 1 6.467616 0z" fill="#F9D76A" p-id="5671"></path><path d="M522.682534 452.733119v-13.875976a13.993569 13.993569 0 0 1 10.818558-3.527791v12.817639a20.343592 20.343592 0 0 1-10.818558 4.586128z" fill="#873100" p-id="5672"></path><path d="M354.171739 791.871383L347.351344 829.736334l-1.411116-36.101056a37.864952 37.864952 0 0 1 8.231511-1.763895zM262.331592 839.143776h-11.759301a10.700965 10.700965 0 0 0-9.289849-6.350023 13.052825 13.052825 0 0 0-1.881488-7.525953l0.940744-1.058337zM337.708717 838.90859l-27.28158 8.466697z" fill="#FEFAEE" p-id="5673"></path><path d="M227.876838 825.032614a20.813964 20.813964 0 0 0-3.410197-10.113l16.345429 9.289849-0.940744 1.058337zM274.561266 846.669729l-13.052825-8.231511z" fill="#FEFAEE" p-id="5674"></path><path d="M556.43173 646.761599a63.029858 63.029858 0 0 0 9.289849 1.293523l14.463941-11.759302c8.113918 4.350942 16.345429 8.701883 26.811208 13.993569l-2.234267-1.058337a13.523197 13.523197 0 0 0 1.999081 4.586128c0.705558 0.823151 2.234267 0.705558 3.52779 0.940744a7.290767 7.290767 0 0 0-4.233348-4.468535 88.782729 88.782729 0 0 1 20.225999-12.700046c8.231511 19.638034 16.345429 39.158475 23.518603 61.030776l1.058338-2.35186a16.463023 16.463023 0 0 0-4.586128 2.116674c-0.823151 0-0.705558 2.234267-0.940744 3.410198s2.35186 0 4.468534-3.175012c36.571429 8.466697-3.527791 32.573266 9.642628 47.037208-28.104731 1.17593-39.511254 57.620579-78.669729 23.518603-0.705558 0-7.761139 6.350023-11.759302 9.760221a21.401929 21.401929 0 0 0 1.17593 11.759301l-3.175011-1.293523-7.996325 18.109325a4.821314 4.821314 0 0 1-3.057419 6.585209l-9.995406 12.582453-12.46486 9.642627-10.583372 5.0565-119.827285-1.293523-11.759302-6.585209a11.759302 11.759302 0 0 0-7.055581-6.937988 7.761139 7.761139 0 0 1-5.526872-8.701883l1.411116-24.341755c31.279743-17.991732 63.382637-35.277905 71.614148-74.906753l82.315113-45.390904 11.759302-10.348186 1.411116-1.17593 10.465778-9.642628z" fill="#FEFBF2" p-id="5675"></path><path d="M324.773485 484.365641l6.23243 58.796509-32.33808 37.276986-23.518604 11.759302h-22.22508l-35.277905-11.759302-11.406523-11.406522c-28.45751-37.864952-17.52136-77.14102 3.52779-122.884704L135.683912 466.02113l-1.17593-14.463941-1.528709-4.703721 16.227836-8.113918c38.452917 0.705558 77.964171-3.410198 115.123565 3.998162 21.989894 4.821314 40.451998 27.634359 60.442811 41.627929z m-52.2113-7.996325c-11.759302-7.055581-19.167662-15.169499-26.10565-14.699128s-13.052825 9.525034-19.520441 14.816721c6.585209 5.879651 12.817639 15.639871 19.87322 16.345429s14.111162-8.466697 25.752871-16.463022z" fill="#893302" p-id="5676"></path><path d="M252.571372 591.022508h22.22508l-26.693615 9.172255c1.411116-2.822232 2.939825-5.997244 4.468535-9.172255z" fill="#EEC44F" p-id="5677"></path><path d="M557.490067 651.700505l-10.465778 9.642628zM545.613173 662.519063l-11.759302 10.348186zM380.747761 793.164906l-1.411116 24.341755-7.761139-25.988057a30.809371 30.809371 0 0 1 9.172255 1.646302z" fill="#FDFAF0" p-id="5678"></path><path d="M309.721579 696.033073c0 3.527791 0.823151 7.173174 1.411116 10.700965l-15.051906-10.230593z" fill="#BB7751" p-id="5679"></path><path d="M135.683912 466.02113l74.78916-19.87322c-21.04915 45.743684-31.985301 85.019752-3.527791 122.884704L194.480421 582.320625l-35.277905-4.468535-37.747359-22.577859-11.759302-11.759302-1.058337-47.037207a23.518604 23.518604 0 0 0 3.88057-10.583372c3.762977-3.998163 7.643546-7.878732 11.759301-11.759302z" fill="#F3EAE5" p-id="5680"></path><path d="M194.480421 582.320625l11.759302-13.288011 10.348185 9.642627z" fill="#EEC44F" p-id="5681"></path><path d="M112.753274 485.541571a23.518604 23.518604 0 0 1-3.88057 10.583372h-5.526872l-5.526872-0.587966a23.518604 23.518604 0 0 1 3.645384-10.465778 90.546624 90.546624 0 0 1 11.28893 0.470372zM111.45975 562.212219a7.761139 7.761139 0 0 1 4.586128-5.174093l2.116674 3.645383z" fill="#873100" p-id="5682"></path><path d="M135.683912 466.02113l-11.759302 7.643546-15.404685-1.293523 14.228755-20.696371h11.759302z" fill="#8C3A0B" p-id="5683"></path><path d="M134.507982 451.557189h-11.759302a61.736334 61.736334 0 0 0-1.411116-11.759302l11.759302-3.175011 0.823151 0.940744-0.940744 9.289848z" fill="#FDFAEC" p-id="5684"></path><path d="M321.951253 366.772623h-58.796509l23.518603-11.759302zM298.432649 319.970602l35.277905 23.518603zM274.914045 284.692696l23.518604 23.518604zM251.395442 261.174093l11.759302 11.759302-16.463023-2.469454zM368.98846 367.007809l23.518603 11.759302zM356.993972 403.108865l-10.230593-11.759301zM333.240182 377.120808l-11.053743-10.112999z" fill="#FEE074" p-id="5685"></path><path d="M132.979273 446.853468l1.058337-9.289848 15.169499 1.17593z" fill="#F3EAE5" p-id="5686"></path><path d="M403.325621 839.731741l120.41525 1.293523a141.111621 141.111621 0 0 1-120.41525-1.293523zM384.863517 826.208544a11.759302 11.759302 0 0 1 7.055581 6.937988zM533.736278 835.968764l12.46486-9.642627c0 3.527791-1.17593 6.937988-1.881489 10.465778h-5.409278z" fill="#FDFAF0" p-id="5687"></path><path d="M241.517628 832.793753a10.700965 10.700965 0 0 1 9.289849 6.350023l-11.759302 10.583371z" fill="#873100" p-id="5688"></path><path d="M241.517628 832.793753l-2.469453 16.933394a66.440055 66.440055 0 0 1-10.700965-1.293523 43.039045 43.039045 0 0 0-2.116674-9.525034l1.411116-13.875976h11.759302a13.052825 13.052825 0 0 1 2.116674 7.761139z" fill="#883100" p-id="5689"></path><path d="M555.843765 814.096463a4.821314 4.821314 0 0 0 3.057419-6.585209 35.277905 35.277905 0 0 0 10.112999-5.291686l2.469454 1.528709 6.820395 9.760221a39.864033 39.864033 0 0 1 1.763895 10.465779 45.861277 45.861277 0 0 1-9.642628 2.234267l-14.581534-1.058337a29.163068 29.163068 0 0 0 0-11.053744z" fill="#8D3A0B" p-id="5690"></path><path d="M705.304491 776.701883l-0.823151-3.645383c1.17593 0 2.704639 0 3.410197 1.058337a17.403767 17.403767 0 0 1 2.116675 4.468535z" fill="#FEFAED" p-id="5691"></path><path d="M570.778078 791.165825a21.401929 21.401929 0 0 1-1.17593-11.759302l11.759302 10.465778a84.196601 84.196601 0 0 1-10.583372 1.293524z" fill="#A5633C" p-id="5692"></path><path d="M570.778078 791.165825a84.196601 84.196601 0 0 0 10.818558-1.058338c0 3.998163-0.823151 7.996325-1.17593 11.759302a23.518604 23.518604 0 0 0-8.58429 1.528709l-2.469454-1.528709-1.763895-11.759302z" fill="#8A3504" p-id="5693"></path><path d="M571.483637 803.748277a23.518604 23.518604 0 0 1 8.58429-1.528709l-1.763895 11.759302z" fill="#873100" p-id="5694"></path><path d="M570.778078 826.208544a45.861277 45.861277 0 0 0 9.642628-2.234267L570.778078 839.143776l-0.940744-1.411116c-0.117593-3.762977 0.940744-7.643546 0.940744-11.524116zM559.606742 849.84474c0.705558-3.410198 1.411116-6.820395 1.881488-10.348185a12.700046 12.700046 0 0 0 7.761139-1.763895l0.940744 1.411116zM582.53738 856.312356l3.645384-0.940744c0 1.17593 0 2.822232-1.058337 3.527791a13.993569 13.993569 0 0 1-4.468535 1.999081z" fill="#FEFAED" p-id="5695"></path><path d="M556.43173 568.797428l-12.817639 11.759301-33.51401-13.64079v-12.935232z" fill="#893303" p-id="5696"></path><path d="M510.45286 553.980707v12.935232h-11.759302a29.398254 29.398254 0 0 1 0-9.054662l-1.293523-12.700046 2.116675-1.881488z" fill="#8F3D08" p-id="5697"></path><path d="M580.18552 636.531006l-14.463941 11.759302z" fill="#FEFBF0" p-id="5698"></path><path d="M569.249369 837.73266a12.700046 12.700046 0 0 1-7.761139 1.763895l-17.168581-2.70464c0.705558-3.527791 1.293523-6.937988 1.881489-10.465778a58.796509 58.796509 0 0 0 9.995406-1.528709l14.581534 1.058337c0 4.233349-1.058337 8.113918-1.528709 11.876895z" fill="#893302" p-id="5699"></path><path d="M463.650839 497.771245L476.703664 484.365641h10.700965c0 15.522278 0 31.044557 0.823151 47.037207h-12.46486l-11.759302-13.523197z" fill="#873100" p-id="5700"></path><path d="M475.292548 531.638034h12.46486c3.410198 4.115756 6.937988 8.113918 10.465778 11.759302l-2.116674 1.881488-12.582453-0.940744a28.575103 28.575103 0 0 1-8.937069 0z" fill="#8D3A06" p-id="5701"></path><path d="M475.292548 531.638034l-0.940744 11.759302-10.700965-25.400092z" fill="#F9D76A" p-id="5702"></path><path d="M474.58699 543.985301a28.575103 28.575103 0 0 0 8.937069 0 95.720717 95.720717 0 0 0 2.587047 11.759302l-0.823152 1.17593z" fill="#FDDB5F" p-id="5703"></path><path d="M497.400035 558.096463a29.398254 29.398254 0 0 0 0 9.054662l-12.582453-10.348185 0.823151-1.17593z" fill="#FDDB5F" p-id="5704"></path><path d="M608.760623 651.230133l0.940744 3.527791c-1.293523 0-2.822232 0-3.52779-0.940744a13.523197 13.523197 0 0 1-1.999081-4.586128zM649.212621 700.97198l-3.52779 0.823151c0-1.17593 0-2.822232 0.940744-3.410198a16.463023 16.463023 0 0 1 4.586128-2.116674z" fill="#FEFBF0" p-id="5705"></path><path d="M567.250288 789.872301l1.763895 11.759302a35.277905 35.277905 0 0 1-10.112999 5.291686zM555.843765 825.150207a58.796509 58.796509 0 0 1-9.995406 1.528709l9.995406-12.582453a29.163068 29.163068 0 0 1 0 11.053744z" fill="#FDFAF0" p-id="5706"></path><path d="M272.562185 476.369316c-11.759302 7.996325-19.167662 17.050988-25.752871 16.463022s-13.288011-10.465779-19.87322-16.345429c6.467616-5.291686 12.700046-14.346348 19.520441-14.816721s14.346348 7.643546 26.10565 14.699128z" fill="#E5D3C9" p-id="5707"></path><path d="M497.400035 558.096463l-11.759302-2.469453a95.720717 95.720717 0 0 1-2.587046-11.759302l12.582453 0.940744z" fill="#873100" p-id="5708"></path></svg>