<?xml version="1.0" standalone="no"?><!DOCTYPE svg PUBLIC "-//W3C//DTD SVG 1.1//EN" "http://www.w3.org/Graphics/SVG/1.1/DTD/svg11.dtd"><svg t="1716980376612" class="icon" viewBox="0 0 1024 1024" version="1.1" xmlns="http://www.w3.org/2000/svg" p-id="1988" xmlns:xlink="http://www.w3.org/1999/xlink" width="256" height="256"><path d="M805.31456 174.83776L544.11264 847.5648H282.9312L544.11264 174.83776h261.20192z" fill="#1D2B54" p-id="1989"></path><path d="M481.30048 847.13472L105.0624 843.28448 1.9456 673.52576l376.23808 3.85024 103.1168 169.75872zM1023.01696 347.9552l-376.23808-3.85024-103.1168-169.75872 376.23808 3.85024 103.1168 169.75872zM244.10112 318.30016c26.4192 0 26.4192-40.96 0-40.96s-26.39872 40.96 0 40.96zM201.23648 355.04128c26.4192 0 26.4192-40.96 0-40.96s-26.4192 40.96 0 40.96zM297.18528 422.42048c26.4192 0 26.4192-40.96 0-40.96s-26.39872 40.96 0 40.96zM746.3936 565.3504c26.4192 0 26.4192-40.96 0-40.96s-26.4192 40.96 0 40.96zM734.16704 647.02464c26.4192 0 26.4192-40.96 0-40.96s-26.4192 40.96 0 40.96zM385.00352 391.7824c26.4192 0 26.4192-40.96 0-40.96s-26.4192 40.96 0 40.96zM323.74784 352.99328c26.4192 0 26.4192-40.96 0-40.96s-26.4192 40.96 0 40.96zM219.60704 489.7792c13.2096 0 13.2096-20.48 0-20.48s-13.2096 20.48 0 20.48zM227.77856 404.02944c13.2096 0 13.2096-20.48 0-20.48s-13.2096 20.48 0 20.48zM352.33792 267.20256c13.2096 0 13.2096-20.48 0-20.48s-13.2096 20.48 0 20.48zM834.19136 510.19776c13.2096 0 13.2096-20.48 0-20.48s-13.18912 20.48 0 20.48zM830.11584 577.57696c13.2096 0 13.2096-20.48 0-20.48s-13.18912 20.48 0 20.48zM944.45568 565.32992c13.2096 0 13.2096-20.48 0-20.48s-13.18912 20.48 0 20.48zM926.1056 502.02624c13.2096 0 13.2096-20.48 0-20.48s-13.2096 20.48 0 20.48zM821.9648 540.81536c13.2096 0 13.2096-20.48 0-20.48s-13.2096 20.48 0 20.48zM899.54304 553.08288c13.2096 0 13.2096-20.48 0-20.48s-13.2096 20.48 0 20.48z" fill="#1D2B54" p-id="1990"></path><path d="M760.70912 526.52032c13.2096 0 13.2096-20.48 0-20.48s-13.2096 20.48 0 20.48zM766.81216 616.38656c13.2096 0 13.2096-20.48 0-20.48s-13.18912 20.48 0 20.48zM785.2032 569.40544c13.2096 0 13.2096-20.48 0-20.48s-13.2096 20.48 0 20.48zM719.85152 585.74848c13.2096 0 13.2096-20.48 0-20.48s-13.18912 20.48 0 20.48zM303.32928 469.36064c13.2096 0 13.2096-20.48 0-20.48s-13.2096 20.48 0 20.48zM425.82016 428.52352c13.2096 0 13.2096-20.48 0-20.48s-13.2096 20.48 0 20.48zM507.51488 432.59904c13.2096 0 13.2096-20.48 0-20.48s-13.2096 20.48 0 20.48zM501.37088 495.90272c13.2096 0 13.2096-20.48 0-20.48s-13.2096 20.48 0 20.48z" fill="#1D2B54" p-id="1991"></path><path d="M507.51488 479.55968c13.2096 0 13.2096-20.48 0-20.48s-13.2096 20.48 0 20.48zM472.80128 528.56832c13.2096 0 13.2096-20.48 0-20.48s-13.2096 20.48 0 20.48zM574.8736 424.42752c13.2096 0 13.2096-20.48 0-20.48s-13.18912 20.48 0 20.48zM560.59904 524.4928c13.2096 0 13.2096-20.48 0-20.48s-13.18912 20.48 0 20.48zM517.71392 557.1584c13.2096 0 13.2096-20.48 0-20.48s-13.2096 20.48 0 20.48zM621.85472 600.04352c13.2096 0 13.2096-20.48 0-20.48s-13.18912 20.48 0 20.48zM621.85472 516.32128c13.2096 0 13.2096-20.48 0-20.48s-13.18912 20.48 0 20.48zM630.02624 459.18208c26.4192 0 26.4192-40.96 0-40.96s-26.4192 40.96 0 40.96zM515.6864 395.8784c26.4192 0 26.4192-40.96 0-40.96s-26.4192 40.96 0 40.96zM536.10496 448.96256c26.4192 0 26.4192-40.96 0-40.96s-26.4192 40.96 0 40.96z" fill="#FFFFFF" p-id="1992"></path></svg>