<?xml version="1.0" standalone="no"?>
<!DOCTYPE svg PUBLIC "-//W3C//DTD SVG 20010904//EN"
 "http://www.w3.org/TR/2001/REC-SVG-20010904/DTD/svg10.dtd">
<svg version="1.0" xmlns="http://www.w3.org/2000/svg"
 width="1075.000000pt" height="1280.000000pt" viewBox="0 0 1075.000000 1280.000000"
 preserveAspectRatio="xMidYMid meet">
<metadata>
Created by potrace 1.15, written by Peter Selinger 2001-2017
</metadata>
<g transform="translate(0.000000,1280.000000) scale(0.100000,-0.100000)"
fill="#9c27b0" stroke="none">
<path d="M32 12780 c-12 -12 -22 -32 -22 -46 0 -23 3 -25 24 -20 46 12 106
-57 120 -139 4 -22 16 -49 26 -60 17 -18 31 -61 54 -168 4 -16 26 -47 50 -71
39 -38 44 -48 51 -103 6 -51 13 -67 42 -99 29 -32 222 -406 286 -554 8 -19 31
-52 51 -74 25 -27 36 -48 36 -69 0 -48 36 -156 130 -392 140 -351 187 -503
380 -1230 214 -805 292 -1080 341 -1197 17 -40 33 -93 36 -118 7 -48 34 -82
91 -112 21 -11 39 -33 51 -61 21 -48 55 -66 91 -47 25 14 25 48 0 122 -10 32
-28 101 -40 154 -15 70 -36 127 -76 205 -68 134 -87 159 -114 152 -22 -6 -32
3 -80 76 -41 61 -26 72 26 20 27 -27 44 -38 45 -29 4 55 -7 79 -82 173 -43 55
-79 104 -79 108 0 15 18 10 123 -30 118 -46 147 -55 147 -46 0 3 -12 23 -26
45 -24 35 -26 45 -19 95 10 84 -23 126 -127 165 -67 24 -92 55 -57 68 12 5 42
4 65 -1 24 -6 47 -7 51 -3 12 12 -45 56 -72 56 -13 0 -37 11 -52 25 l-28 26
80 -7 80 -6 -45 47 c-42 44 -43 46 -17 40 61 -16 11 53 -68 93 -22 11 -51 32
-64 46 -25 27 -23 56 4 56 21 0 68 -25 84 -44 20 -24 33 -19 29 12 -2 16 -12
31 -25 37 -16 7 -23 18 -23 37 0 21 -6 29 -26 34 -25 6 -122 -1 -131 -10 -3
-2 3 -16 12 -29 9 -14 27 -88 40 -164 13 -76 28 -160 34 -186 7 -27 15 -87 20
-135 7 -64 13 -89 27 -99 26 -19 33 -16 31 15 -2 22 2 28 24 30 34 4 79 -47
79 -89 0 -28 -2 -29 -49 -29 -112 0 -156 99 -221 490 -17 102 -40 225 -51 274
-22 99 -17 116 32 116 47 0 77 -17 104 -60 34 -55 49 -52 41 7 -7 50 -75 198
-91 198 -5 0 -11 -18 -13 -40 -4 -49 -17 -65 -52 -65 -61 0 -118 82 -126 179
l-5 56 18 -35 c18 -35 47 -50 64 -33 5 5 -1 28 -15 53 -17 33 -25 69 -30 133
-6 83 -5 87 14 87 24 0 24 3 4 41 -8 17 -14 40 -12 52 2 18 9 21 32 19 27 -4
28 -2 22 24 -10 38 -49 103 -94 156 -49 56 -70 105 -78 176 -14 135 -132 360
-270 519 -30 33 -54 64 -54 68 0 3 25 -14 56 -39 50 -42 94 -59 94 -38 0 25
-77 121 -186 231 -68 69 -124 132 -124 140 0 16 -8 22 105 -76 86 -74 114 -93
137 -93 31 0 20 35 -32 100 -27 34 -50 71 -50 82 0 11 -9 33 -20 48 -21 30
-348 281 -399 306 -37 18 -82 95 -110 187 -30 99 -80 195 -127 244 -45 48 -69
53 -102 23z m683 -1040 c8 -14 -40 -34 -61 -26 -16 6 -16 8 2 21 22 17 50 19
59 5z m56 -190 c24 -13 25 -40 1 -40 -21 0 -42 18 -42 37 0 16 15 17 41 3z
m287 -535 c38 -34 58 -65 43 -65 -13 0 -108 95 -122 123 -11 21 -11 21 17 -3
16 -13 44 -38 62 -55z m-3 -65 c3 -5 2 -10 -4 -10 -5 0 -13 5 -16 10 -3 6 -2
10 4 10 5 0 13 -4 16 -10z m119 -159 c15 -17 16 -21 4 -21 -8 0 -39 28 -69 63
l-54 62 50 -41 c28 -23 59 -51 69 -63z m8 -156 c23 -30 3 -24 -32 10 -48 46
-54 72 -8 29 18 -16 36 -33 40 -39z"/>
<path d="M1170 12380 c0 -154 111 -547 250 -885 33 -82 108 -269 166 -415 58
-146 153 -384 211 -530 57 -146 114 -283 125 -305 11 -22 33 -72 48 -111 30
-79 173 -349 228 -432 19 -30 50 -66 68 -80 22 -18 34 -36 34 -52 0 -51 81
-141 99 -111 5 8 46 -33 121 -121 140 -163 488 -514 590 -594 107 -84 228
-153 282 -160 43 -6 46 -5 81 37 20 23 37 46 37 49 0 4 -34 10 -75 13 -87 8
-134 25 -182 67 -18 17 -48 36 -66 44 -44 19 -95 68 -235 227 -66 74 -148 155
-181 180 -34 24 -61 50 -61 57 0 27 -31 72 -59 87 -34 17 -347 361 -439 482
-131 173 -243 383 -330 623 -69 188 -197 517 -352 905 -156 391 -223 586 -289
845 -49 192 -71 248 -71 180z m1435 -3020 c3 -5 -1 -10 -10 -10 -9 0 -13 5
-10 10 3 6 8 10 10 10 2 0 7 -4 10 -10z"/>
<path d="M1240 11167 c0 -9 29 -77 64 -149 80 -167 96 -218 94 -294 -1 -53 4
-72 40 -146 23 -47 53 -132 68 -189 14 -57 45 -162 69 -234 46 -139 187 -637
283 -1005 60 -225 88 -353 137 -615 67 -355 107 -513 147 -576 49 -79 102
-332 84 -403 -4 -16 -13 -26 -25 -26 -40 0 -96 -73 -143 -185 -51 -121 -48
-122 -68 25 -15 105 -27 145 -55 178 -27 32 -25 53 13 128 11 22 28 65 37 96
9 31 28 74 42 94 33 49 27 93 -24 194 -61 120 -102 135 -248 94 -100 -28 -248
-156 -278 -239 -35 -101 -19 -174 62 -284 48 -64 91 -158 91 -196 0 -9 11 -37
24 -63 40 -78 94 -116 186 -131 68 -11 84 -21 105 -62 30 -57 128 -599 190
-1049 61 -439 101 -616 137 -594 19 12 2 230 -27 344 -32 125 -35 200 -13 295
9 39 22 151 28 250 24 390 29 445 49 488 11 23 59 85 109 138 49 53 92 108 96
123 4 17 -1 56 -14 103 -13 45 -19 86 -15 102 4 14 31 65 61 112 51 79 56 93
63 166 5 44 5 105 0 136 -8 61 -61 187 -78 187 -18 0 -61 73 -61 103 0 16 5
38 11 50 16 29 13 133 -6 186 -38 108 -89 136 -275 150 -66 5 -106 13 -116 22
-9 9 -19 60 -28 134 -8 66 -28 176 -46 245 -104 414 -239 886 -300 1054 -27
74 -15 94 31 50 61 -58 201 -241 359 -471 246 -358 329 -465 478 -622 140
-148 292 -287 340 -312 15 -8 37 -26 50 -41 26 -31 42 -36 42 -14 0 13 -81 87
-105 97 -5 2 -91 87 -190 189 -232 238 -396 434 -475 568 -63 106 -229 339
-351 493 -66 84 -139 179 -161 212 -90 133 -142 279 -169 480 -10 69 -20 101
-46 144 -22 38 -33 68 -33 95 0 47 -11 71 -55 118 -18 19 -38 51 -43 71 -18
67 -142 229 -142 186z m1086 -2792 c26 -11 40 -27 59 -67 29 -61 33 -108 10
-108 -20 0 -35 -40 -35 -95 0 -52 -11 -62 -35 -35 -25 27 -35 25 -83 -16 -33
-28 -46 -33 -56 -25 -21 18 -69 200 -70 267 -1 85 8 94 101 94 42 0 89 -6 109
-15z m-437 -411 c34 -43 25 -133 -16 -157 -8 -5 -26 -33 -40 -63 -29 -62 -83
-114 -118 -114 -25 0 -85 52 -85 75 0 7 -3 27 -6 44 -5 24 -3 31 9 31 21 0 30
31 22 74 -11 58 20 90 120 122 64 20 91 17 114 -12z m564 -26 c80 -57 94 -117
52 -233 -36 -99 -75 -159 -105 -163 -46 -5 -58 16 -85 145 -23 115 -51 193
-75 208 -22 14 -7 24 45 30 31 4 66 16 78 26 24 20 47 17 90 -13z m-933 -88
c0 -27 -4 -50 -10 -50 -5 0 -10 23 -10 50 0 28 5 50 10 50 6 0 10 -22 10 -50z
m1050 -215 c0 -24 -4 -47 -10 -50 -6 -4 -10 15 -10 50 0 35 4 54 10 50 6 -3
10 -26 10 -50z m-233 -240 c14 -9 31 -31 38 -48 16 -41 27 -180 17 -232 -6
-35 -11 -40 -42 -46 -19 -4 -46 -11 -59 -16 -40 -16 -72 -3 -127 51 -106 104
-96 248 21 302 37 18 117 11 152 -11z m-224 -359 c70 -56 78 -77 90 -255 11
-153 -1 -414 -20 -444 -13 -21 -39 143 -63 398 -14 141 -44 289 -65 321 -31
47 -24 45 58 -20z"/>
<path d="M8700 9454 c-214 -16 -406 -58 -535 -118 -180 -83 -382 -254 -558
-473 -117 -145 -161 -252 -222 -538 -46 -220 -58 -244 -165 -323 -47 -34 -114
-85 -149 -114 -68 -55 -154 -162 -149 -186 5 -25 54 -33 253 -39 165 -5 195
-3 230 11 49 21 191 56 225 55 23 0 21 -2 -12 -20 -39 -20 -50 -39 -23 -39 8
0 15 -4 15 -8 0 -5 -21 -5 -47 -1 -27 4 -58 5 -71 2 -43 -10 -41 -93 3 -153
13 -18 22 -36 20 -41 -3 -4 -29 -10 -58 -14 -28 -4 -83 -16 -122 -27 -73 -21
-255 -105 -290 -133 -19 -16 -19 -17 -2 -30 15 -10 54 -12 186 -8 206 7 272 0
308 -33 14 -13 35 -24 45 -24 28 0 58 -18 58 -36 0 -18 26 -28 108 -43 35 -7
122 -34 195 -60 73 -27 164 -54 202 -61 124 -22 284 -68 309 -89 17 -14 123
-37 311 -66 241 -37 305 -51 436 -96 126 -43 181 -51 158 -23 -22 26 -237 129
-349 167 -58 19 -166 54 -240 77 -183 58 -269 96 -307 136 -60 61 -315 192
-466 239 -51 16 -56 20 -44 33 19 18 95 17 207 -3 113 -20 142 -19 174 6 25
19 38 47 16 34 -24 -15 -100 -6 -126 14 -17 14 -34 19 -50 15 -29 -7 -79 8
-169 53 -119 59 -159 98 -175 168 -9 42 3 97 26 116 14 11 21 7 53 -29 54 -64
118 -83 302 -89 161 -6 177 -1 132 42 -25 22 -67 38 -206 78 -21 6 -58 28 -82
49 -32 28 -52 38 -78 38 -31 0 -34 2 -29 26 4 24 2 25 -29 22 -33 -3 -59 -29
-114 -119 -11 -18 -26 -34 -32 -37 -23 -7 -14 53 15 95 15 22 42 62 60 89 22
33 32 58 29 75 -3 24 1 27 32 32 20 3 46 9 59 13 20 6 22 3 22 -29 0 -76 129
-166 243 -170 31 -1 58 3 59 8 2 6 -35 38 -82 73 -150 112 -190 143 -190 150
1 4 21 23 46 42 25 19 56 50 70 68 23 30 24 33 9 49 -20 20 -14 66 14 103 30
41 108 92 150 97 45 6 67 -13 24 -22 -84 -18 -123 -63 -123 -143 0 -63 35
-112 80 -112 55 0 72 -47 30 -85 -11 -10 -31 -15 -51 -13 -26 2 -39 12 -62 46
-16 23 -33 42 -38 42 -21 0 -7 -46 28 -91 108 -142 317 -107 421 70 40 69 38
141 -7 203 -19 27 -32 49 -30 51 2 2 24 15 49 29 25 15 79 52 120 83 41 31
122 79 180 107 58 27 144 70 192 94 103 52 129 54 220 15 152 -65 299 -193
351 -307 42 -91 54 -109 76 -112 40 -6 46 -57 46 -368 0 -272 -1 -293 -19
-313 -14 -16 -17 -29 -13 -58 7 -45 -15 -101 -69 -174 -39 -53 -136 -129 -165
-129 -10 0 -22 -6 -26 -13 -4 -8 -35 -31 -67 -51 -32 -21 -83 -61 -113 -89
-53 -50 -56 -51 -107 -49 -60 2 -104 -22 -93 -51 15 -40 189 -61 279 -33 89
26 278 176 265 210 -4 11 21 47 78 111 142 159 156 201 162 490 7 290 6 298
-123 658 -59 166 -8 154 180 -44 195 -205 346 -410 408 -552 69 -159 88 -230
112 -422 32 -257 39 -404 32 -741 -3 -183 -3 -364 0 -404 l7 -73 25 49 c39 76
82 201 88 255 3 27 14 69 24 92 30 70 44 216 44 467 0 206 -4 257 -28 415 -70
455 -88 516 -235 765 -30 52 -63 111 -72 130 -18 40 -67 85 -101 95 -36 10
-68 28 -68 37 0 5 9 4 19 -2 11 -5 27 -10 35 -10 21 0 13 19 -56 124 -32 48
-58 92 -58 98 0 5 9 6 20 3 26 -8 26 7 0 30 -15 14 -31 17 -75 13 -40 -3 -55
-1 -55 8 0 7 5 16 10 19 35 22 -22 126 -119 220 -39 37 -41 38 -39 15 5 -40
-24 -34 -84 18 -36 31 -72 53 -100 60 -24 6 -53 21 -63 32 -19 21 -16 24 35
21 l25 -2 -25 20 c-33 26 -101 56 -170 75 -30 8 -95 38 -144 66 -109 63 -159
83 -260 104 -79 16 -313 27 -416 20z m-72 -52 c16 -11 -49 -42 -88 -42 -36 0
-39 12 -7 28 47 23 74 27 95 14z m382 -112 c0 -19 -85 -53 -149 -58 -80 -6
-76 8 12 37 99 32 137 38 137 21z m485 -130 c13 -14 15 -24 8 -31 -14 -14 -53
10 -53 33 0 24 23 23 45 -2z m-1025 -53 c0 -2 -28 -28 -62 -57 -35 -29 -63
-60 -63 -68 0 -21 -58 -38 -87 -25 -20 9 -20 10 12 47 18 20 56 49 84 63 60
31 116 50 116 40z m1045 -83 c80 -39 123 -69 113 -79 -7 -8 -172 77 -210 108
l-23 18 25 -6 c14 -4 57 -22 95 -41z m-1345 28 c0 -4 -6 -17 -14 -28 -8 -11
-17 -37 -21 -57 -5 -27 -12 -37 -26 -37 -17 0 -18 -5 -13 -39 5 -34 3 -41 -16
-51 -28 -15 -36 -6 -22 25 7 14 12 27 12 28 0 2 -15 1 -33 -1 -22 -2 -41 3
-60 18 -43 34 -35 43 32 36 l58 -7 -1 37 c-1 32 4 41 33 61 33 22 71 31 71 15z
m814 -88 c9 -3 13 -10 10 -15 -6 -11 -45 -12 -70 -2 -16 6 -16 7 2 14 24 10
39 10 58 3z m-789 -72 c-8 -9 -35 20 -28 31 4 6 11 3 19 -8 8 -10 12 -21 9
-23z m620 28 c4 -6 -12 -10 -40 -10 -28 0 -44 4 -40 10 3 6 21 10 40 10 19 0
37 -4 40 -10z m-247 -72 c-2 -19 2 -24 30 -26 24 -2 32 -8 32 -23 0 -29 -34
-23 -70 12 -24 25 -28 34 -19 45 17 21 31 17 27 -8z m-530 -36 c25 -35 23 -62
-3 -62 -12 0 -15 6 -10 21 7 20 5 21 -21 14 -52 -13 -59 -12 -56 13 2 14 -4
30 -15 38 -16 13 -13 14 32 12 44 -3 53 -7 73 -36z m1441 -72 c74 -39 149 -96
138 -106 -11 -12 -186 93 -216 130 -20 24 -7 20 78 -24z m-954 -5 l33 -36 53
20 c29 11 55 18 57 16 3 -3 -7 -23 -22 -45 -18 -28 -36 -43 -57 -47 -16 -3
-32 -9 -35 -14 -9 -16 -34 3 -34 26 0 13 -7 31 -16 39 -19 19 -64 21 -64 3 0
-25 -26 -51 -45 -44 -16 7 -16 9 0 35 27 42 67 82 83 82 7 0 28 -16 47 -35z
m-565 -169 c0 -19 -4 -37 -9 -41 -13 -7 -24 30 -16 55 10 32 25 23 25 -14z
m355 -289 c17 -13 17 -15 -6 -30 -31 -22 -49 -21 -49 1 0 17 18 42 30 42 3 0
14 -6 25 -13z m-875 -277 c0 -30 -25 -74 -59 -102 -31 -26 -145 -67 -274 -97
-78 -18 -78 -18 -60 1 10 11 68 54 130 94 174 116 263 150 263 104z m260 -136
c0 -8 -13 -29 -29 -45 -27 -26 -36 -29 -93 -28 l-63 0 55 21 c30 12 71 32 90
45 41 27 40 27 40 7z"/>
<path d="M3738 8775 c-59 -19 -154 -105 -191 -174 -48 -87 -62 -146 -62 -265
l0 -110 -33 -8 c-44 -12 -134 6 -171 33 -26 19 -39 21 -105 17 l-75 -5 25 19
c13 11 24 26 24 34 0 8 9 23 21 35 20 20 28 21 119 14 72 -5 100 -4 105 5 13
22 -29 50 -89 60 -67 11 -102 30 -119 67 -9 21 -8 31 10 63 24 40 22 50 -12
50 -43 0 -152 -151 -169 -236 -10 -46 60 -180 124 -237 55 -50 74 -55 212 -64
113 -7 153 2 97 22 -20 7 -72 18 -115 25 -75 11 -174 45 -174 60 0 35 89 38
104 4 8 -18 19 -20 129 -23 67 -1 129 -7 139 -12 9 -5 26 -29 37 -54 16 -35
25 -45 44 -45 30 0 57 -30 92 -100 15 -30 43 -77 62 -103 34 -46 99 -104 108
-96 2 3 -1 24 -6 48 -5 24 -8 46 -5 48 2 2 32 -42 66 -99 34 -57 71 -113 83
-125 25 -28 51 -31 43 -5 -36 124 -58 225 -59 275 -2 71 -2 71 93 36 30 -12
68 -26 84 -32 41 -15 55 -57 72 -220 20 -195 44 -342 114 -690 57 -282 93
-508 140 -873 20 -160 77 -521 84 -533 2 -3 0 -15 -4 -26 -5 -13 -2 -26 7 -36
8 -10 18 -44 23 -77 4 -33 35 -143 68 -244 75 -227 98 -357 83 -456 -17 -112
-47 -174 -167 -346 -131 -188 -201 -298 -336 -530 -200 -343 -228 -366 -389
-314 -70 22 -82 21 -131 -14 -14 -10 -24 -9 -55 7 -35 18 -65 20 -398 23 -454
5 -1115 -20 -1405 -53 -550 -61 -915 -116 -1007 -152 -25 -9 -55 -13 -73 -10
-80 17 -461 -83 -516 -134 -18 -17 -29 -20 -51 -14 -103 27 -210 -40 -229
-143 -9 -48 22 -106 101 -190 97 -105 234 -185 419 -247 43 -15 90 -33 102
-42 14 -9 24 -11 24 -5 0 6 12 12 28 14 24 3 19 7 -43 40 l-70 36 45 11 c25 7
58 16 74 22 39 12 45 4 15 -20 -23 -19 -23 -21 -6 -38 30 -30 137 -30 236 1
62 20 120 29 228 36 140 10 197 19 256 42 41 16 32 27 -13 16 -66 -17 -99 10
-38 31 18 6 79 14 136 18 71 4 116 12 140 25 44 22 64 23 102 3 24 -12 42 -13
97 -5 194 28 501 37 661 19 169 -19 452 -99 452 -128 0 -15 -41 -19 -265 -31
-110 -5 -386 -32 -615 -59 -682 -82 -835 -108 -949 -164 -67 -33 -83 -37 -156
-37 -120 0 -445 -86 -445 -118 0 -4 15 -16 33 -25 l32 -18 -48 6 c-26 2 -67
16 -90 29 -23 14 -77 31 -120 39 -44 8 -83 19 -88 24 -15 15 28 61 84 90 52
27 195 93 231 106 38 15 8 16 -56 2 -36 -7 -88 -25 -116 -39 -27 -14 -52 -23
-55 -20 -8 8 -125 -105 -133 -128 -9 -30 37 -72 111 -102 84 -33 202 -55 370
-67 77 -5 185 -16 239 -24 117 -18 180 -19 171 -5 -16 26 29 30 565 60 899 50
1072 64 1453 116 99 13 182 22 186 19 8 -4 108 31 126 44 13 11 143 58 176 65
15 3 60 36 100 74 41 37 92 79 114 94 76 49 195 158 201 184 5 20 1 32 -21 52
-26 26 -27 26 -20 4 9 -31 -24 -74 -98 -128 -68 -51 -86 -55 -79 -19 3 20 0
25 -16 25 -44 0 -68 -62 -42 -110 13 -24 -15 -43 -42 -29 -17 9 -17 12 -3 39
22 42 20 43 -27 19 -52 -26 -122 -78 -192 -140 -92 -84 -166 -122 -166 -87 0
23 85 120 164 186 101 85 128 102 161 102 23 0 25 3 20 23 -11 36 -34 67 -50
67 -25 0 -17 27 15 54 38 31 143 65 229 73 63 6 63 6 52 -15 -25 -46 -90 -66
-151 -47 -15 5 -28 1 -45 -15 -12 -12 -29 -20 -37 -18 -13 3 -18 -3 -18 -22 0
-19 103 -41 158 -34 44 5 55 11 67 33 14 28 81 88 123 110 21 11 22 10 16 -13
-11 -43 42 -35 122 20 79 54 108 48 50 -11 -20 -19 -36 -38 -36 -41 0 -3 10
-14 21 -23 18 -14 20 -21 11 -38 -15 -28 -135 -138 -206 -189 -34 -24 -69 -52
-79 -61 -19 -18 -33 -60 -24 -70 9 -8 269 37 284 49 7 5 23 34 37 63 23 51 99
145 117 145 4 0 2 -18 -6 -40 -9 -25 -10 -40 -4 -40 6 0 36 22 68 50 40 34 66
50 85 50 27 0 28 -1 13 -23 -8 -12 -24 -22 -36 -21 -30 1 -26 -9 14 -45 42
-37 60 -38 160 -10 42 11 85 19 97 17 36 -5 31 -25 -7 -32 -46 -9 -68 -47 -42
-73 14 -14 55 -19 219 -29 452 -27 728 -61 728 -90 0 -16 5 -17 88 -14 57 2
63 0 60 -17 -2 -15 5 -19 42 -21 51 -4 181 13 255 33 90 25 110 32 169 64 101
54 118 33 25 -32 -56 -40 -74 -67 -42 -67 10 0 56 18 102 41 46 22 98 43 115
46 l31 5 -34 -26 c-19 -14 -40 -26 -46 -26 -20 0 -56 -46 -49 -63 11 -30 54
-17 108 32 25 22 28 23 21 6 -18 -49 -18 -55 4 -55 12 0 32 7 45 15 13 9 59
31 102 49 60 25 94 47 144 95 36 35 98 88 138 119 91 68 105 92 72 127 l-23
25 23 0 c13 0 43 -12 67 -26 l44 -25 -21 -29 c-35 -49 -251 -248 -312 -288
-32 -20 -58 -40 -58 -43 0 -13 131 -31 177 -24 52 8 103 30 103 45 0 14 57 12
83 -2 12 -7 40 -14 61 -17 l40 -6 -33 -38 c-98 -111 -423 -317 -651 -412 -141
-59 -280 -150 -280 -183 0 -7 11 -19 25 -28 35 -23 169 -15 250 16 149 55 205
71 295 85 101 15 131 24 247 74 93 40 157 56 299 76 138 19 194 38 297 104 42
26 98 54 125 60 127 31 236 75 442 178 243 121 386 208 465 282 28 26 84 72
125 103 107 81 304 291 403 430 22 31 44 55 49 52 13 -8 9 -54 -12 -133 -33
-122 -24 -161 26 -122 36 28 43 27 60 -16 25 -60 90 -423 95 -533 5 -108 2
-116 -56 -180 -58 -66 -107 -172 -120 -262 -6 -41 -3 -57 24 -114 17 -36 31
-74 31 -83 0 -9 -18 -33 -40 -53 -97 -92 -163 -326 -113 -398 41 -59 118 -103
183 -104 25 -1 81 2 125 7 l80 7 0 -272 c0 -240 2 -277 17 -307 25 -48 22
-123 -7 -225 -31 -107 -68 -182 -146 -293 -32 -48 -59 -92 -59 -100 0 -41 70
-16 119 44 65 78 167 305 175 387 l4 41 64 -2 c34 -2 103 -6 151 -11 l88 -8
15 35 c8 19 40 63 72 98 100 113 122 149 122 204 0 64 -25 112 -100 193 -96
102 -157 120 -225 66 -21 -17 -46 -29 -54 -28 -17 3 -73 106 -93 171 -9 29 -9
40 1 50 20 20 45 -6 56 -59 l11 -48 33 49 c28 42 30 49 17 57 -26 15 -8 27 30
21 31 -5 40 -1 74 32 112 110 125 346 25 462 -35 41 -58 54 -132 73 -40 10
-42 12 -52 63 -5 28 -15 202 -21 386 -13 385 -32 611 -61 730 -20 81 -20 84
-2 101 10 9 37 25 61 34 116 44 348 262 556 519 200 250 320 492 371 752 14
71 16 117 12 218 -6 119 -5 129 13 145 15 12 20 29 20 69 0 48 -3 55 -25 63
-32 12 -32 31 1 70 34 40 43 92 37 205 -5 80 -3 93 13 109 20 20 23 76 10 172
l-6 49 44 -50 c25 -27 48 -47 51 -43 11 11 -27 95 -57 128 -15 17 -35 30 -46
30 -15 0 -18 6 -14 30 3 21 -7 51 -33 101 -36 70 -39 99 -11 99 45 0 20 83
-45 149 -83 84 -207 160 -208 126 -1 -5 2 -18 5 -29 3 -10 1 -23 -5 -29 -19
-19 -41 15 -51 79 -10 74 -21 102 -55 142 -34 41 -74 62 -116 62 -22 0 -46 11
-76 36 -24 20 -69 45 -101 56 -75 26 -81 34 -41 51 19 8 51 35 72 61 21 25 55
55 76 65 78 40 185 191 206 291 4 19 15 48 24 64 10 18 12 30 6 33 -6 2 -9 19
-7 38 5 46 -3 44 -28 -5 -11 -22 -49 -68 -84 -104 -43 -43 -66 -75 -71 -97
-12 -61 -16 -68 -52 -90 -28 -18 -52 -23 -107 -23 -66 -1 -73 -3 -103 -34 -18
-17 -30 -38 -27 -45 2 -7 30 -26 62 -43 l57 -29 -48 -3 c-64 -4 -153 25 -284
94 -114 60 -156 69 -151 32 2 -16 21 -32 62 -55 33 -17 65 -39 72 -48 7 -9 28
-20 47 -26 74 -20 133 -78 143 -141 6 -31 3 -38 -20 -53 -24 -16 -40 -17 -198
-6 -189 13 -320 33 -376 57 -34 14 -35 16 -18 26 11 6 83 13 160 16 78 2 149
9 159 14 27 14 21 46 -13 63 -42 22 -74 19 -108 -10 -17 -14 -38 -25 -48 -25
-27 0 -86 38 -82 53 2 7 36 27 76 46 40 19 72 38 72 42 0 16 -70 21 -103 8
-50 -20 -133 -77 -164 -113 -15 -18 -35 -42 -44 -52 -15 -18 -14 -23 13 -71
36 -66 32 -98 -13 -88 -24 6 -29 3 -29 -13 0 -39 101 -62 306 -69 153 -5 419
16 514 42 30 8 67 15 82 15 27 0 27 -1 21 -50 l-6 -50 71 0 c70 0 101 -13 62
-25 -11 -3 -43 -25 -71 -47 -29 -23 -73 -47 -98 -55 -51 -17 -409 -31 -457
-19 l-29 8 23 18 c12 10 22 20 22 23 0 3 -59 2 -131 -1 -169 -6 -304 16 -377
64 l-24 16 24 25 23 26 -34 -7 c-51 -9 -81 -32 -81 -61 0 -21 -5 -25 -29 -25
-16 0 -40 4 -54 9 -13 5 -30 5 -37 1 -21 -13 14 -48 60 -60 42 -11 125 -80
119 -98 -3 -8 -37 4 -101 34 -54 25 -105 44 -115 42 -48 -11 155 -141 241
-155 50 -8 65 8 59 58 -5 35 -3 41 16 46 18 5 21 11 16 33 -5 23 -2 30 14 35
12 3 30 3 42 0 16 -5 19 -12 14 -32 -4 -17 0 -32 11 -44 25 -28 34 -23 27 13
l-6 31 114 -6 c141 -8 241 -34 270 -71 26 -34 94 -38 104 -6 9 29 67 41 239
49 153 7 181 14 181 41 0 27 64 34 125 13 66 -22 73 -45 17 -54 -20 -3 -40 -9
-44 -12 -10 -10 14 -55 66 -127 70 -94 103 -156 99 -182 -3 -21 -5 -20 -22 12
-26 49 -46 70 -68 70 -29 0 -22 -41 22 -125 38 -71 52 -131 30 -123 -5 2 -24
28 -42 58 -40 67 -69 76 -92 31 -31 -59 -19 -144 30 -223 25 -40 51 -58 72
-51 41 15 58 -61 18 -77 -24 -9 -25 -12 -19 -80 4 -47 2 -70 -5 -70 -21 0 -51
52 -57 98 -12 87 -25 120 -56 146 -17 14 -35 26 -40 26 -5 0 -12 -18 -15 -40
-4 -22 -11 -40 -16 -40 -5 0 -39 18 -75 40 -37 22 -82 43 -102 46 -50 9 -101
36 -163 87 -108 88 -122 92 -183 55 l-37 -21 -43 21 c-74 36 -388 312 -372
328 4 4 39 -8 77 -26 76 -34 102 -33 58 5 -40 34 -120 51 -169 35 -21 -7 -39
-16 -39 -21 0 -18 260 -237 405 -340 82 -59 143 -91 150 -79 12 20 81 10 141
-20 32 -16 92 -56 133 -90 41 -33 76 -60 78 -60 3 0 2 18 -2 40 -8 47 9 55 26
13 15 -39 17 -179 2 -194 -18 -18 -52 0 -80 42 -26 40 -43 50 -43 25 0 -12 9
-26 66 -104 27 -36 29 -100 5 -160 -46 -115 -194 -310 -227 -298 -15 6 -17 -8
-5 -39 4 -11 4 -38 -1 -60 -11 -49 -96 -140 -139 -149 -29 -6 -63 -34 -86 -72
-10 -17 -13 -17 -26 -4 -25 25 -57 128 -59 190 -2 46 -6 60 -18 59 -39 -3 -42
0 -36 37 4 19 10 42 13 50 3 8 -4 17 -20 23 -34 13 -82 75 -162 211 -38 63
-150 239 -251 390 -166 250 -294 468 -294 499 0 20 67 -38 106 -90 24 -33 59
-63 107 -90 67 -40 71 -41 84 -23 14 19 15 19 29 0 8 -11 14 -26 14 -33 0 -7
5 -13 10 -13 18 0 11 45 -15 97 -27 54 -52 73 -61 48 -4 -8 -16 -15 -29 -15
-36 0 -190 109 -174 124 6 5 80 -31 118 -59 41 -30 57 -27 54 8 -1 24 1 26 28
20 45 -9 37 18 -24 73 -100 92 -85 99 35 17 46 -31 98 -67 117 -80 51 -35 55
-28 15 26 -43 61 -84 96 -160 139 -33 18 -95 64 -138 102 -76 67 -104 84 -93
57 2 -6 12 -46 22 -87 9 -41 19 -82 22 -90 11 -28 13 -50 5 -50 -4 0 -22 9
-40 20 -18 11 -43 20 -57 20 -32 0 -61 43 -176 261 -144 275 -244 437 -330
539 -22 26 -39 54 -39 63 0 22 -9 21 -40 -3 -31 -24 -61 -25 -103 -3 -106 55
-741 273 -1014 348 -129 36 -163 49 -163 66 0 5 20 30 45 55 40 40 50 45 83
42 34 -2 37 -1 34 21 -4 27 -107 157 -148 186 -51 37 -187 63 -341 66 -95 2
-160 -28 -238 -112 -78 -85 -101 -135 -110 -241 -9 -115 -26 -138 -97 -138
-150 0 -386 105 -776 347 -589 364 -896 539 -1089 621 l-53 22 20 51 c11 27
29 68 40 89 29 56 25 86 -15 136 -37 45 -44 64 -22 64 20 0 45 -23 49 -45 2
-15 10 -19 29 -17 38 4 109 -27 260 -113 211 -122 627 -385 678 -429 77 -66
373 -252 528 -329 93 -47 254 -97 333 -103 l65 -5 -90 45 c-49 25 -96 46 -103
46 -32 0 -288 142 -436 241 -192 128 -343 248 -486 384 -127 122 -167 155
-186 155 -22 0 3 -43 72 -120 32 -36 67 -76 78 -89 l21 -23 -40 23 c-104 59
-301 193 -346 236 -61 57 -88 101 -128 211 -31 83 -63 138 -129 219 -38 47
-79 65 -186 81 -42 7 -81 19 -99 33 -38 28 -99 33 -159 14z m120 -34 c10 -6 7
-10 -13 -15 -30 -8 -65 0 -65 15 0 11 60 12 78 0z m-8 -70 c0 -22 -45 -60
-100 -85 -87 -39 -122 -22 -57 28 60 46 157 81 157 57z m160 -69 c0 -11 -20
-38 -20 -27 0 6 -10 -7 -23 -28 -29 -47 -97 -96 -97 -69 0 5 23 31 50 59 29
29 50 60 50 72 0 19 3 20 20 11 11 -6 20 -14 20 -18z m-333 -79 c5 -14 -40
-28 -63 -19 -13 5 -14 9 -3 22 14 17 60 15 66 -3z m271 -88 c-9 -9 -30 14 -23
25 6 9 10 8 17 -4 6 -10 8 -19 6 -21z m302 5 c21 -11 35 -60 25 -90 -4 -13
-15 -20 -32 -20 -28 0 -93 36 -93 52 0 13 56 68 70 68 6 0 20 -4 30 -10z
m-606 -96 c8 -3 46 8 84 25 115 51 150 34 69 -33 -53 -44 -105 -66 -152 -66
-46 0 -61 28 -50 97 l8 48 14 -33 c7 -18 20 -35 27 -38z m279 -80 c33 -17 87
-63 87 -74 0 -8 -27 -5 -105 12 -54 11 -95 32 -95 49 0 11 36 27 63 28 10 1
32 -6 50 -15z m-88 -290 c-5 -28 -9 -34 -16 -23 -10 17 -12 60 -2 85 12 31 27
-19 18 -62z m615 -231 c25 -14 189 -119 365 -233 347 -224 487 -310 580 -358
72 -36 115 -74 115 -102 0 -11 -4 -20 -9 -20 -18 0 -21 -53 -7 -104 35 -118
175 -287 314 -379 39 -26 72 -54 72 -61 0 -8 -47 -60 -104 -116 -58 -57 -112
-117 -121 -135 -16 -36 -37 -55 -134 -124 -35 -25 -76 -66 -96 -96 -37 -56
-84 -101 -145 -140 -21 -13 -49 -35 -63 -49 -14 -14 -38 -28 -54 -31 -15 -4
-68 -18 -118 -32 -146 -41 -214 -57 -221 -51 -3 4 -12 37 -21 75 -8 37 -53
235 -99 438 -47 204 -105 464 -130 580 -44 207 -57 245 -70 212 -14 -38 -21
-11 -28 100 -18 294 -79 603 -121 603 -6 0 -20 9 -29 19 -14 15 -15 24 -6 40
10 20 12 20 48 5 20 -8 57 -27 82 -41z m-109 -203 c11 -63 3 -138 -13 -122
-25 25 -50 216 -31 235 10 10 33 -49 44 -113z m2033 -58 c9 -14 -22 -62 -95
-149 -87 -104 -135 -181 -144 -234 -7 -41 -14 -46 -46 -29 -15 9 -19 22 -19
69 0 116 110 279 220 327 60 25 76 28 84 16z m138 -116 c-44 -46 -90 -104
-102 -128 -12 -23 -30 -51 -39 -62 -23 -26 -82 -54 -130 -62 -36 -6 -41 -4
-41 13 0 43 112 175 200 236 40 28 161 84 184 86 5 1 -28 -37 -72 -83z m188
-42 c13 -13 12 -20 -10 -62 -50 -95 -313 -327 -334 -294 -10 16 60 169 107
235 89 125 183 172 237 121z m-2330 -71 c0 -35 -3 -44 -10 -33 -16 25 -11 80
7 80 2 0 3 -21 3 -47z m2342 -168 c18 -8 161 -55 318 -106 450 -144 599 -200
809 -303 73 -36 139 -66 146 -66 27 0 122 -100 166 -176 26 -44 143 -268 261
-499 253 -494 273 -530 342 -598 118 -119 427 -691 551 -1022 62 -167 109
-429 125 -702 6 -111 14 -170 24 -185 8 -13 17 -61 21 -108 3 -47 20 -175 37
-285 25 -165 30 -234 32 -392 1 -191 1 -191 -24 -218 -29 -31 -29 -24 11 -210
35 -167 60 -391 46 -420 -12 -25 -58 -75 -69 -75 -5 0 -6 37 -3 83 4 45 2 109
-3 142 -38 233 -54 357 -72 555 -31 338 -45 419 -96 552 -54 141 -93 286 -129
481 -86 463 -231 982 -373 1337 -48 122 -58 140 -163 296 -36 55 -99 158 -139
229 -97 172 -219 357 -317 480 -44 55 -88 114 -97 132 -18 36 -21 73 -6 73 15
0 12 33 -5 57 -22 31 -160 121 -295 192 -270 141 -922 373 -1158 412 -98 16
-105 23 -103 95 1 71 9 114 22 114 5 0 7 17 3 39 -14 87 53 134 138 96z
m-1045 -65 c49 -17 140 -41 203 -54 63 -13 136 -34 161 -45 48 -22 119 -90
119 -116 0 -20 -63 -68 -107 -81 -30 -9 -51 -7 -103 6 -36 9 -75 22 -87 28
-27 15 -36 15 -28 2 5 -8 -11 -9 -47 -5 -46 6 -58 12 -93 50 -55 59 -149 211
-141 230 8 21 22 19 123 -15z m511 -12 c16 -16 15 -58 -1 -58 -15 0 -49 54
-40 64 10 10 28 7 41 -6z m-1598 -463 c39 -165 89 -376 111 -470 75 -316 84
-405 48 -456 -30 -42 -12 -39 148 28 151 63 193 69 241 34 17 -11 34 -21 39
-21 5 0 31 23 58 51 39 40 180 164 273 240 6 5 12 20 12 32 0 30 43 75 163
171 54 43 137 121 185 173 95 103 208 186 268 198 32 5 87 29 198 83 4 2 6 -4
3 -14 -199 -693 -472 -1582 -521 -1696 -9 -21 -48 -72 -86 -115 -87 -96 -166
-208 -186 -265 -12 -34 -14 -62 -7 -138 21 -256 -21 -352 -267 -605 -137 -141
-180 -190 -180 -207 0 -14 31 7 142 95 57 45 118 89 136 96 34 14 37 18 23 40
-7 10 4 27 37 60 27 26 70 89 101 146 68 125 125 211 146 219 13 4 15 1 10
-14 -8 -26 3 -25 68 4 59 26 127 81 127 102 0 8 10 14 24 14 28 0 53 30 104
121 75 134 126 109 104 -51 -10 -65 -8 -89 4 -54 24 73 54 137 102 212 65 105
95 162 88 169 -5 5 -52 -45 -69 -73 -10 -18 -27 -18 -27 0 0 7 14 46 30 86 36
87 37 106 8 137 -30 32 -37 94 -27 252 11 169 44 510 65 655 14 99 14 110 0
124 -26 27 -38 1 -47 -105 -11 -117 -31 -193 -59 -218 -18 -17 -20 -17 -26 -1
-19 49 31 293 85 419 23 54 41 61 41 17 0 -47 17 -35 34 23 41 143 76 381 76
518 0 99 -5 119 -29 119 -10 0 -27 10 -38 23 -39 42 -67 117 -45 117 22 0 96
-65 120 -106 27 -44 52 -61 73 -49 6 4 9 16 6 26 -3 11 -3 19 -1 19 2 0 33
-20 69 -45 76 -52 107 -62 141 -46 97 44 500 -73 859 -249 119 -59 158 -85
260 -171 214 -180 326 -301 454 -492 142 -212 164 -290 105 -364 -39 -49 -65
-100 -94 -185 -13 -38 -28 -68 -35 -68 -22 0 -45 -36 -70 -109 -43 -127 -152
-265 -243 -309 -27 -13 -37 -14 -52 -4 -11 7 -22 12 -24 12 -12 0 -17 -135 -5
-161 17 -43 50 -36 62 12 9 41 80 135 130 173 45 35 77 27 117 -27 36 -49 38
-74 6 -86 -28 -11 -36 -29 -36 -81 0 -21 -4 -41 -8 -44 -5 -3 -25 7 -45 21
-20 14 -43 23 -50 20 -8 -3 -22 -28 -32 -56 -9 -28 -19 -51 -23 -51 -3 0 -14
7 -24 17 -23 20 -22 25 -22 -147 -1 -140 -13 -203 -43 -214 -9 -4 -19 -4 -22
0 -3 3 -9 54 -12 114 -8 157 -27 169 -115 72 -30 -34 -45 -44 -58 -39 -28 11
-14 60 38 137 50 73 58 95 85 231 10 53 31 121 45 151 29 62 31 72 15 117 -14
39 -43 41 -63 3 -8 -15 -24 -79 -36 -141 -11 -62 -35 -152 -52 -199 -17 -48
-49 -141 -72 -207 -48 -135 -60 -159 -93 -174 -13 -6 -23 -18 -23 -27 0 -20
-51 -104 -64 -104 -16 0 3 114 34 194 16 44 28 82 25 84 -8 8 -95 -82 -120
-124 -14 -24 -35 -49 -47 -55 -21 -11 -21 -11 -14 75 4 47 13 128 21 178 7 51
12 94 11 96 -2 1 -18 -44 -36 -100 -37 -118 -74 -195 -120 -253 -76 -95 -142
-235 -111 -235 13 0 46 51 89 136 37 73 58 94 66 66 14 -44 -80 -221 -170
-321 -54 -60 -106 -157 -109 -204 -2 -26 0 -27 14 -12 9 8 27 39 41 67 14 29
30 54 37 56 7 2 17 -15 24 -38 7 -22 16 -37 20 -33 4 4 16 40 28 78 29 98 79
179 113 183 22 3 28 -2 38 -34 15 -44 7 -123 -15 -157 -8 -13 -26 -29 -40 -35
-14 -6 -25 -18 -25 -25 0 -7 25 -37 55 -65 56 -53 67 -72 41 -72 -16 0 -41 22
-49 42 -6 18 -26 -8 -86 -112 -56 -99 -160 -321 -168 -361 -5 -24 -3 -27 16
-22 36 9 25 -26 -24 -75 -25 -25 -48 -42 -52 -39 -3 4 -1 13 6 21 8 9 10 38 5
92 -6 78 -6 80 25 118 31 39 41 89 21 101 -17 11 -36 -11 -50 -57 -7 -24 -25
-69 -41 -100 -35 -70 -36 -78 -4 -78 36 0 31 -16 -15 -45 -46 -29 -65 -31 -74
-9 -10 25 -7 104 4 104 17 0 37 52 68 175 42 169 58 316 39 375 l-14 45 -7
-80 c-13 -130 -57 -296 -115 -429 -12 -27 -26 -78 -31 -114 -12 -84 -24 -96
-81 -85 -35 7 -45 13 -47 31 -2 13 1 29 7 36 44 53 161 622 132 640 -35 22
-76 -31 -87 -112 -3 -29 -8 -52 -10 -52 -2 0 -19 17 -38 37 l-34 38 -11 -25
c-6 -14 -22 -117 -36 -230 -14 -113 -32 -236 -40 -273 -17 -83 -14 -94 28 -89
36 4 63 -17 54 -42 -6 -15 -143 -32 -177 -21 -22 7 -28 45 -7 45 18 0 33 34
56 132 50 212 74 384 66 466 -8 79 12 156 43 160 24 4 28 -9 12 -39 -7 -13 -7
-19 0 -19 17 0 49 38 55 67 17 77 40 92 72 47 21 -29 72 -43 151 -44 38 0 52
4 50 12 -3 7 15 25 38 40 55 35 81 72 64 93 -18 21 -28 19 -59 -14 -37 -39
-126 -64 -158 -43 -13 8 -6 23 54 102 18 23 30 46 27 51 -12 20 -131 -54 -155
-98 -6 -12 -26 -25 -43 -28 -97 -20 -392 -210 -573 -368 -77 -68 -83 -75 -93
-127 -15 -74 -36 -114 -92 -171 -51 -53 -67 -60 -75 -29 -7 26 -17 25 -58 -6
-19 -14 -44 -24 -56 -22 -20 3 -18 7 22 45 24 23 80 70 124 105 44 35 81 71
83 80 4 23 -54 58 -96 58 -18 0 -51 -9 -73 -21 -46 -23 -56 -20 -39 11 20 38
-7 41 -69 10 -47 -24 -81 -31 -206 -45 -140 -15 -152 -18 -180 -45 -37 -35
-205 -125 -288 -154 -89 -31 -90 -32 -83 -80 l6 -41 -23 28 c-27 32 -71 36
-118 11 -24 -12 -34 -13 -45 -3 -20 16 -17 29 6 29 21 0 186 92 210 117 13 14
13 15 -5 10 -11 -3 -49 -17 -83 -32 -35 -15 -70 -24 -78 -21 -47 18 117 165
165 148 8 -3 12 1 9 9 -18 54 -158 -31 -316 -190 -56 -57 -104 -102 -105 -100
-1 2 -7 13 -13 24 -9 17 -23 20 -80 23 -89 3 -114 9 -114 28 0 27 61 74 96 74
33 0 105 -26 115 -41 6 -10 143 97 193 150 l30 31 -27 0 c-15 0 -27 5 -27 11
0 15 56 84 140 174 120 128 106 121 -52 -29 -86 -81 -159 -155 -162 -163 -3
-8 -12 -13 -19 -10 -20 7 -47 -12 -47 -33 0 -31 35 -24 65 13 25 31 26 31 23
7 -4 -34 -89 -81 -115 -64 -10 6 -19 19 -21 28 -7 34 299 339 411 409 38 24
47 35 47 58 0 16 -5 29 -12 29 -25 0 -125 -85 -413 -355 -104 -98 -216 -200
-248 -227 -59 -49 -115 -83 -124 -75 -20 21 96 170 141 181 35 9 96 93 96 133
0 39 6 41 38 11 23 -23 24 -23 38 -4 8 11 14 28 14 38 0 22 -33 40 -56 31 -10
-4 -68 -57 -129 -118 -128 -130 -225 -212 -261 -221 -21 -5 -33 0 -57 25 -27
27 -32 39 -32 81 0 58 22 86 73 93 21 4 51 22 81 50 46 43 86 65 98 53 3 -3
-33 -45 -81 -94 -47 -49 -86 -91 -86 -95 0 -22 130 70 335 238 102 84 146 105
217 105 45 0 62 5 94 29 43 31 73 62 99 104 24 38 8 34 -65 -15 -98 -65 -160
-80 -160 -38 0 30 27 50 58 44 24 -5 33 1 65 39 21 26 48 47 64 50 39 9 45 14
85 77 49 75 149 182 298 317 129 118 225 191 236 180 14 -14 -10 -61 -66 -128
-64 -76 -72 -99 -20 -56 17 15 48 31 69 37 34 9 41 16 56 58 28 77 28 95 6
123 -11 15 -40 36 -64 47 -66 31 -72 43 -60 110 6 31 10 58 9 60 -2 1 -37 -43
-80 -99 -115 -149 -339 -401 -465 -521 -91 -88 -111 -112 -111 -136 0 -44 -49
-109 -178 -233 -137 -134 -204 -181 -247 -177 -16 1 -33 6 -36 10 -3 5 -23 -7
-45 -25 -45 -39 -67 -51 -107 -61 -26 -6 -27 -5 -17 14 13 24 7 25 -26 4 -13
-9 -27 -14 -30 -11 -20 20 75 107 203 185 50 31 90 58 88 61 -3 2 0 12 6 23
12 23 -6 52 -28 44 -26 -10 -12 30 53 147 160 290 212 362 257 355 30 -4 33
-37 8 -87 -26 -50 -27 -70 -3 -49 9 9 32 23 50 32 l32 17 20 -46 c11 -25 25
-45 31 -45 31 0 236 253 362 445 105 162 181 325 150 325 -10 0 -42 -53 -133
-220 -94 -174 -214 -331 -240 -315 -20 13 -9 56 24 92 37 41 96 131 96 146 0
17 -32 -16 -107 -110 -63 -80 -93 -108 -93 -88 0 3 16 56 36 118 24 75 47 123
67 146 37 43 77 127 77 163 0 30 24 48 64 48 37 0 32 16 -21 67 -31 29 -43 47
-35 50 31 12 72 56 72 78 0 13 3 30 6 39 5 14 8 14 27 1 37 -26 57 -19 55 17
-3 28 1 34 20 36 28 4 28 10 -3 34 -31 24 -31 35 -4 64 15 16 26 49 35 100 8
48 23 92 39 115 14 21 25 46 25 56 0 30 -40 -19 -90 -110 -30 -53 -57 -89 -78
-102 -30 -18 -32 -23 -27 -57 4 -30 1 -42 -15 -55 -11 -10 -20 -24 -20 -31 0
-11 -13 -13 -60 -10 -52 4 -65 9 -95 38 -57 56 -89 166 -99 345 -2 44 -13 109
-25 145 -25 82 -47 218 -61 390 -6 74 -12 151 -14 171 -2 20 -20 60 -40 90
-43 64 -44 71 -11 63 31 -8 31 -4 1 88 -32 97 -53 214 -66 363 -10 126 -11
147 -5 130 2 -5 36 -145 75 -310z m1645 135 c14 -6 -1 -9 -48 -9 -43 -1 -66 3
-62 9 7 12 82 12 110 0z m-305 -45 c57 -29 44 -96 -15 -81 -29 7 -85 57 -85
74 0 23 62 27 100 7z m3592 -346 c40 -17 19 -29 -52 -29 -68 0 -100 8 -100 25
0 33 78 35 152 4z m627 0 c23 -8 31 -17 31 -35 0 -31 -16 -30 -65 3 -35 23
-37 27 -19 34 10 4 19 8 20 8 1 1 15 -4 33 -10z m281 -681 c0 -41 -39 -4 -55
52 l-7 25 31 -29 c17 -17 31 -38 31 -48z m-56 -92 c19 -58 20 -79 5 -74 -14 5
-49 95 -49 128 0 21 2 22 14 10 7 -8 21 -37 30 -64z m-171 6 c17 -29 17 -33 3
-38 -23 -9 -56 23 -56 53 0 34 29 26 53 -15z m-4013 -4 c0 -19 -32 -48 -53
-48 -13 0 -17 5 -13 16 3 9 6 20 6 25 0 11 42 29 53 22 4 -2 7 -9 7 -15z
m4362 -19 c29 -39 41 -162 29 -292 -6 -61 -11 -115 -11 -119 0 -5 -4 -8 -9 -8
-5 0 -12 62 -15 138 -7 149 -20 266 -32 296 -10 26 15 17 38 -15z m-4365 -86
c3 -6 -10 -19 -27 -28 -27 -14 -31 -14 -36 0 -11 27 4 47 33 43 14 -2 28 -8
30 -15z m4313 -58 c0 -24 -4 -47 -10 -50 -6 -4 -10 15 -10 50 0 35 4 54 10 50
6 -3 10 -26 10 -50z m-2030 22 c0 -25 69 -156 87 -165 10 -6 26 -34 36 -64 11
-34 38 -79 78 -128 76 -93 98 -128 133 -211 38 -90 30 -125 -10 -44 -50 104
-97 79 -49 -26 29 -66 43 -174 31 -253 -14 -91 -36 -42 -56 122 -17 144 -37
229 -78 322 -48 107 -117 227 -150 257 -21 20 -25 34 -31 113 -3 49 -3 90 1
90 5 0 8 -6 8 -13z m1932 -9 c35 -55 73 -219 62 -271 -8 -40 -22 -24 -29 37
-14 107 -39 99 -50 -15 -7 -70 0 -155 17 -199 l10 -25 20 25 c14 18 18 34 15
57 -8 44 6 34 23 -17 11 -32 17 -39 32 -34 23 7 23 -8 3 -96 -21 -87 -62 -193
-88 -226 -19 -25 -21 -25 -28 -8 -6 17 -5 54 6 143 2 18 2 31 -1 28 -16 -16
-36 -131 -45 -264 -9 -141 -12 -155 -34 -177 -13 -13 -46 -68 -73 -122 -52
-105 -162 -367 -162 -388 0 -28 -52 -116 -69 -116 -23 0 -54 -35 -141 -160
-96 -137 -174 -233 -241 -295 l-54 -50 -3 60 c-6 104 29 216 142 460 54 114
95 233 113 320 5 27 15 43 30 50 26 11 32 36 21 85 -12 56 -9 125 6 146 14 19
15 19 39 -4 14 -13 27 -20 30 -15 3 4 8 46 11 93 7 94 24 170 37 170 12 0 39
55 39 80 0 12 7 34 15 51 14 26 14 35 0 82 -22 74 -31 224 -16 270 16 47 31
39 32 -16 2 -74 11 -92 48 -92 52 0 64 -25 58 -120 -4 -63 -13 -101 -45 -180
-22 -55 -59 -163 -82 -240 -73 -245 -88 -290 -133 -401 -101 -246 -158 -368
-221 -473 -37 -60 -73 -128 -81 -150 -13 -39 -12 -71 4 -71 18 0 152 150 169
190 11 25 74 140 142 255 143 244 218 392 250 490 13 39 29 79 36 90 24 38 36
132 25 186 -6 27 -11 133 -11 234 0 238 18 292 56 170 10 -31 21 -52 25 -48 4
5 9 114 11 244 3 216 5 239 22 258 24 27 40 27 58 -1z m-4263 -92 c30 -32 26
-90 -6 -94 -12 -2 -25 -12 -28 -23 -7 -20 -7 -20 -22 -2 -16 20 -17 21 13 -57
20 -52 17 -66 -17 -91 -31 -22 -32 -22 -46 -3 -9 13 -12 31 -8 53 4 19 10 72
15 117 5 46 14 92 20 103 14 28 51 27 79 -3z m2287 -125 c22 -75 30 -82 60
-48 l24 28 0 -29 c0 -34 -34 -82 -57 -82 -23 0 -53 30 -53 53 0 11 -13 35 -30
54 -34 38 -39 77 -13 106 17 18 18 18 35 -3 10 -12 25 -48 34 -79z m-2263 -46
c-6 -16 -16 -19 -26 -8 -9 8 13 34 24 28 4 -3 6 -12 2 -20z m4012 -64 c-4 -17
-11 -31 -16 -31 -10 0 -12 63 -2 74 14 13 25 -13 18 -43z m-1920 -58 c10 -48
30 -78 53 -79 12 -1 29 -7 38 -15 24 -19 78 -107 92 -146 37 -111 -152 79
-204 203 -15 37 -13 64 5 64 6 0 13 -12 16 -27z m303 -19 c12 -21 33 -73 46
-114 22 -68 24 -100 7 -100 -10 0 -71 126 -87 180 -27 88 -8 107 34 34z
m-2539 0 c-9 -11 -5 -11 23 -4 18 6 52 10 75 10 38 0 43 -3 43 -23 0 -13 -6
-31 -13 -42 -13 -16 -20 -17 -88 -7 -71 11 -98 5 -85 -16 10 -17 93 -32 180
-32 47 0 86 -2 86 -5 0 -11 -127 -183 -192 -259 -38 -44 -105 -127 -149 -184
-87 -110 -119 -138 -119 -102 0 11 12 38 26 60 55 83 -3 62 -109 -40 -41 -38
-77 -70 -81 -70 -3 0 -6 33 -6 74 0 53 -4 77 -15 86 -25 21 -17 63 27 151 47
94 114 168 193 213 28 16 69 44 92 63 35 28 42 38 37 61 -3 17 3 39 15 58 15
26 24 31 45 27 21 -4 24 -8 15 -19z m2486 -139 c37 -71 89 -163 115 -203 37
-56 55 -99 79 -186 18 -62 34 -137 37 -167 3 -30 12 -70 19 -89 7 -19 16 -59
20 -87 4 -29 11 -55 15 -58 5 -3 24 15 42 39 18 25 36 45 41 46 12 0 8 -57
-13 -198 -26 -175 -26 -216 1 -241 l21 -20 41 47 c41 48 76 114 77 144 0 9 -9
19 -19 23 -37 11 -37 55 0 55 22 0 24 16 8 105 -6 33 -9 81 -7 105 l4 45 21
-45 c12 -25 35 -110 53 -190 17 -80 37 -173 45 -207 26 -107 28 -103 -70 -99
-77 4 -85 2 -85 -14 0 -21 -67 -140 -78 -140 -5 0 -13 5 -20 12 -19 19 -51 -5
-158 -114 -123 -125 -164 -153 -250 -172 -38 -8 -89 -23 -114 -34 -24 -12 -48
-18 -52 -16 -5 3 -6 40 -2 82 4 57 2 89 -9 121 -19 54 -11 78 56 170 25 34 49
70 52 81 9 28 89 56 120 42 14 -7 25 -20 25 -31 0 -19 19 -41 21 -24 1 4 2 60
3 123 3 126 23 201 62 227 19 12 25 11 53 -12 l31 -27 0 55 c0 30 7 71 16 92
13 32 13 40 1 58 -17 25 -90 67 -118 67 -26 0 -25 -34 2 -61 17 -17 28 -19 60
-14 41 7 47 0 25 -30 -9 -12 -27 -18 -56 -19 l-44 -1 0 -40 c-1 -33 -4 -40
-21 -40 -19 0 -20 6 -17 83 2 77 1 84 -18 89 -24 6 -24 18 -5 98 18 72 20 251
4 261 -16 9 -27 -13 -34 -66 -11 -80 -15 -92 -33 -88 -9 2 -23 15 -31 29 -23
41 -1 98 59 157 63 62 64 83 9 205 -40 90 -71 168 -84 217 l-7 25 20 -20 c11
-11 50 -78 87 -150z m-226 -62 c28 -32 64 -83 79 -113 25 -50 27 -64 25 -158
-1 -56 2 -100 6 -98 5 3 11 -43 15 -102 4 -59 14 -179 21 -267 17 -186 19
-271 5 -280 -14 -9 -37 34 -45 85 -8 46 -30 90 -36 71 -2 -6 -20 -13 -39 -17
l-35 -7 58 60 c31 32 57 62 57 67 0 4 -10 16 -21 25 -20 16 -23 32 -31 180 -9
170 -23 231 -54 231 -12 0 -15 -6 -10 -22 21 -77 21 -75 -2 -54 -12 10 -30 42
-41 70 -24 62 -25 44 -6 -104 18 -141 30 -214 45 -270 15 -55 6 -63 -65 -62
-78 1 -116 38 -54 52 l24 6 1 224 1 225 34 7 c19 4 44 5 57 3 18 -4 27 2 45
32 22 38 24 59 6 78 -6 6 -12 2 -15 -13 -7 -26 -13 -27 -39 -4 -79 68 -161
208 -111 189 10 -4 29 -10 43 -14 23 -5 25 -3 20 16 -9 34 8 25 62 -36z m1661
-108 c-12 -25 -26 -45 -32 -45 -14 0 -3 51 24 108 l22 47 4 -33 c2 -20 -5 -50
-18 -77z m-5056 79 c22 -8 20 -47 -4 -69 -37 -34 -66 6 -40 56 11 20 19 23 44
13z m4011 -275 c24 -152 17 -299 -16 -299 -16 0 -29 107 -29 238 0 214 16 236
45 61z m955 79 c-1 -25 -38 -94 -125 -233 -130 -207 -165 -256 -177 -249 -11
7 -2 108 13 137 6 10 21 17 38 17 31 0 41 14 41 56 0 49 39 104 88 124 12 5
22 16 22 25 0 16 41 86 68 118 18 20 32 22 32 5z m-5047 -65 c-31 -50 -173
-226 -194 -241 -68 -47 8 82 112 189 77 80 115 104 82 52z m3289 -101 c7 -31
13 -109 13 -172 0 -100 -3 -122 -24 -170 -16 -36 -24 -75 -25 -114 -1 -56 1
-60 24 -66 20 -5 25 -12 25 -35 0 -25 -5 -31 -27 -33 -18 -2 -30 -12 -38 -33
-7 -16 -10 -32 -7 -36 4 -3 29 4 56 16 63 27 78 26 123 -4 41 -28 45 -26 54
36 8 53 22 82 35 74 13 -9 11 -70 -6 -140 -8 -33 -15 -77 -15 -97 0 -27 -8
-47 -31 -73 -36 -41 -64 -47 -55 -12 3 13 8 49 12 81 8 68 -5 86 -63 86 -42 0
-51 -18 -59 -122 -7 -94 -18 -118 -43 -93 -13 12 -15 34 -13 101 2 55 -1 91
-9 100 -20 24 -29 100 -19 159 11 68 -2 117 -25 94 -20 -20 -36 -193 -25 -271
5 -35 12 -119 16 -188 l6 -125 -26 -14 c-14 -8 -28 -12 -30 -10 -9 9 -9 46 -2
87 10 56 0 127 -22 149 -13 12 -17 34 -17 87 0 64 -2 71 -20 71 -28 0 -22 41
10 75 18 19 28 46 38 101 8 48 23 92 42 123 17 27 36 58 43 70 9 15 11 49 6
127 -6 113 6 205 33 248 l16 25 18 -22 c10 -13 24 -48 31 -80z m-2802 16 c0
-37 -233 -283 -336 -354 -104 -72 -74 -24 103 164 149 158 233 227 233 190z
m2491 -434 c-13 -226 -25 -324 -44 -358 -10 -18 -13 -12 -17 49 -10 145 16
499 43 565 10 25 10 25 19 -10 7 -23 7 -105 -1 -246z m-2967 195 c-23 -26 -94
-79 -106 -79 -33 0 28 85 77 106 39 16 55 2 29 -27z m2869 -31 c14 -91 -39
-568 -63 -568 -33 0 -5 514 31 581 15 28 26 23 32 -13z m-297 -72 c7 -30 -13
-130 -34 -171 l-16 -30 -7 40 c-15 80 -11 137 13 162 27 29 36 29 44 -1z
m1560 -60 c-3 -14 -11 -26 -16 -26 -11 0 -14 73 -3 84 12 12 26 -31 19 -58z
m-1391 -17 c4 -11 4 -126 0 -254 -4 -128 -4 -238 0 -245 5 -9 15 -4 32 16 l24
29 -5 -55 c-2 -30 -21 -108 -41 -174 -26 -81 -36 -132 -33 -162 3 -36 0 -43
-12 -38 -30 13 -45 9 -45 -11 0 -11 10 -24 22 -30 42 -18 40 -54 -5 -75 -41
-18 -129 -25 -146 -11 -11 9 -20 10 -35 2 -24 -13 -71 -14 -90 -2 -12 8 -12
13 2 35 9 14 17 30 17 35 0 16 -61 -7 -90 -34 -32 -30 -40 -31 -40 -5 0 12 20
39 46 63 85 77 119 112 136 137 17 25 17 24 16 -48 -1 -78 4 -91 25 -73 27 22
39 131 38 346 -1 220 10 359 30 397 l13 23 7 -25 c3 -14 4 -111 1 -215 l-5
-190 29 -14 c16 -8 43 -16 61 -18 l32 -3 -16 37 c-30 71 -28 487 3 567 8 22
21 20 29 -5z m636 -59 c25 -24 30 -37 27 -67 -2 -30 -7 -38 -23 -38 -17 0 -20
6 -17 39 3 31 -2 44 -24 67 -23 24 -25 29 -10 29 10 0 31 -13 47 -30z m719
-75 c0 -24 -4 -47 -10 -50 -6 -4 -10 15 -10 50 0 35 4 54 10 50 6 -3 10 -26
10 -50z m-1076 -252 c21 -60 20 -86 -3 -159 -11 -32 -22 -71 -25 -85 -3 -14
-19 -44 -35 -66 -23 -32 -35 -40 -53 -36 -15 2 -48 -11 -92 -37 -38 -22 -71
-39 -73 -36 -7 6 86 169 111 195 13 13 29 22 36 19 7 -2 -1 -16 -19 -36 -34
-35 -39 -59 -16 -68 21 -8 44 13 53 50 6 24 14 31 33 31 21 0 25 6 31 45 3 25
7 75 7 111 1 78 10 131 21 124 5 -3 15 -26 24 -52z m311 -41 l-7 -27 -10 28
c-7 20 -6 32 4 44 12 15 13 15 16 -1 2 -10 1 -30 -3 -44z m-1745 3 c0 -9 -21
-30 -47 -48 -73 -49 -117 -100 -137 -159 -16 -45 -116 -259 -144 -308 -5 -8
-26 -50 -47 -92 -68 -138 -128 -187 -227 -188 -39 0 -50 -5 -73 -31 -14 -17
-24 -33 -22 -35 2 -3 35 2 73 10 38 9 96 19 129 23 57 8 60 9 63 38 2 17 12
39 22 50 49 55 199 323 200 359 0 6 7 20 15 30 25 32 40 7 25 -41 -19 -58
-140 -315 -159 -337 -11 -13 -13 -20 -4 -23 7 -2 9 -11 6 -19 -3 -8 -3 -14 0
-14 10 0 57 47 57 56 0 14 219 446 240 474 l20 25 0 -25 c0 -14 -16 -77 -35
-140 -111 -363 -161 -418 -420 -466 -106 -20 -391 -30 -428 -15 -34 13 -26 33
11 29 24 -3 27 1 30 32 5 54 -19 65 -77 36 -92 -47 -136 -42 -62 7 22 15 79
61 127 103 104 90 158 128 176 122 8 -3 -14 -33 -58 -79 -39 -41 -79 -89 -88
-107 l-17 -33 33 17 c18 9 74 58 123 109 68 70 98 94 124 99 47 9 92 45 151
122 35 47 52 81 60 119 14 65 61 128 151 201 124 100 209 140 209 99z m2629
-22 c-12 -19 -89 -73 -104 -73 -13 0 26 40 69 72 43 31 54 31 35 1z m59 -104
c-53 -61 -132 -129 -151 -129 -5 0 -3 8 4 17 15 18 191 173 197 173 2 0 -21
-28 -50 -61z m-5568 38 c0 -7 -184 -147 -194 -147 -3 0 -6 10 -6 21 0 12 -18
39 -40 61 l-40 40 38 -7 c20 -4 42 -7 47 -8 6 -1 9 10 8 25 l-2 27 95 -2 c52
-1 94 -5 94 -10z m-1170 -37 c0 -5 -18 -10 -40 -10 -22 0 -40 5 -40 10 0 6 18
10 40 10 22 0 40 -4 40 -10z m145 0 c4 -6 -10 -10 -34 -10 -23 0 -41 5 -41 10
0 6 15 10 34 10 19 0 38 -4 41 -10z m1326 -1 c50 -16 79 -31 79 -42 0 -11 -59
-67 -71 -67 -5 0 -9 10 -9 23 0 40 -28 69 -63 65 -26 -2 -32 -7 -30 -25 3 -26
-12 -29 -51 -11 -30 13 -44 47 -25 59 20 12 130 11 170 -2z m2656 -81 c-8
-107 -46 -286 -75 -350 l-20 -43 -1 35 c-1 49 81 450 93 450 5 0 6 -37 3 -92z
m-4717 53 l105 -6 -115 -12 c-63 -7 -214 -24 -335 -38 -297 -34 -489 -33 -450
3 45 41 496 71 795 53z m1447 -14 c6 -4 9 -16 6 -26 -8 -32 -89 -105 -135
-122 -33 -13 -43 -22 -43 -40 0 -14 -7 -25 -17 -27 -33 -6 -20 40 28 100 25
33 44 61 41 64 -7 8 -99 -69 -145 -121 -23 -26 -42 -43 -42 -38 0 17 -37 53
-54 53 -9 0 -28 -7 -41 -16 -28 -19 -243 -94 -267 -94 -23 0 -23 16 -2 28 26
14 7 32 -34 32 -71 -1 -173 -29 -245 -69 -87 -48 -146 -61 -167 -37 -11 15 -8
22 26 57 49 51 178 148 266 201 48 28 75 38 98 36 l31 -3 -31 -42 c-18 -24
-29 -43 -26 -43 4 0 30 13 59 29 86 48 243 79 452 90 122 6 221 1 242 -12z
m3476 -41 c-3 -52 -22 -116 -33 -116 -14 0 -13 90 1 129 15 42 35 34 32 -13z
m2517 3 c12 -21 13 -99 2 -99 -4 0 -13 5 -19 11 -8 8 -17 5 -32 -12 -72 -82
-70 -80 -91 -69 -20 11 -24 8 -21 -21 2 -22 -85 -151 -155 -228 -59 -65 -148
-141 -165 -141 -30 0 122 196 302 392 62 66 111 129 115 145 13 54 42 64 64
22z m-6850 11 c0 -6 -28 -24 -62 -39 -37 -17 -100 -61 -150 -104 -117 -102
-196 -154 -301 -199 -107 -47 -122 -48 -112 -10 9 36 30 56 60 57 14 1 47 17
73 37 26 19 77 56 115 82 37 26 97 72 133 103 36 31 84 61 107 69 51 16 137
18 137 4z m5753 -35 c25 -32 57 -47 57 -27 0 5 6 16 13 26 11 15 17 17 35 7
12 -6 27 -21 33 -32 9 -17 7 -25 -11 -44 -44 -47 -204 -144 -255 -155 -27 -6
-74 -18 -103 -27 -39 -13 -55 -14 -64 -5 -13 13 0 35 82 136 139 171 163 184
213 121z m-6073 8 c18 -17 -262 -234 -384 -298 -142 -75 -310 -117 -319 -80
-2 10 22 24 260 163 59 34 140 89 178 122 39 33 86 67 105 77 57 27 139 36
160 16z m5169 -45 c-12 -44 -78 -175 -96 -189 -26 -22 -23 -3 10 72 54 123
109 198 86 117z m-5414 12 c-16 -26 -276 -185 -422 -259 -71 -35 -73 -36 -73
-18 0 8 39 43 88 78 104 76 182 147 182 165 0 27 53 42 158 43 47 1 71 -3 67
-9z m-1020 -10 c13 -6 -11 -8 -70 -8 -60 0 -82 3 -65 8 33 11 110 11 135 0z
m3155 -20 c-12 -16 -27 -33 -34 -37 -7 -5 -34 -26 -59 -49 -32 -29 -47 -51
-52 -77 -6 -33 -5 -37 14 -37 12 0 43 22 71 50 55 55 80 63 80 27 0 -46 -109
-135 -150 -122 -27 8 -72 -17 -111 -64 -19 -21 -51 -46 -73 -55 -42 -18 -96
-21 -96 -7 0 17 43 41 72 41 30 0 45 15 24 23 -8 3 -47 3 -85 0 -39 -3 -71 -3
-71 1 0 17 75 36 138 36 87 0 136 28 138 77 1 34 36 83 101 144 82 77 132 103
93 49z m3380 10 c9 -17 6 -24 -17 -45 -52 -45 -67 -21 -27 43 18 27 30 28 44
2z m-5831 4 c17 -4 31 -12 31 -19 0 -31 -252 -207 -395 -276 -44 -22 -86 -46
-94 -54 -32 -31 43 -15 139 30 52 25 101 45 108 45 6 0 12 -11 12 -25 0 -22
-11 -30 -76 -61 -98 -46 -134 -51 -409 -59 -211 -6 -236 -5 -307 14 -85 22
-165 59 -220 103 -41 32 -83 110 -74 135 4 10 -2 25 -14 38 -28 30 -11 40 35
21 29 -12 35 -20 35 -45 0 -37 13 -41 70 -25 25 7 94 22 154 34 120 23 138 30
178 68 l28 26 0 -25 c0 -29 17 -49 42 -49 11 0 18 7 18 20 0 25 15 28 155 33
65 3 127 11 152 20 24 9 98 23 165 31 68 9 137 17 153 19 54 7 82 7 114 1z
m2081 -2 c0 -19 -28 -44 -45 -41 -29 6 -28 26 2 37 36 13 43 14 43 4z m2360 1
c0 -11 -170 -120 -257 -165 -122 -63 -177 -62 -155 2 16 46 -13 54 -47 13 -14
-17 -37 -36 -50 -43 -23 -12 -23 -11 -17 16 12 52 11 58 -7 62 -22 4 -110 -46
-102 -59 4 -5 21 -9 40 -9 35 0 57 -17 33 -25 -7 -2 -64 -9 -127 -14 -62 -6
-140 -18 -172 -27 -33 -9 -63 -14 -67 -10 -14 15 43 47 140 78 55 17 128 48
163 70 71 42 107 47 175 23 63 -22 78 -20 72 10 -6 33 8 32 87 -5 35 -17 66
-29 68 -27 5 6 -68 54 -101 67 -17 6 -53 8 -85 5 -52 -6 -55 -5 -37 9 26 21
68 28 146 24 60 -3 65 -5 62 -25 l-3 -21 83 19 c46 10 97 23 113 28 39 12 45
13 45 4z m1980 -11 c0 -20 -170 -192 -189 -192 -30 0 -3 42 76 122 88 88 113
104 113 70z m1010 -51 c-53 -105 -336 -405 -530 -562 -210 -169 -370 -283
-467 -333 -107 -53 -84 -17 30 50 169 99 522 450 580 576 19 42 28 50 62 59
58 15 104 48 215 155 109 103 144 121 110 55z m-8336 -12 c-7 -12 -124 -12
-124 0 0 5 12 11 28 13 43 5 102 -3 96 -13z m6096 -27 c0 -13 -61 -92 -71 -92
-15 0 -10 33 11 68 18 29 60 46 60 24z m-3760 -32 c0 -14 -14 -12 -28 2 -19
19 -14 30 8 18 11 -6 20 -15 20 -20z m1841 -58 c-13 -25 -32 -39 -56 -43 -10
-2 -30 -19 -42 -38 -22 -32 -23 -33 -23 -9 0 36 77 104 123 107 4 1 3 -7 -2
-17z m-1860 -12 l24 -19 -30 -1 c-30 0 -55 15 -55 32 0 15 38 8 61 -12z m4799
-19 c0 -5 -13 -19 -30 -31 -33 -23 -42 -9 -13 22 17 19 43 24 43 9z m-2490
-21 c0 -17 -74 -57 -145 -79 -38 -11 -71 -19 -73 -17 -5 6 124 77 167 92 44
16 51 17 51 4z m1870 -15 c-7 -9 -15 -13 -18 -10 -3 2 1 11 8 20 7 9 15 13 18
10 3 -2 -1 -11 -8 -20z m-4385 5 c4 -6 -10 -10 -34 -10 -23 0 -41 5 -41 10 0
6 15 10 34 10 19 0 38 -4 41 -10z m600 -10 c4 -6 0 -22 -9 -35 -21 -32 -20
-38 5 -30 14 5 28 -1 47 -20 25 -25 31 -27 81 -21 46 6 52 4 42 -8 -10 -12 -6
-19 21 -39 18 -14 42 -27 53 -29 22 -4 33 -44 16 -61 -7 -7 -22 0 -47 23 -47
40 -131 79 -193 87 -41 6 -45 5 -33 -9 7 -9 43 -24 79 -34 70 -19 123 -55 123
-83 0 -93 -326 -360 -461 -378 -36 -5 -41 -4 -37 13 1 10 44 48 93 86 98 74
168 145 159 160 -4 6 -20 7 -36 4 -29 -6 -53 -20 -163 -97 -27 -19 -58 -38
-67 -42 -12 -4 -18 -17 -18 -36 0 -60 -108 -126 -169 -105 -40 14 -35 31 20
81 126 114 159 150 153 167 -14 38 193 87 356 85 110 -2 150 8 150 38 0 12 -7
14 -32 9 -18 -4 -54 -10 -81 -13 l-47 -6 6 29 c14 71 -136 129 -231 90 -19 -8
-35 -17 -35 -20 0 -3 20 -17 45 -32 51 -29 87 -27 105 6 15 28 38 25 46 -6 16
-63 -86 -80 -183 -31 -28 15 -70 29 -93 33 -47 8 -44 14 21 38 26 9 55 26 65
37 18 20 18 21 0 34 -30 22 -124 41 -138 27 -8 -8 -6 -13 8 -18 53 -17 74 -27
74 -36 0 -14 -74 -2 -112 18 -16 8 -28 21 -26 27 6 17 86 54 135 62 36 5 48 2
75 -18 34 -25 72 -41 121 -52 25 -5 28 -3 27 17 -4 40 -1 48 25 73 25 26 50
32 60 15z m4457 -47 c-29 -56 -242 -256 -242 -226 0 16 174 216 213 244 22 16
42 27 44 25 3 -2 -4 -21 -15 -43z m-5474 1 c-5 -28 -63 -27 -63 1 0 12 9 21
25 26 30 7 43 -2 38 -27z m202 26 c17 -5 0 -8 -55 -8 -53 0 -73 2 -60 8 25 11
82 11 115 0z m2322 -47 c38 -14 68 -30 68 -34 0 -4 -10 -11 -22 -15 -13 -4
-30 -15 -39 -25 -15 -18 -18 -18 -68 6 -28 14 -51 30 -51 36 0 11 32 58 40 59
2 0 35 -12 72 -27z m745 19 c14 -9 -164 -179 -214 -206 -32 -16 -116 -22 -147
-10 -9 3 -16 12 -16 20 0 19 -3 18 -46 -11 -45 -31 -59 -31 -78 -3 -30 43 -21
58 34 58 74 0 150 42 150 83 0 17 5 19 41 14 23 -3 48 -12 56 -20 12 -12 11
-16 -11 -31 -28 -18 -34 -36 -12 -36 37 0 106 85 106 130 0 18 6 20 63 20 34
0 67 -4 74 -8z m-3442 -12 c4 -6 -18 -10 -60 -10 -42 0 -64 4 -60 10 3 6 30
10 60 10 30 0 57 -4 60 -10z m-249 -35 c18 -13 16 -14 -23 -15 -41 0 -65 13
-41 23 24 10 44 7 64 -8z m-1605 -71 c8 -10 9 -15 3 -13 -15 5 -94 77 -94 85
0 7 73 -50 91 -72z m7891 59 c40 -36 20 -66 -197 -297 -130 -137 -264 -256
-289 -256 -19 0 3 31 72 103 90 95 118 132 128 172 4 17 45 69 94 120 47 49
101 109 119 133 36 46 46 50 73 25z m228 -6 c0 -37 -126 -167 -395 -409 -303
-273 -471 -385 -664 -442 -96 -28 -77 -3 54 75 83 49 135 96 135 121 0 13 8
18 30 18 52 0 102 32 243 155 32 27 62 50 67 50 21 0 114 83 255 226 82 83
170 167 195 185 47 35 80 43 80 21z m-5570 -27 c70 -36 58 -58 -26 -45 -46 7
-90 38 -79 55 10 16 63 11 105 -10z m2120 10 c0 -5 -4 -10 -9 -10 -6 0 -13 5
-16 10 -3 6 1 10 9 10 9 0 16 -4 16 -10z m2990 0 c0 -19 -31 -74 -59 -103 -14
-16 -55 -48 -91 -72 -36 -23 -121 -94 -190 -156 -284 -259 -613 -503 -772
-573 -32 -14 -58 -22 -58 -17 0 5 27 26 60 46 33 20 69 48 80 62 11 15 46 42
77 60 90 55 162 114 418 343 294 263 329 293 429 364 76 54 106 67 106 46z
m-3100 -69 c0 -12 -20 -25 -27 -18 -7 7 6 27 18 27 5 0 9 -4 9 -9z m2540 -30
c11 -22 4 -29 -30 -36 -28 -5 -82 -50 -153 -123 -37 -40 -63 -59 -73 -55 -9 3
-35 -15 -72 -52 -31 -32 -64 -59 -72 -60 -8 -2 -24 -6 -35 -9 -40 -15 305 305
370 342 30 17 53 14 65 -7z m-495 1 c80 -14 30 -39 -95 -47 -173 -11 -222 -15
-287 -25 -37 -5 -79 -13 -92 -17 -16 -4 -22 -3 -17 5 28 45 374 104 491 84z
m-2310 -52 c3 -5 -3 -10 -14 -10 -12 0 -21 5 -21 10 0 6 6 10 14 10 8 0 18 -4
21 -10z m512 -22 c14 -13 28 -18 42 -13 29 9 28 -29 -1 -49 -35 -24 -61 -19
-98 19 -19 19 -38 35 -44 35 -5 0 -23 -12 -38 -27 -23 -22 -28 -24 -28 -9 0 9
12 28 26 41 40 38 101 39 141 3z m2295 0 c-20 -32 -182 -166 -242 -202 -31
-18 -32 -18 -22 0 26 48 245 234 275 234 5 0 0 -14 -11 -32z m-253 -34 c-12
-13 -26 -24 -31 -24 -17 0 -7 32 19 58 25 24 28 25 31 9 2 -11 -6 -30 -19 -43z
m-2947 -16 c-7 -7 -12 -8 -12 -2 0 6 3 14 7 17 3 4 9 5 12 2 2 -3 -1 -11 -7
-17z m1121 0 c15 -23 1 -48 -27 -48 -33 0 -46 38 -20 57 21 15 34 13 47 -9z
m165 16 c28 -8 28 -30 1 -45 -26 -13 -69 2 -69 25 0 22 28 30 68 20z m1350 -3
c8 -4 12 -19 10 -32 -3 -25 -29 -33 -75 -23 -32 6 -29 18 10 43 37 24 37 24
55 12z m-538 -6 c0 -10 -62 -36 -190 -80 -154 -52 -190 -57 -105 -13 103 53
295 114 295 93z m-3345 -24 c-6 -5 -48 -35 -95 -66 -47 -32 -85 -65 -85 -74 0
-13 -13 -17 -62 -19 -44 -2 -63 1 -63 9 0 6 21 36 46 65 25 30 44 54 42 54
-16 0 -213 -105 -239 -127 -29 -25 -125 -92 -166 -117 -7 -4 -13 -3 -13 2 0
14 53 78 131 159 l70 71 167 17 c92 10 187 21 212 25 65 11 65 11 55 1z m4121
-2 c3 -6 14 -9 25 -6 15 4 16 2 7 -13 -7 -11 -25 -17 -50 -18 l-39 -2 18 25
c20 27 29 30 39 14z m-2906 -13 c0 -17 -68 -61 -78 -51 -8 7 52 65 68 65 6 0
10 -6 10 -14z m-1736 -63 c-45 -69 -149 -178 -171 -178 -12 -1 -33 -11 -46
-23 -33 -31 -78 -42 -175 -42 l-83 0 90 60 c49 33 93 70 96 81 16 50 -28 36
-136 -42 -147 -106 -221 -131 -123 -41 166 153 177 161 255 172 68 10 82 12
146 26 23 5 19 -3 -38 -66 -145 -162 -142 -159 -114 -155 28 3 38 10 147 112
72 68 143 121 162 122 4 1 0 -11 -10 -26z m1296 -3 c-14 -26 -61 -58 -111 -75
-23 -8 -44 -15 -47 -15 -15 0 59 65 102 90 53 31 72 31 56 0z m2940 -23 c0
-18 -28 -43 -64 -57 -42 -16 -44 -4 -6 35 34 35 70 46 70 22z m-4651 -13 c-7
-8 -29 -24 -50 -35 -21 -10 -72 -51 -114 -90 -42 -39 -100 -81 -128 -95 -59
-27 -137 -33 -137 -10 0 21 101 108 200 174 75 51 92 58 150 63 36 3 71 7 79
7 11 2 11 -1 0 -14z m-240 -20 c-20 -24 -215 -151 -284 -184 -35 -17 -98 -36
-150 -45 -100 -17 -348 -25 -362 -12 -14 15 121 107 157 107 6 0 60 22 118 50
128 59 186 70 516 98 16 2 17 0 5 -14z m941 -59 c0 -2 -11 -21 -25 -41 -14
-21 -23 -45 -20 -54 4 -12 -1 -19 -17 -24 -30 -8 -166 -6 -197 3 -23 6 -22 7
15 19 21 6 79 32 129 57 81 41 115 53 115 40z m-1685 -75 c3 -5 1 -10 -4 -10
-6 0 -11 5 -11 10 0 6 2 10 4 10 3 0 8 -4 11 -10z m-95 -30 c0 -27 -200 -104
-219 -84 -14 14 19 39 52 39 22 1 45 9 59 22 13 11 30 23 38 26 25 9 70 8 70
-3z m6740 -4 c0 -2 -17 -16 -37 -31 l-38 -28 29 31 c26 28 46 40 46 28z m-348
-133 c-37 -47 -83 -75 -102 -63 -19 12 1 34 65 71 66 38 73 37 37 -8z m2120
-142 c30 -27 32 -33 30 -85 -2 -44 2 -63 19 -85 11 -15 23 -46 26 -68 7 -56
-20 -83 -82 -83 -25 0 -45 5 -45 10 0 6 9 10 19 10 10 0 29 9 42 20 24 20 24
20 4 35 -14 11 -31 14 -61 9 -31 -4 -45 -2 -58 11 -23 24 -16 38 23 46 40 8
54 21 49 45 -3 15 -11 18 -42 16 l-39 -3 6 61 c3 33 11 67 17 75 19 23 57 18
92 -14z m-2744 -163 c-2 -6 -10 -14 -16 -16 -7 -2 -10 2 -6 12 7 18 28 22 22
4z m-54 -32 c-7 -18 -57 -39 -80 -34 -9 1 -23 13 -31 25 -14 21 -13 21 25 16
22 -3 48 -1 58 5 22 12 35 7 28 -12z m3233 -111 c50 -42 59 -75 43 -152 -25
-124 -97 -235 -167 -257 -24 -8 -98 24 -106 46 -3 7 -2 50 1 95 4 62 0 100
-13 148 -14 52 -15 68 -5 80 19 23 36 18 60 -15 28 -39 38 -38 46 8 16 91 69
109 141 47z m-351 -92 c74 -80 82 -204 21 -315 -26 -48 -64 -65 -157 -73 -88
-7 -119 4 -82 30 24 18 29 35 9 35 -20 0 -76 63 -86 96 -4 16 -4 43 0 59 16
61 186 195 247 195 13 0 34 -12 48 -27z m71 -535 c13 -12 23 -33 23 -46 0 -24
-1 -24 -19 -8 -20 18 -45 76 -34 76 4 0 17 -10 30 -22z m23 -163 c0 -39 -16
-55 -25 -26 -7 24 4 73 16 65 5 -3 9 -20 9 -39z m330 30 c69 -36 110 -151 90
-255 -8 -46 -46 -90 -78 -90 -9 -1 -28 -7 -42 -15 l-25 -14 28 -1 c38 0 34
-11 -15 -43 -74 -48 -93 -38 -153 77 -42 81 -44 95 -10 88 41 -7 33 34 -11 60
-31 18 -34 24 -28 52 10 49 52 120 82 139 34 21 123 22 162 2z"/>
<path d="M5072 4888 c-5 -7 -13 -23 -16 -35 -7 -20 -4 -23 23 -23 26 0 31 -4
31 -25 0 -37 18 -30 26 10 10 57 -35 108 -64 73z"/>
<path d="M5045 4688 c-44 -45 -58 -78 -31 -78 38 0 109 91 87 113 -7 7 -24 -3
-56 -35z"/>
<path d="M5148 4038 c-35 -29 -95 -75 -133 -103 -88 -63 -146 -121 -167 -165
-42 -86 48 -21 241 174 74 75 132 138 129 141 -3 3 -34 -18 -70 -47z"/>
<path d="M5630 4042 c0 -4 9 -13 20 -20 50 -31 0 -71 -66 -53 l-39 11 33 -31
c26 -24 30 -34 22 -48 -5 -11 -83 -79 -172 -153 -213 -174 -226 -184 -327
-243 -73 -43 -85 -54 -83 -74 2 -12 -4 -31 -14 -42 -9 -10 -12 -19 -6 -19 13
0 195 134 273 202 31 26 60 48 64 48 9 0 153 128 253 224 115 111 158 184 116
200 -22 9 -74 7 -74 -2z"/>
<path d="M5324 3999 c-66 -47 -177 -137 -241 -197 -40 -37 -56 -72 -34 -72 19
0 179 128 271 217 101 98 103 121 4 52z"/>
<path d="M4458 3933 c-67 -48 -80 -63 -54 -63 20 0 76 41 104 78 13 17 23 32
21 32 -2 0 -34 -21 -71 -47z"/>
<path d="M4527 3880 c-32 -33 -63 -60 -70 -61 -6 -1 -30 -2 -51 -3 -30 -2 -46
-11 -67 -34 -46 -51 -52 -112 -10 -112 10 0 21 9 24 20 5 21 52 44 68 34 20
-12 4 -34 -91 -127 -55 -53 -100 -103 -100 -112 0 -27 52 11 151 110 172 174
279 345 215 345 -7 0 -38 -27 -69 -60z"/>
<path d="M6035 3825 c-26 -14 -73 -45 -104 -69 -90 -69 -162 -106 -209 -106
-33 0 -49 -7 -85 -39 -98 -84 -272 -200 -324 -216 -31 -9 -30 15 2 53 39 46
30 47 -22 3 -57 -47 -116 -78 -161 -85 -37 -5 -82 -31 -82 -47 0 -8 25 -9 82
-4 88 8 83 11 61 -42 -10 -24 23 -13 63 20 87 74 124 86 124 43 0 -21 4 -24
26 -20 14 3 38 13 52 23 15 10 53 35 85 56 68 44 100 81 91 107 -7 23 12 48
36 48 45 0 301 159 383 238 69 68 63 80 -18 37z m-439 -336 c-16 -24 -109 -96
-144 -112 -40 -18 -38 4 3 39 40 35 133 94 148 94 5 0 1 -9 -7 -21z"/>
<path d="M5774 3744 c-32 -33 -37 -54 -13 -54 16 0 69 57 69 74 0 26 -20 19
-56 -20z"/>
<path d="M4554 3516 c-9 -23 -1 -48 19 -60 26 -16 62 27 47 55 -13 22 -58 26
-66 5z"/>
<path d="M7066 3488 c-28 -45 -75 -202 -64 -214 6 -6 95 173 104 209 8 34 -19
38 -40 5z"/>
<path d="M4862 3386 c-26 -25 -43 -48 -39 -52 8 -8 72 49 88 79 16 28 1 20
-49 -27z"/>
<path d="M8766 3931 c-30 -75 -50 -291 -27 -291 16 0 43 126 49 227 3 57 2
103 0 103 -3 0 -13 -18 -22 -39z"/>
<path d="M8588 3788 c-4 -90 -1 -121 13 -112 12 7 12 194 0 194 -5 0 -11 -37
-13 -82z"/>
<path d="M8666 3814 c-9 -25 -7 -117 4 -134 7 -10 10 11 10 68 0 82 -3 95 -14
66z"/>
<path d="M8356 3538 c-80 -106 -101 -175 -35 -112 33 31 116 184 99 184 -5 0
-34 -33 -64 -72z"/>
<path d="M7472 3294 c-50 -60 -105 -236 -88 -279 6 -18 7 -18 20 1 8 10 23 53
35 94 29 100 48 148 72 181 23 32 24 39 5 39 -8 0 -28 -16 -44 -36z"/>
<path d="M5810 2842 c-41 -20 -53 -52 -20 -52 25 0 110 47 110 61 0 15 -53 10
-90 -9z"/>
<path d="M2659 3281 c-50 -45 -62 -69 -27 -56 17 7 92 94 86 101 -3 2 -29 -18
-59 -45z"/>
<path d="M5537 3114 c-31 -17 -31 -41 -1 -36 25 5 64 30 64 42 0 15 -31 11
-63 -6z"/>
<path d="M2788 2424 c-16 -8 -28 -19 -28 -24 0 -15 43 -12 68 6 45 31 12 47
-40 18z"/>
<path d="M1238 2403 c-8 -10 -41 -38 -72 -63 -31 -25 -56 -48 -56 -52 0 -27
85 19 151 81 l54 50 -30 1 c-17 0 -38 -8 -47 -17z"/>
<path d="M8760 8400 c-7 -13 -19 -73 -27 -134 -8 -61 -23 -135 -34 -166 -38
-103 -38 -102 11 -98 57 4 76 32 91 128 15 95 6 257 -14 278 -13 13 -16 12
-27 -8z"/>
<path d="M8707 7459 c-48 -5 -101 -16 -118 -25 -29 -15 -30 -17 -15 -32 26
-26 168 -11 271 28 29 11 29 12 11 26 -21 15 -20 15 -149 3z"/>
<path d="M9195 6164 c24 -18 109 -44 144 -44 22 0 23 2 11 14 -20 19 -104 46
-143 46 -31 -1 -31 -1 -12 -16z"/>
<path d="M9566 6155 c19 -15 18 -16 -8 -39 -16 -14 -28 -27 -28 -29 0 -2 24 1
54 8 30 7 125 16 212 20 107 5 152 11 140 17 -19 11 -255 38 -335 38 -51 0
-53 -1 -35 -15z"/>
<path d="M9455 5947 c-2 -6 -6 -25 -10 -41 -5 -25 -9 -28 -35 -22 -17 3 -30 2
-30 -2 0 -12 87 -65 190 -117 133 -67 257 -108 187 -62 -33 22 -57 46 -57 59
0 24 203 -22 287 -64 33 -16 38 -4 16 34 -17 29 -26 34 -74 40 -108 13 -337
99 -427 159 -29 20 -44 25 -47 16z m176 -124 c61 -36 36 -69 -28 -36 -44 23
-57 53 -23 53 12 0 35 -8 51 -17z"/>
<path d="M9691 5921 c-9 -6 -4 -10 19 -13 44 -7 86 2 68 13 -17 11 -69 11 -87
0z"/>
<path d="M9885 5875 c37 -29 195 -59 195 -37 0 12 -144 52 -186 52 -28 -1 -28
-1 -9 -15z"/>
<path d="M9350 5730 c0 -22 325 -169 410 -184 34 -7 34 -6 15 9 -24 20 -135
73 -270 127 -118 48 -155 60 -155 48z"/>
<path d="M8994 5616 c-10 -40 4 -64 49 -84 28 -12 93 -70 188 -165 80 -81 151
-147 157 -147 30 0 6 34 -123 176 -99 109 -134 158 -122 170 4 4 23 -6 44 -22
59 -44 324 -316 334 -344 8 -20 12 -22 19 -10 6 8 10 23 10 33 0 74 -317 373
-417 393 -28 6 -31 4 -26 -14 2 -11 0 -23 -6 -26 -17 -11 -49 12 -53 36 -5 34
-45 37 -54 4z"/>
<path d="M8780 5505 c0 -21 56 -48 77 -36 14 8 12 12 -18 30 -40 25 -59 27
-59 6z"/>
<path d="M9091 5410 c39 -46 69 -64 69 -41 0 11 -91 91 -103 91 -5 0 11 -22
34 -50z"/>
<path d="M9564 5375 c-11 -28 85 -165 115 -165 18 0 13 17 -21 65 -24 34 -29
48 -20 57 8 8 21 5 52 -16 22 -14 40 -23 40 -18 0 11 -60 67 -87 81 -31 16
-73 14 -79 -4z"/>
<path d="M9127 5248 c211 -305 413 -581 420 -574 2 2 -12 36 -31 75 -20 39
-36 81 -36 94 0 14 -20 47 -50 81 -47 54 -64 96 -38 96 22 0 93 -85 131 -157
47 -90 62 -102 54 -43 -9 67 -81 204 -119 229 -21 13 -36 17 -42 11 -6 -6 -21
-10 -34 -10 -19 0 -23 4 -19 20 4 15 0 20 -15 20 -27 0 -56 17 -68 40 -17 31
-2 44 27 25 41 -27 39 -8 -4 35 -33 32 -47 39 -76 38 -26 -1 -46 7 -76 31 -23
18 -46 42 -52 52 -5 10 -14 19 -20 19 -5 0 16 -37 48 -82z"/>
<path d="M9012 5199 c26 -48 95 -129 109 -129 21 0 5 31 -52 98 -68 80 -92 93
-57 31z"/>
<path d="M9384 5155 c-14 -37 26 -69 53 -42 22 22 8 57 -23 57 -14 0 -27 -7
-30 -15z"/>
<path d="M9690 5144 c0 -6 22 -45 48 -85 70 -107 114 -140 98 -74 -7 27 -145
178 -146 159z"/>
<path d="M9560 5107 c0 -7 21 -48 46 -91 25 -43 43 -84 40 -92 -3 -9 11 -33
35 -59 41 -45 59 -55 59 -34 0 22 -80 182 -115 229 -36 48 -65 70 -65 47z"/>
<path d="M9130 5023 c0 -12 80 -103 91 -103 23 0 5 30 -41 69 -27 23 -50 39
-50 34z"/>
<path d="M9265 4779 c82 -128 168 -249 176 -249 12 0 -11 103 -31 144 -12 22
-25 68 -30 101 -11 72 -33 95 -94 95 -22 0 -51 3 -64 6 -20 6 -14 -8 43 -97z"/>
<path d="M4227 2612 c-24 -26 -21 -42 8 -42 14 0 29 8 35 20 21 38 -13 55 -43
22z"/>
</g>
</svg>
