<?xml version="1.0" standalone="no"?>
<!DOCTYPE svg PUBLIC "-//W3C//DTD SVG 20010904//EN"
 "http://www.w3.org/TR/2001/REC-SVG-20010904/DTD/svg10.dtd">
<svg version="1.0" xmlns="http://www.w3.org/2000/svg"
 width="1280.000000pt" height="732.000000pt" viewBox="0 0 1280.000000 732.000000"
 preserveAspectRatio="xMidYMid meet">
<g transform="translate(0.000000,732.000000) scale(0.100000,-0.100000)"
fill="#000000" stroke="none">
<path d="M3000 6234 c-331 -38 -543 -91 -780 -196 -145 -64 -217 -112 -244
-163 -20 -38 -21 -57 -24 -480 -2 -242 0 -464 3 -494 5 -41 14 -61 35 -83 49
-49 58 -45 292 114 237 161 501 254 758 265 135 6 210 -6 296 -46 86 -40 148
-100 186 -180 27 -56 33 -80 36 -160 12 -252 -79 -395 -471 -743 -228 -203
-331 -327 -412 -493 -93 -193 -131 -424 -106 -645 23 -201 61 -303 124 -337
43 -23 455 -37 708 -25 156 7 183 11 207 29 47 35 50 61 18 183 -25 96 -28
122 -24 212 10 219 100 350 438 638 490 418 647 651 736 1090 45 228 34 404
-42 639 -62 190 -138 323 -259 450 -163 173 -386 295 -665 367 -165 42 -282
55 -530 58 -135 2 -261 2 -280 0z"/>
<path d="M5944 6224 c-231 -28 -442 -81 -645 -164 -141 -57 -250 -119 -278
-158 -34 -48 -40 -105 -47 -477 -12 -535 -12 -535 12 -575 49 -84 98 -78 254
34 188 135 344 212 533 265 418 117 719 30 798 -231 18 -58 21 -86 16 -167
-12 -223 -106 -361 -457 -671 -169 -149 -239 -221 -317 -324 -156 -209 -234
-475 -219 -751 7 -144 36 -289 68 -347 42 -77 58 -81 343 -91 311 -10 591 2
630 27 47 31 50 59 21 177 -43 176 -34 316 29 446 58 118 138 201 466 485 399
345 568 601 644 977 40 196 46 262 35 369 -56 538 -356 921 -853 1087 -121 40
-312 80 -456 95 -139 14 -441 11 -577 -6z"/>
<path d="M9040 6233 c-318 -26 -776 -167 -947 -292 -77 -56 -76 -50 -87 -471
-14 -525 -14 -578 7 -617 20 -39 53 -63 85 -63 32 0 68 20 170 94 167 121 345
211 519 260 366 105 639 61 765 -122 88 -128 91 -329 6 -497 -65 -129 -157
-230 -430 -473 -75 -67 -162 -150 -193 -184 -224 -246 -325 -524 -312 -853 10
-231 55 -378 127 -420 30 -17 63 -20 280 -27 135 -5 326 -5 426 0 163 7 184
11 212 30 44 32 47 65 17 176 -56 204 -26 385 87 536 70 92 125 146 308 303
213 183 425 395 503 504 108 152 180 309 228 498 30 114 38 439 16 582 -107
672 -671 1050 -1557 1041 -102 -1 -205 -3 -230 -5z"/>
<path d="M3025 2341 c-211 -54 -376 -177 -458 -341 -171 -341 9 -743 388 -867
109 -35 305 -44 421 -18 313 69 513 309 514 616 0 82 -27 203 -58 266 -113
221 -365 364 -636 362 -62 0 -128 -7 -171 -18z"/>
<path d="M6040 2336 c-158 -43 -257 -101 -356 -209 -301 -329 -143 -848 301
-994 108 -35 305 -44 422 -18 145 31 277 109 372 219 149 172 183 449 82 658
-134 278 -500 431 -821 344z"/>
<path d="M9075 2339 c-135 -33 -237 -90 -335 -189 -97 -96 -132 -154 -160
-266 -89 -348 133 -688 504 -769 115 -26 312 -17 421 18 378 123 549 520 376
873 -78 157 -248 284 -445 334 -104 26 -251 26 -361 -1z"/>
</g>
</svg>
