<?xml version="1.0" standalone="no"?><!DOCTYPE svg PUBLIC "-//W3C//DTD SVG 1.1//EN" "http://www.w3.org/Graphics/SVG/1.1/DTD/svg11.dtd"><svg t="1651822515465" class="icon" viewBox="0 0 1574 1024" version="1.1" xmlns="http://www.w3.org/2000/svg" p-id="8207" xmlns:xlink="http://www.w3.org/1999/xlink" width="307.421875" height="200"><defs><style type="text/css">@font-face { font-family: feedback-iconfont; src: url("//at.alicdn.com/t/font_1031158_u69w8yhxdu.woff2?t=1630033759944") format("woff2"), url("//at.alicdn.com/t/font_1031158_u69w8yhxdu.woff?t=1630033759944") format("woff"), url("//at.alicdn.com/t/font_1031158_u69w8yhxdu.ttf?t=1630033759944") format("truetype"); }
</style></defs><path d="M1472.859097 415.113203c0-36.224089 28.595994-65.681521 64.439302-67.235855V166.107704H37.453823v181.769644c35.837066 1.548091 64.445544 31.005523 64.445544 67.235855 0 36.224089-28.608478 65.681521-64.445544 67.229612v504.203362h1499.844576V482.342815c-35.837066-1.554334-64.439302-31.011765-64.439302-67.229612z" fill="#8FDFC9" p-id="8208"></path><path d="M168.891772 986.546177h313.4448v-146.475658H168.891772v146.475658z m313.4448-146.469416v146.475659h908.124115v-146.475659H482.336572z" fill="#FFECA6" p-id="8209"></path><path d="M1390.460687 1011.515392H168.891772a24.969215 24.969215 0 0 1-24.969216-24.969215v-146.475658a24.969215 24.969215 0 0 1 24.969216-24.969216h1221.562673a24.969215 24.969215 0 0 1 24.969215 24.969216v146.475658c0.006242 13.789249-11.173724 24.969215-24.962973 24.969215z m-883.154899-49.93843h858.185684v-96.537228H507.305788v96.537228z m-313.444801 0h263.50637v-96.537228H193.860987v96.537228z" fill="#6E6E96" p-id="8210"></path><path d="M195.908462 357.502981h215.677839v324.599798H195.908462z" fill="#9E9EAB" p-id="8211"></path><path d="M195.908462 613.437437h215.677839v68.665342H195.908462zM354.81879 423.047171h42.56627v190.390266h-42.56627z" fill="#6E6E96" opacity=".15" p-id="8212"></path><path d="M411.567574 357.502981H195.908462v255.934456h65.263287v-190.390266h150.395825z" fill="#FFFFFF" opacity=".22" p-id="8213"></path><path d="M411.580059 707.071994h-215.671597a24.969215 24.969215 0 0 1-24.969215-24.969215v-324.599798a24.969215 24.969215 0 0 1 24.969215-24.969215h215.677839a24.969215 24.969215 0 0 1 24.969215 24.969215v324.599798a24.9817 24.9817 0 0 1-24.975457 24.969215z m-190.702381-49.938431h165.739408v-274.661367H220.877678v274.661367z" fill="#6E6E96" p-id="8214"></path><path d="M1155.038441 357.502981h215.665354v324.599798h-215.665354z" fill="#9E9EAB" p-id="8215"></path><path d="M1155.038441 613.437437h215.665354v68.665342h-215.665354zM1313.948769 423.047171h42.560028v190.390266h-42.560028z" fill="#6E6E96" opacity=".15" p-id="8216"></path><path d="M1370.703795 357.502981h-215.665354v255.934456h65.269529v-190.390266h150.395825z" fill="#FFFFFF" opacity=".22" p-id="8217"></path><path d="M1370.703795 707.071994h-215.665354a24.969215 24.969215 0 0 1-24.969215-24.969215v-324.599798a24.969215 24.969215 0 0 1 24.969215-24.969215h215.665354a24.969215 24.969215 0 0 1 24.969216 24.969215v324.599798a24.969215 24.969215 0 0 1-24.969216 24.969215z m-190.696138-49.938431h165.726923v-274.661367h-165.726923v274.661367z" fill="#6E6E96" p-id="8218"></path><path d="M516.563124 357.502981H732.222236v324.599798H516.563124z" fill="#9E9EAB" p-id="8219"></path><path d="M516.563124 613.437437H732.222236v68.665342H516.563124zM675.473452 423.047171h42.56627v190.390266h-42.56627z" fill="#6E6E96" opacity=".15" p-id="8220"></path><path d="M732.228478 357.502981H516.563124v255.934456h65.263286v-190.390266h150.402068z" fill="#FFFFFF" opacity=".22" p-id="8221"></path><path d="M732.222236 707.071994H516.563124a24.969215 24.969215 0 0 1-24.969215-24.969215v-324.599798a24.969215 24.969215 0 0 1 24.969215-24.969215H732.222236a24.969215 24.969215 0 0 1 24.969215 24.969215v324.599798a24.969215 24.969215 0 0 1-24.969215 24.969215z m-190.689897-49.938431H707.253021v-274.661367H541.532339v274.661367z" fill="#6E6E96" p-id="8222"></path><path d="M834.38378 357.502981h215.665354v324.599798h-215.665354z" fill="#9E9EAB" p-id="8223"></path><path d="M834.38378 613.437437h215.665354v68.665342h-215.665354zM993.294108 423.047171h42.566269v190.390266h-42.566269z" fill="#6E6E96" opacity=".15" p-id="8224"></path><path d="M1050.049134 357.502981h-215.665354v255.934456h65.269528v-190.390266h150.395826z" fill="#FFFFFF" opacity=".22" p-id="8225"></path><path d="M1050.049134 707.071994h-215.665354a24.969215 24.969215 0 0 1-24.969215-24.969215v-324.599798a24.969215 24.969215 0 0 1 24.969215-24.969215h215.665354a24.969215 24.969215 0 0 1 24.969215 24.969215v324.599798a24.969215 24.969215 0 0 1-24.969215 24.969215z m-190.696139-49.938431h165.726924v-274.661367h-165.726924v274.661367z" fill="#6E6E96" p-id="8226"></path><path d="M170.427378 856.369174h1231.812536v49.93843H170.427378z" fill="#6E6E96" opacity=".15" p-id="8227"></path><path d="M37.453823 910.464978h145.458163v49.938431H37.453823z" fill="#6E6E96" opacity=".15" p-id="8228"></path><path d="M1389.755307 910.464978h147.549334v49.938431h-147.549334z" fill="#6E6E96" opacity=".15" p-id="8229"></path><path d="M37.453823 190.521354h1499.844576v49.938431H37.453823z" fill="#FFFFFF" opacity=".25" p-id="8230"></path><path d="M1537.298399 1011.515392H37.453823a24.969215 24.969215 0 0 1-24.969215-24.969215V482.342815a24.969215 24.969215 0 0 1 23.889296-24.944246 42.266639 42.266639 0 0 0 40.556248-42.285366 42.272881 42.272881 0 0 0-40.556248-42.291609A24.969215 24.969215 0 0 1 12.484608 347.877348V166.107704a24.969215 24.969215 0 0 1 24.969215-24.969215h1499.844576a24.969215 24.969215 0 0 1 24.969215 24.969215v181.769644a24.969215 24.969215 0 0 1-23.883054 24.944246c-22.746955 0.992526-40.556248 19.569622-40.556248 42.291609s17.815535 41.299082 40.550006 42.285366a24.969215 24.969215 0 0 1 23.889296 24.944246v504.203362a24.969215 24.969215 0 0 1-24.969215 24.969215z m-1474.875361-49.93843h1449.906146V503.110959A92.073981 92.073981 0 0 1 1447.889882 415.113203a92.086466 92.086466 0 0 1 64.439302-87.997757V191.076919H62.423038v136.032285A92.073981 92.073981 0 0 1 126.868582 415.113203 92.080223 92.080223 0 0 1 62.423038 503.110959v458.466003z" fill="#6E6E96" p-id="8231"></path></svg>