<?xml version="1.0" standalone="no"?><!DOCTYPE svg PUBLIC "-//W3C//DTD SVG 1.1//EN" "http://www.w3.org/Graphics/SVG/1.1/DTD/svg11.dtd"><svg t="1651822630967" class="icon" viewBox="0 0 1024 1024" version="1.1" xmlns="http://www.w3.org/2000/svg" p-id="9228" xmlns:xlink="http://www.w3.org/1999/xlink" width="200" height="200"><defs><style type="text/css">@font-face { font-family: feedback-iconfont; src: url("//at.alicdn.com/t/font_1031158_u69w8yhxdu.woff2?t=1630033759944") format("woff2"), url("//at.alicdn.com/t/font_1031158_u69w8yhxdu.woff?t=1630033759944") format("woff"), url("//at.alicdn.com/t/font_1031158_u69w8yhxdu.ttf?t=1630033759944") format("truetype"); }
</style></defs><path d="M59.733333 614.4h930.133334a8.533333 8.533333 0 0 1 8.533333 8.533333v238.933334a8.533333 8.533333 0 0 1-8.533333 8.533333H59.733333a8.533333 8.533333 0 0 1-8.533333-8.533333V622.933333a8.533333 8.533333 0 0 1 8.533333-8.533333z" fill="#96CAFF" p-id="9229"></path><path d="M76.8 588.8l176.128-377.941333A76.8 76.8 0 0 1 315.050667 179.2H759.466667a76.8 76.8 0 0 1 62.122666 31.658667L996.266667 588.8" fill="#B3D9FF" p-id="9230"></path><path d="M742.4 204.8l175.274667 362.752h57.941333L805.290667 204.8H742.4z" fill="#96CAFF" p-id="9231"></path><path d="M51.2 588.8a25.6 25.6 0 0 0-25.6 25.6v204.8a25.6 25.6 0 0 0 25.6 25.6h921.6a25.6 25.6 0 0 0 25.6-25.6V614.4a25.6 25.6 0 0 0-25.6-25.6z m0-25.6h921.6a51.2 51.2 0 0 1 51.2 51.2v204.8a51.2 51.2 0 0 1-51.2 51.2H51.2a51.2 51.2 0 0 1-51.2-51.2V614.4a51.2 51.2 0 0 1 51.2-51.2z" fill="#175AA7" p-id="9232"></path><path d="M204.8 221.866667l-23.210667-10.837334 20.736 15.018667 1.365334-1.792z m616.533333 4.266666l20.736-15.018666L818.432 221.866667l1.194667 2.474666zM243.370667 204.8h536.149333A51.2 51.2 0 0 1 819.2 224.085333L988.501333 588.8h28.245334L841.642667 210.858667A76.8 76.8 0 0 0 779.52 179.2H243.370667a76.8 76.8 0 0 0-62.122667 31.658667L5.12 588.8h28.245333l169.898667-364.714667a51.2 51.2 0 0 1 40.106667-19.285333z m577.536 21.077333l20.736-15.018666L818.432 221.866667l1.194667 2.474666z m-619.008 0l-20.736-15.018666L204.8 221.866667l-1.109333 2.474666zM988.501333 588.8h28.245334L841.642667 210.858667A76.8 76.8 0 0 0 779.52 179.2H243.370667a76.8 76.8 0 0 0-62.122667 31.658667L5.12 588.8h28.245333l169.898667-364.714667a51.2 51.2 0 0 1 40.106667-19.285333h536.149333A51.2 51.2 0 0 1 819.2 224.085333zM883.2 768a38.4 38.4 0 1 0-38.4-38.4 38.4 38.4 0 0 0 38.4 38.4z m0 25.6a64 64 0 1 1 64-64 64 64 0 0 1-64 64z" fill="#175AA7" p-id="9233"></path><path d="M512 492.458667c125.696 0 200.789333-67.413333 174.165333-129.877334C666.794667 316.672 592.725333 281.6 512 281.6s-154.538667 35.072-174.165333 80.981333C311.552 425.045333 386.56 492.458667 512 492.458667z m-197.376-139.946667C339.712 293.717333 425.898667 256 512 256s172.885333 37.717333 197.973333 96.512c33.621333 78.848-49.493333 165.546667-197.717333 165.546667s-231.253333-86.698667-197.632-165.546667zM842.922667 479.829333c-13.226667 0-20.309333 11.52-15.616 26.112a40.533333 40.533333 0 0 0 34.133333 27.818667c14.165333 0 20.821333-12.714667 15.018667-27.818667a40.618667 40.618667 0 0 0-34.133334-26.112M155.648 505.941333c-5.717333 15.189333 0.853333 27.818667 15.018667 27.818667a40.533333 40.533333 0 0 0 34.56-27.818667c4.693333-14.677333-2.389333-26.112-15.616-26.112a40.618667 40.618667 0 0 0-33.962667 26.112zM264.533333 260.608c-3.157333 8.533333 2.645333 15.104 13.056 15.104a25.6 25.6 0 0 0 23.722667-15.104c2.56-8.106667-3.413333-14.421333-13.312-14.421333A26.026667 26.026667 0 0 0 264.533333 260.608zM754.688 275.797333c10.410667 0 16.213333-6.912 13.056-15.104a26.026667 26.026667 0 0 0-23.381333-14.421333c-9.898667 0-15.872 6.4-13.312 14.421333a25.6 25.6 0 0 0 23.722666 15.104" fill="#175AA7" p-id="9234"></path></svg>