<?xml version="1.0" standalone="no"?><!DOCTYPE svg PUBLIC "-//W3C//DTD SVG 1.1//EN" "http://www.w3.org/Graphics/SVG/1.1/DTD/svg11.dtd"><svg t="1672235119832" class="icon" viewBox="0 0 1024 1024" version="1.1" xmlns="http://www.w3.org/2000/svg" p-id="4408" xmlns:xlink="http://www.w3.org/1999/xlink" width="200" height="200"><path d="M509.885849 124.731816c-212.664517 0-385.02919 172.361603-385.02919 385.02612 0 212.667587 172.364673 385.02919 385.02919 385.02919s385.02612-172.361603 385.02612-385.02919C894.91197 297.092395 722.550367 124.731816 509.885849 124.731816zM565.361325 799.866267 446.992427 799.866267 446.992427 685.752276l118.367875 0L565.360302 799.866267zM674.779364 472.152457c-9.181103 11.411911-28.891004 28.634154-59.236126 51.871391-25.414833 18.983353-41.522696 35.270295-48.342008 49.067532-6.742565 13.796214-10.088776 32.832779-10.088776 57.212026L449.146487 630.303406c0-51.401694 11.592013-92.015693 34.855856-121.738645 3.292999-3.837398 24.63712-22.977317 64.188928-57.626465 22.692838-20.539802 34.078143-44.348044 34.078143-71.425749 0-21.681812-7.987928-39.729863-23.911596-54.357002-15.97688-14.576997-34.469046-21.88852-55.552224-21.88852-21.110807 0-39.240723 7.571443-54.360072 22.77061-17.298991 16.909112-28.113291 41.3385-32.391734 73.393567l-112.737644 0c0-57.419757 17.686824-103.219873 53.088102-137.555889 35.478026-34.44244 82.083483-51.611471 139.916657-51.611471 65.460898 0 116.604718 15.767102 153.37825 47.409776 36.803207 31.640628 55.137785 76.19538 55.137785 133.407406C704.836937 421.943938 694.800349 448.968431 674.779364 472.152457z" fill="#CA2188" p-id="4409"></path></svg>